<svg width="61" height="60" viewBox="0 0 61 60" fill="none" xmlns="http://www.w3.org/2000/svg">
<circle cx="30.75" cy="30" r="30" fill="#FFEBCC"/>
<rect width="43.6364" height="43.6364" transform="translate(8.02246 9.09082)" fill="#FFEBCC"/>
<path d="M48.0228 21.3639H42.9521C41.8592 21.3639 41.3126 21.3639 40.7974 21.2079C40.2821 21.0518 39.8274 20.7487 38.9179 20.1424C37.5539 19.233 35.9977 18.1956 35.2246 17.9616C34.4517 17.7275 33.6319 17.7275 31.9925 17.7275C29.763 17.7275 28.3259 17.7275 27.3235 18.1427C26.3212 18.5579 25.5329 19.3462 23.9564 20.9227L22.569 22.3102C22.2137 22.6654 22.036 22.8431 21.9264 23.0185C21.5198 23.6686 21.5649 24.504 22.039 25.1066C22.1669 25.2692 22.3626 25.4267 22.7541 25.7418C24.2009 26.9062 26.2868 26.7899 27.597 25.4719L29.841 23.2146H31.6592L42.5683 34.1886C43.5725 35.1988 43.5725 36.8364 42.5683 37.8466C41.5641 38.8568 39.9361 38.8568 38.9319 37.8466L38.0228 36.932M38.0228 36.932L32.5683 31.4451M38.0228 36.932C39.027 37.9422 39.027 39.58 38.0228 40.59C37.0186 41.6002 35.3906 41.6002 34.3865 40.59L32.5683 38.7611M32.5683 38.7611C33.5725 39.7711 33.5725 41.4089 32.5683 42.4191C31.5641 43.4291 29.9361 43.4291 28.9319 42.4191L26.2046 39.6755M32.5683 38.7611L28.9319 35.1248M26.2046 39.6755L25.2955 38.7611M26.2046 39.6755C27.2088 40.6857 27.2088 42.3235 26.2046 43.3337C25.2005 44.3437 23.5724 44.3437 22.5683 43.3337L17.4344 38.0928C16.3795 37.0158 15.852 36.4775 15.1762 36.1933C14.5004 35.9093 13.7466 35.9093 12.2391 35.9093H11.6592" stroke="#666666" stroke-width="2.72727" stroke-linecap="round" stroke-linejoin="round"/>
<path d="M48.023 35.9092H43.4775" stroke="#666666" stroke-width="2.72727" stroke-linecap="round"/>
<path d="M23.4774 21.3633H11.6592" stroke="#666666" stroke-width="2.72727" stroke-linecap="round"/>
</svg>
