<svg width="61" height="60" viewBox="0 0 61 60" fill="none" xmlns="http://www.w3.org/2000/svg">
<circle cx="30.25" cy="30" r="30" fill="#FFEBCC"/>
<rect width="43.6364" height="43.6364" transform="translate(7.52344 9.09082)" fill="#FFEBCC"/>
<path d="M43.0823 16.3633L44.7141 18.1374C45.4432 18.9299 45.8077 19.3262 45.6795 19.6629C45.5512 19.9996 45.0357 19.9996 44.0046 19.9996C41.6968 19.9996 38.9359 19.6268 36.8159 20.8602C35.5054 21.6228 34.5926 22.9545 33.0488 25.4542M12.9775 41.8178H15.8518C19.357 41.8178 21.1097 41.8178 22.5888 40.9573C23.8995 40.1947 24.8122 38.8629 26.3561 36.3633" stroke="#666666" stroke-width="2.72727" stroke-linecap="round" stroke-linejoin="round"/>
<path d="M43.0823 45.4545L44.7141 43.6805C45.4432 42.8878 45.8077 42.4916 45.6795 42.1549C45.5512 41.8182 45.0357 41.8182 44.0046 41.8182C41.6968 41.8182 38.9359 42.1911 36.8159 40.9576C35.3368 40.0971 34.3646 38.5118 32.4203 35.3411L26.9844 26.4771C25.0401 23.3064 24.0679 21.7211 22.5888 20.8605C21.1097 20 19.357 20 15.8518 20H12.9775" stroke="#666666" stroke-width="2.72727" stroke-linecap="round" stroke-linejoin="round"/>
</svg>
