<svg width="61" height="60" viewBox="0 0 61 60" fill="none" xmlns="http://www.w3.org/2000/svg">
<circle cx="30.25" cy="30" r="30" fill="#FFEBCC"/>
<rect width="43.6364" height="43.6364" transform="translate(9.34082 7.27246)" fill="#FFEBCC"/>
<path d="M17.0179 47.2634V40.8094C17.0179 38.4977 16.4126 37.2961 15.2227 35.287C13.7963 32.8788 12.9775 30.0683 12.9775 27.0666C12.9775 18.1431 20.2133 10.9092 29.1392 10.9092C38.065 10.9092 45.3008 18.1431 45.3008 27.0666C45.3008 28.1206 45.3008 28.6477 45.3448 28.9432C45.4499 29.6495 45.7795 30.2572 46.1037 30.8861L49.3412 37.165L46.7968 38.4368C46.0594 38.8054 45.6908 38.9897 45.4339 39.3299C45.177 39.6699 45.1048 40.0539 44.9601 40.8217L44.9459 40.8966C44.6146 42.6557 44.249 44.5975 43.2192 45.8226C42.8555 46.2552 42.4054 46.6066 41.8974 46.8545C41.0588 47.2634 40.0279 47.2634 37.9661 47.2634C37.0121 47.2634 36.0554 47.2854 35.1015 47.2623C32.8406 47.2072 31.1594 45.3063 31.1594 43.099" stroke="#666666" stroke-width="2.72727" stroke-linecap="round" stroke-linejoin="round"/>
<path d="M35.5007 26.4206C34.7256 26.4206 34.0187 26.1273 33.4833 25.6447M35.5007 26.4206C35.5007 28.504 34.2936 30.4829 31.97 30.4829C29.6464 30.4829 28.4395 32.4616 28.4395 34.5451M35.5007 26.4206C39.4085 26.4206 39.4085 20.3272 35.5007 20.3272C35.1456 20.3272 34.8049 20.3888 34.4884 20.5019C34.6793 15.96 28.1315 14.7269 26.6484 18.9818M26.6484 18.9818C27.7285 19.7107 28.4395 20.951 28.4395 22.3584M26.6484 18.9818C23.2815 16.7094 18.7931 20.7871 20.9284 24.4229C17.3448 24.9601 17.728 30.4829 21.378 30.4829C22.4015 30.4829 23.3064 29.9713 23.8541 29.1884" stroke="#666666" stroke-width="2.72727" stroke-linecap="round" stroke-linejoin="round"/>
</svg>
