<svg width="61" height="60" viewBox="0 0 61 60" fill="none" xmlns="http://www.w3.org/2000/svg">
<circle cx="30.25" cy="30" r="30" fill="#FFEBCC"/>
<rect width="43.6364" height="43.6364" transform="translate(7.52246 9.09082)" fill="#FFEBCC"/>
<path d="M28.9794 20.8903L31.6805 18.1893C34.7217 15.148 38.7034 13.8865 42.9172 13.6803C44.5563 13.6002 45.3757 13.5601 46.0328 14.2172C46.6901 14.8744 46.6499 15.6939 46.5697 17.3329C46.3635 21.5467 45.1021 25.5284 42.0608 28.5696L39.3597 31.2707C37.1354 33.4951 36.503 34.1276 36.9699 36.5404C37.4308 38.3835 37.8768 40.1682 36.5366 41.5084C34.911 43.134 33.4281 43.134 31.8025 41.5084L18.7417 28.4476C17.1161 26.822 17.116 25.3391 18.7417 23.7134C20.0819 22.3733 21.8666 22.8193 23.7097 23.2802C26.1225 23.7471 26.755 23.1147 28.9794 20.8903Z" stroke="#666666" stroke-width="2.72727" stroke-linejoin="round"/>
<path d="M38.4248 21.8184H38.4412" stroke="#666666" stroke-width="3.63636" stroke-linecap="round" stroke-linejoin="round"/>
<path d="M12.0684 48.1817L21.1593 39.0908" stroke="#666666" stroke-width="2.72727" stroke-linecap="round"/>
<path d="M22.9775 48.1823L26.6139 44.5459" stroke="#666666" stroke-width="2.72727" stroke-linecap="round"/>
<path d="M12.0684 37.2731L15.7047 33.6367" stroke="#666666" stroke-width="2.72727" stroke-linecap="round"/>
</svg>
