<svg width="61" height="60" viewBox="0 0 61 60" fill="none" xmlns="http://www.w3.org/2000/svg">
<circle cx="30.75" cy="30" r="30" fill="#FFEBCC"/>
<rect width="43.6364" height="43.6364" transform="translate(8.02344 9.09082)" fill="#FFEBCC"/>
<path d="M29.7428 20L25.4483 40.1555C25.1066 41.7595 25.2947 42.36 26.4726 43.5118L31.2364 48.1698C31.8644 48.7838 32.1784 49.0909 32.5686 49.0909C32.9588 49.0909 33.2728 48.7838 33.9008 48.1698L38.6646 43.5118C39.8426 42.36 40.0306 41.7595 39.689 40.1555L35.3944 20" stroke="#666666" stroke-width="2.72727" stroke-linecap="round" stroke-linejoin="round"/>
<path d="M27.2165 14.7712C27.094 13.8187 27.0327 13.3424 27.312 13.035C27.5914 12.7275 28.0854 12.7275 29.0734 12.7275H36.0621C37.0501 12.7275 37.5441 12.7275 37.8236 13.035C38.1029 13.3424 38.0416 13.8187 37.9191 14.7712L37.8267 15.4899C37.5674 17.5042 37.438 18.5114 36.7903 19.1648C36.6851 19.271 36.5711 19.3687 36.4496 19.4569C35.702 20.0003 34.6572 20.0003 32.5678 20.0003C30.4783 20.0003 29.4336 20.0003 28.686 19.4569C28.5645 19.3687 28.4505 19.271 28.3452 19.1648C27.6976 18.5114 27.5681 17.5042 27.3089 15.4899L27.2165 14.7712Z" stroke="#666666" stroke-width="2.72727" stroke-linecap="round" stroke-linejoin="round"/>
<path d="M26.2045 36.3636C25.0994 37.6227 24.1637 38.1818 23.4772 38.1818C22.5965 38.1818 21.011 35.9625 20.3073 34.3553C19.9772 33.6011 19.8121 33.224 19.8449 32.7469C19.8777 32.2698 20.094 31.9209 20.5265 31.2231C22.972 27.2771 27.1399 23.6748 29.8409 20" stroke="#666666" stroke-width="2.72727" stroke-linejoin="round"/>
</svg>
