<svg width="61" height="60" viewBox="0 0 61 60" fill="none" xmlns="http://www.w3.org/2000/svg">
<circle cx="30.25" cy="30" r="30" fill="#FFEBCC"/>
<rect width="43.6364" height="43.6364" transform="translate(7.52246 9.09082)" fill="#FFEBCC"/>
<path d="M35.7048 29.0912C35.7048 25.5766 32.8557 22.7275 29.3412 22.7275C25.8266 22.7275 22.9775 25.5766 22.9775 29.0912C22.9775 32.6057 25.8266 35.4548 29.3412 35.4548C32.8557 35.4548 35.7048 32.6057 35.7048 29.0912Z" stroke="#666666" stroke-width="2.72727" stroke-linecap="round" stroke-linejoin="round"/>
<path d="M35.674 29.7268C36.2594 29.9043 36.8803 29.9997 37.5236 29.9997C41.0381 29.9997 43.8872 27.1506 43.8872 23.6361C43.8872 20.1216 41.0381 17.2725 37.5236 17.2725C34.2238 17.2725 31.5105 19.7841 31.1914 23" stroke="#666666" stroke-width="2.72727" stroke-linecap="round" stroke-linejoin="round"/>
<path d="M27.4917 23C27.1726 19.7841 24.4594 17.2725 21.1595 17.2725C17.645 17.2725 14.7959 20.1216 14.7959 23.6361C14.7959 27.1506 17.645 29.9997 21.1595 29.9997C21.8028 29.9997 22.4238 29.9043 23.0091 29.7268" stroke="#666666" stroke-width="2.72727" stroke-linecap="round" stroke-linejoin="round"/>
<path d="M47.5225 39.0909C47.5225 34.0702 43.0454 30 37.5225 30" stroke="#666666" stroke-width="2.72727" stroke-linecap="round" stroke-linejoin="round"/>
<path d="M39.3408 44.545C39.3408 39.5243 34.8637 35.4541 29.3408 35.4541C23.818 35.4541 19.3408 39.5243 19.3408 44.545" stroke="#666666" stroke-width="2.72727" stroke-linecap="round" stroke-linejoin="round"/>
<path d="M21.1592 30C15.6363 30 11.1592 34.0702 11.1592 39.0909" stroke="#666666" stroke-width="2.72727" stroke-linecap="round" stroke-linejoin="round"/>
</svg>
