<svg width="61" height="61" viewBox="0 0 61 61" fill="none" xmlns="http://www.w3.org/2000/svg">
<circle cx="30.75" cy="30.5" r="30" fill="#FFEBCC"/>
<rect width="43.4411" height="43.4411" transform="translate(9 8.75)" fill="#FFEBCC"/>
<path d="M46.1059 27.7561V44.0465C46.1059 44.8898 46.1059 45.3115 45.9682 45.6442C45.7845 46.0877 45.432 46.4401 44.9886 46.6238C44.6559 46.7616 44.2342 46.7616 43.3909 46.7616C42.5476 46.7616 42.1258 46.7616 41.7931 46.6238C41.3497 46.4401 40.9972 46.0877 40.8135 45.6442C40.6758 45.3115 40.6758 44.8898 40.6758 44.0465V27.7561C40.6758 26.9128 40.6758 26.491 40.8135 26.1584C40.9972 25.7149 41.3497 25.3625 41.7931 25.1788C42.1258 25.041 42.5476 25.041 43.3909 25.041C44.2342 25.041 44.6559 25.041 44.9886 25.1788C45.432 25.3625 45.7845 25.7149 45.9682 26.1584C46.1059 26.491 46.1059 26.9128 46.1059 27.7561Z" stroke="#666666" stroke-width="2.625" stroke-linejoin="round"/>
<path d="M38.8662 14.1797H44.2964V19.6098" stroke="#666666" stroke-width="2.625" stroke-linecap="round" stroke-linejoin="round"/>
<path d="M43.3912 15.0859C43.3912 15.0859 36.151 24.1362 17.1455 30.4713" stroke="#666666" stroke-width="2.625" stroke-linecap="round" stroke-linejoin="round"/>
<path d="M33.436 34.091V44.0463C33.436 44.8896 33.436 45.3113 33.2983 45.644C33.1145 46.0875 32.7621 46.4399 32.3187 46.6236C31.986 46.7614 31.5642 46.7614 30.7209 46.7614C29.8776 46.7614 29.4559 46.7614 29.1232 46.6236C28.6797 46.4399 28.3273 46.0875 28.1436 45.644C28.0059 45.3113 28.0059 44.8896 28.0059 44.0463V34.091C28.0059 33.2477 28.0059 32.826 28.1436 32.4933C28.3273 32.0499 28.6797 31.6974 29.1232 31.5137C29.4559 31.376 29.8776 31.376 30.7209 31.376C31.5642 31.376 31.986 31.376 32.3187 31.5137C32.7621 31.6974 33.1145 32.0499 33.2983 32.4933C33.436 32.826 33.436 33.2477 33.436 34.091Z" stroke="#666666" stroke-width="2.625" stroke-linejoin="round"/>
<path d="M20.7661 38.6155V44.0456C20.7661 44.8889 20.7661 45.3106 20.6283 45.6433C20.4446 46.0868 20.0922 46.4392 19.6487 46.6229C19.3161 46.7607 18.8944 46.7607 18.051 46.7607C17.2076 46.7607 16.7859 46.7607 16.4533 46.6229C16.0098 46.4392 15.6574 46.0868 15.4737 45.6433C15.3359 45.3106 15.3359 44.8889 15.3359 44.0456V38.6155C15.3359 37.7722 15.3359 37.3504 15.4737 37.0177C15.6574 36.5743 16.0098 36.2219 16.4533 36.0381C16.7859 35.9004 17.2076 35.9004 18.051 35.9004C18.8944 35.9004 19.3161 35.9004 19.6487 36.0381C20.0922 36.2219 20.4446 36.5743 20.6283 37.0177C20.7661 37.3504 20.7661 37.7722 20.7661 38.6155Z" stroke="#666666" stroke-width="2.625" stroke-linejoin="round"/>
</svg>
