<svg width="61" height="60" viewBox="0 0 61 60" fill="none" xmlns="http://www.w3.org/2000/svg">
<circle cx="30.75" cy="30" r="30" fill="#FFEBCC"/>
<rect width="43.6364" height="43.6364" transform="translate(8.02344 9.09082)" fill="#FFEBCC"/>
<path d="M44.3866 36.3641C44.3866 39.7528 44.3866 41.447 43.8329 42.7835C43.0947 44.5655 41.6789 45.9814 39.8969 46.7195C38.5604 47.2732 36.866 47.2732 33.4775 47.2732H28.0229C21.1662 47.2732 17.7377 47.2732 15.6076 45.143C13.4774 43.0128 13.4775 39.5844 13.4775 32.7275L13.4776 21.8183C13.4777 17.8019 16.7337 14.5459 20.7501 14.5459" stroke="#666666" stroke-width="2.72727" stroke-linecap="round" stroke-linejoin="round"/>
<path d="M26.2045 24.5451L26.993 31.7613C27.0683 32.3646 27.439 32.8904 27.9976 33.1304C29.2448 33.666 31.5808 34.5451 33.4772 34.5451C35.3737 34.5451 37.7097 33.666 38.957 33.1304C39.5156 32.8904 39.8863 32.3646 39.9616 31.7613L40.7499 24.5451M45.2954 22.7269V29.58M33.4772 16.3633L20.75 21.8178L33.4772 27.2724L46.2045 21.8178L33.4772 16.3633Z" stroke="#666666" stroke-width="2.72727" stroke-linecap="round" stroke-linejoin="round"/>
</svg>
