<svg width="24" height="24" viewBox="0 0 24 24" fill="none" xmlns="http://www.w3.org/2000/svg">
<g clip-path="url(#clip0_743_3530)">
<path d="M12.0047 0.803711C7.32781 0.803711 5.96281 0.808086 5.69594 0.829961C4.73344 0.908711 4.13844 1.06184 3.48656 1.38559C2.98781 1.63496 2.58969 1.91934 2.20031 2.32621C1.49156 3.06559 1.05844 3.97121 0.905313 5.05184C0.830938 5.57684 0.809063 5.68184 0.804688 8.35934V11.9993C0.804688 16.6718 0.809062 18.0368 0.830937 18.3037C0.909687 19.2356 1.05406 19.8262 1.36469 20.4693C1.95531 21.6987 3.08844 22.6218 4.42281 22.9675C4.88656 23.0856 5.39406 23.1512 6.05031 23.1818C6.32594 23.195 9.15656 23.2037 11.9828 23.2037C14.8091 23.2037 17.6397 23.1993 17.9109 23.1862C18.6678 23.1512 19.1097 23.09 19.5953 22.9675C20.9384 22.6218 22.0497 21.7118 22.6534 20.465C22.9597 19.8393 23.1128 19.2268 23.1828 18.3431C23.1959 18.1506 23.2047 15.075 23.2047 12.0037C23.2047 8.93246 23.1959 5.86121 23.1828 5.66871C23.1128 4.76746 22.9597 4.16371 22.6447 3.52496C22.3866 2.99996 22.1022 2.61059 21.6866 2.21246C20.9472 1.50371 20.0416 1.07496 18.9609 0.917461C18.4359 0.843086 18.3353 0.821211 15.6578 0.816836H12.0047V0.803711Z" fill="url(#paint0_radial_743_3530)"/>
<path d="M12.0047 0.803711C7.32781 0.803711 5.96281 0.808086 5.69594 0.829961C4.73344 0.908711 4.13844 1.06184 3.48656 1.38559C2.98781 1.63496 2.58969 1.91934 2.20031 2.32621C1.49156 3.06559 1.05844 3.97121 0.905313 5.05184C0.830938 5.57684 0.809063 5.68184 0.804688 8.35934V11.9993C0.804688 16.6718 0.809062 18.0368 0.830937 18.3037C0.909687 19.2356 1.05406 19.8262 1.36469 20.4693C1.95531 21.6987 3.08844 22.6218 4.42281 22.9675C4.88656 23.0856 5.39406 23.1512 6.05031 23.1818C6.32594 23.195 9.15656 23.2037 11.9828 23.2037C14.8091 23.2037 17.6397 23.1993 17.9109 23.1862C18.6678 23.1512 19.1097 23.09 19.5953 22.9675C20.9384 22.6218 22.0497 21.7118 22.6534 20.465C22.9597 19.8393 23.1128 19.2268 23.1828 18.3431C23.1959 18.1506 23.2047 15.075 23.2047 12.0037C23.2047 8.93246 23.1959 5.86121 23.1828 5.66871C23.1128 4.76746 22.9597 4.16371 22.6447 3.52496C22.3866 2.99996 22.1022 2.61059 21.6866 2.21246C20.9472 1.50371 20.0416 1.07496 18.9609 0.917461C18.4359 0.843086 18.3353 0.821211 15.6578 0.816836H12.0047V0.803711Z" fill="url(#paint1_radial_743_3530)"/>
<path d="M12.0002 3.73096C9.75582 3.73096 9.47145 3.73971 8.59207 3.77908C7.7127 3.81846 7.10895 3.95846 6.58395 4.16408C6.04145 4.37408 5.5777 4.65846 5.11832 5.11783C4.65895 5.57721 4.37457 6.04096 4.16457 6.58346C3.95895 7.10846 3.81895 7.71221 3.77957 8.59158C3.7402 9.47533 3.73145 9.75533 3.73145 11.9997C3.73145 14.2441 3.7402 14.5285 3.77957 15.4078C3.81895 16.2872 3.95895 16.891 4.16457 17.416C4.37457 17.9585 4.65895 18.4222 5.11832 18.8816C5.5777 19.341 6.03707 19.6253 6.58395 19.8353C7.10895 20.041 7.7127 20.181 8.59207 20.2203C9.47582 20.2597 9.75582 20.2685 12.0002 20.2685C14.2446 20.2685 14.5289 20.2597 15.4083 20.2203C16.2877 20.181 16.8914 20.041 17.4164 19.8353C17.9589 19.6253 18.4227 19.341 18.8821 18.8816C19.3414 18.4222 19.6258 17.9585 19.8358 17.416C20.0371 16.891 20.1771 16.2872 20.2208 15.4078C20.2602 14.5241 20.2689 14.2441 20.2689 11.9997C20.2689 9.75533 20.2602 9.47096 20.2208 8.59158C20.1814 7.71221 20.0414 7.10846 19.8358 6.58346C19.6258 6.04096 19.3414 5.57721 18.8821 5.11783C18.4227 4.65846 17.9633 4.37408 17.4164 4.16408C16.8914 3.95846 16.2877 3.81846 15.4083 3.77908C14.5246 3.73971 14.2446 3.73096 12.0002 3.73096ZM11.2564 5.22283H12.0002C14.2096 5.22283 14.4677 5.23158 15.3427 5.27096C16.1477 5.30596 16.5852 5.44158 16.8783 5.55533C17.2633 5.70408 17.5389 5.88346 17.8277 6.17221C18.1164 6.46096 18.2958 6.73658 18.4446 7.12158C18.5583 7.41471 18.6939 7.85221 18.7289 8.65721C18.7683 9.52783 18.7771 9.79033 18.7771 11.9997C18.7771 14.2091 18.7683 14.4672 18.7289 15.3422C18.6939 16.1472 18.5583 16.5847 18.4446 16.8778C18.2958 17.2628 18.1164 17.5385 17.8277 17.8272C17.5389 18.116 17.2633 18.2953 16.8783 18.4441C16.5852 18.5578 16.1477 18.6935 15.3427 18.7285C14.4721 18.7678 14.2096 18.7766 12.0002 18.7766C9.79082 18.7766 9.52832 18.7678 8.6577 18.7285C7.8527 18.6891 7.4152 18.5578 7.12207 18.4441C6.73707 18.2953 6.46145 18.116 6.1727 17.8272C5.88395 17.5385 5.70457 17.2628 5.55582 16.8778C5.44207 16.5847 5.30645 16.1472 5.27145 15.3422C5.23207 14.4716 5.22332 14.2091 5.22332 11.9997C5.22332 9.79033 5.23207 9.53221 5.27145 8.65721C5.30645 7.85221 5.44207 7.41471 5.55582 7.12158C5.70457 6.73658 5.88395 6.46096 6.1727 6.17221C6.46145 5.88346 6.73707 5.70408 7.12207 5.55533C7.4152 5.44158 7.8527 5.30596 8.6577 5.27096C9.41895 5.23158 9.71644 5.22283 11.2564 5.22283ZM16.4146 6.59658C15.8677 6.59658 15.4214 7.03846 15.4214 7.58971C15.4214 8.13658 15.8677 8.58283 16.4146 8.58283C16.9614 8.58283 17.4077 8.13658 17.4077 7.58971C17.4077 7.04283 16.9614 6.59221 16.4146 6.59658ZM12.0002 7.75596C9.6552 7.75596 7.75207 9.65908 7.75207 12.0041C7.75207 14.3491 9.6552 16.2478 12.0002 16.2478C14.3452 16.2478 16.2439 14.3491 16.2439 12.0041C16.2439 9.65908 14.3452 7.75596 12.0002 7.75596ZM12.0002 9.24346C13.5227 9.24346 14.7564 10.4772 14.7564 11.9997C14.7564 13.5222 13.5227 14.756 12.0002 14.756C10.4777 14.756 9.24395 13.5222 9.24395 11.9997C9.24395 10.4772 10.4777 9.24346 12.0002 9.24346Z" fill="white"/>
</g>
<defs>
<radialGradient id="paint0_radial_743_3530" cx="0" cy="0" r="1" gradientUnits="userSpaceOnUse" gradientTransform="translate(6.75038 24.9212) rotate(-90) scale(22.1942 20.6478)">
<stop stop-color="#FFDD55"/>
<stop offset="0.1" stop-color="#FFDD55"/>
<stop offset="0.5" stop-color="#FF543E"/>
<stop offset="1" stop-color="#C837AB"/>
</radialGradient>
<radialGradient id="paint1_radial_743_3530" cx="0" cy="0" r="1" gradientUnits="userSpaceOnUse" gradientTransform="translate(-2.95228 2.41524) rotate(78.6799) scale(9.92061 40.9048)">
<stop stop-color="#3771C8"/>
<stop offset="0.128" stop-color="#3771C8"/>
<stop offset="1" stop-color="#6600FF" stop-opacity="0"/>
</radialGradient>
<clipPath id="clip0_743_3530">
<rect width="22.4" height="22.4" fill="white" transform="translate(0.799805 0.799805)"/>
</clipPath>
</defs>
</svg>
