<svg width="117" height="20" viewBox="0 0 117 20" fill="none" xmlns="http://www.w3.org/2000/svg">
<path d="M9.36807 0.557435C9.73489 -0.185811 10.7947 -0.185812 11.1615 0.557434L13.5588 5.4149C13.7045 5.71005 13.9861 5.91462 14.3118 5.96195L19.6723 6.74088C20.4925 6.86006 20.8201 7.86803 20.2265 8.44657L16.3476 12.2276C16.1119 12.4573 16.0044 12.7883 16.06 13.1127L16.9757 18.4516C17.1158 19.2685 16.2584 19.8915 15.5248 19.5058L10.7302 16.9851C10.4388 16.8319 10.0908 16.8319 9.79947 16.9851L5.00486 19.5058C4.27123 19.8915 3.4138 19.2685 3.55391 18.4516L4.4696 13.1127C4.52524 12.7883 4.41769 12.4573 4.182 12.2276L0.303081 8.44657C-0.290436 7.86804 0.0370734 6.86006 0.857294 6.74088L6.21783 5.96195C6.54354 5.91462 6.82511 5.71005 6.97077 5.4149L9.36807 0.557435ZM33.3681 0.557435C33.7349 -0.185811 34.7947 -0.185812 35.1615 0.557434L37.5588 5.4149C37.7045 5.71005 37.9861 5.91462 38.3118 5.96195L43.6723 6.74088C44.4925 6.86006 44.8201 7.86803 44.2265 8.44657L40.3476 12.2276C40.1119 12.4573 40.0044 12.7883 40.06 13.1127L40.9757 18.4516C41.1158 19.2685 40.2584 19.8915 39.5248 19.5058L34.7301 16.9851C34.4388 16.8319 34.0908 16.8319 33.7995 16.9851L29.0049 19.5058C28.2712 19.8915 27.4138 19.2685 27.5539 18.4516L28.4696 13.1127C28.5252 12.7883 28.4177 12.4573 28.182 12.2276L24.3031 8.44657C23.7096 7.86804 24.0371 6.86006 24.8573 6.74088L30.2178 5.96195C30.5435 5.91462 30.8251 5.71005 30.9708 5.4149L33.3681 0.557435ZM57.3681 0.557435C57.7349 -0.185811 58.7947 -0.185812 59.1615 0.557434L61.5588 5.4149C61.7045 5.71005 61.9861 5.91462 62.3118 5.96195L67.6723 6.74088C68.4925 6.86006 68.8201 7.86803 68.2265 8.44657L64.3476 12.2276C64.1119 12.4573 64.0044 12.7883 64.06 13.1127L64.9757 18.4516C65.1158 19.2685 64.2584 19.8915 63.5248 19.5058L58.7301 16.9851C58.4388 16.8319 58.0908 16.8319 57.7995 16.9851L53.0049 19.5058C52.2712 19.8915 51.4138 19.2685 51.5539 18.4516L52.4696 13.1127C52.5252 12.7883 52.4177 12.4573 52.182 12.2276L48.3031 8.44657C47.7096 7.86804 48.0371 6.86006 48.8573 6.74088L54.2178 5.96195C54.5435 5.91462 54.8251 5.71005 54.9708 5.4149L57.3681 0.557435ZM81.3681 0.557435C81.7349 -0.185811 82.7947 -0.185812 83.1615 0.557434L85.5588 5.4149C85.7045 5.71005 85.9861 5.91462 86.3118 5.96195L91.6723 6.74088C92.4925 6.86006 92.8201 7.86803 92.2265 8.44657L88.3476 12.2276C88.1119 12.4573 88.0044 12.7883 88.06 13.1127L88.9757 18.4516C89.1158 19.2685 88.2584 19.8915 87.5248 19.5058L82.7301 16.9851C82.4388 16.8319 82.0908 16.8319 81.7995 16.9851L77.0049 19.5058C76.2712 19.8915 75.4138 19.2685 75.5539 18.4516L76.4696 13.1127C76.5252 12.7883 76.4177 12.4573 76.182 12.2276L72.3031 8.44657C71.7096 7.86804 72.0371 6.86006 72.8573 6.74088L78.2178 5.96195C78.5435 5.91462 78.8251 5.71005 78.9708 5.4149L81.3681 0.557435ZM105.368 0.557435C105.735 -0.185811 106.795 -0.185812 107.162 0.557434L109.559 5.4149C109.705 5.71005 109.986 5.91462 110.312 5.96195L115.672 6.74088C116.493 6.86006 116.82 7.86803 116.227 8.44657L112.348 12.2276C112.112 12.4573 112.004 12.7883 112.06 13.1127L112.976 18.4516C113.116 19.2685 112.258 19.8915 111.525 19.5058L106.73 16.9851C106.439 16.8319 106.091 16.8319 105.799 16.9851L101.005 19.5058C100.271 19.8915 99.4138 19.2685 99.5539 18.4516L100.47 13.1127C100.525 12.7883 100.418 12.4573 100.182 12.2276L96.3031 8.44657C95.7096 7.86804 96.0371 6.86006 96.8573 6.74088L102.218 5.96195C102.544 5.91462 102.825 5.71005 102.971 5.4149L105.368 0.557435Z" fill="#FFC700"/>
<path d="M9.36807 0.557435C9.73489 -0.185811 10.7947 -0.185812 11.1615 0.557434L13.5588 5.4149C13.7045 5.71005 13.9861 5.91462 14.3118 5.96195L19.6723 6.74088C20.4925 6.86006 20.8201 7.86803 20.2265 8.44657L16.3476 12.2276C16.1119 12.4573 16.0044 12.7883 16.06 13.1127L16.9757 18.4516C17.1158 19.2685 16.2584 19.8915 15.5248 19.5058L10.7302 16.9851C10.4388 16.8319 10.0908 16.8319 9.79947 16.9851L5.00486 19.5058C4.27123 19.8915 3.4138 19.2685 3.55391 18.4516L4.4696 13.1127C4.52524 12.7883 4.41769 12.4573 4.182 12.2276L0.303081 8.44657C-0.290436 7.86804 0.0370734 6.86006 0.857294 6.74088L6.21783 5.96195C6.54354 5.91462 6.82511 5.71005 6.97077 5.4149L9.36807 0.557435ZM33.3681 0.557435C33.7349 -0.185811 34.7947 -0.185812 35.1615 0.557434L37.5588 5.4149C37.7045 5.71005 37.9861 5.91462 38.3118 5.96195L43.6723 6.74088C44.4925 6.86006 44.8201 7.86803 44.2265 8.44657L40.3476 12.2276C40.1119 12.4573 40.0044 12.7883 40.06 13.1127L40.9757 18.4516C41.1158 19.2685 40.2584 19.8915 39.5248 19.5058L34.7301 16.9851C34.4388 16.8319 34.0908 16.8319 33.7995 16.9851L29.0049 19.5058C28.2712 19.8915 27.4138 19.2685 27.5539 18.4516L28.4696 13.1127C28.5252 12.7883 28.4177 12.4573 28.182 12.2276L24.3031 8.44657C23.7096 7.86804 24.0371 6.86006 24.8573 6.74088L30.2178 5.96195C30.5435 5.91462 30.8251 5.71005 30.9708 5.4149L33.3681 0.557435ZM57.3681 0.557435C57.7349 -0.185811 58.7947 -0.185812 59.1615 0.557434L61.5588 5.4149C61.7045 5.71005 61.9861 5.91462 62.3118 5.96195L67.6723 6.74088C68.4925 6.86006 68.8201 7.86803 68.2265 8.44657L64.3476 12.2276C64.1119 12.4573 64.0044 12.7883 64.06 13.1127L64.9757 18.4516C65.1158 19.2685 64.2584 19.8915 63.5248 19.5058L58.7301 16.9851C58.4388 16.8319 58.0908 16.8319 57.7995 16.9851L53.0049 19.5058C52.2712 19.8915 51.4138 19.2685 51.5539 18.4516L52.4696 13.1127C52.5252 12.7883 52.4177 12.4573 52.182 12.2276L48.3031 8.44657C47.7096 7.86804 48.0371 6.86006 48.8573 6.74088L54.2178 5.96195C54.5435 5.91462 54.8251 5.71005 54.9708 5.4149L57.3681 0.557435ZM81.3681 0.557435C81.7349 -0.185811 82.7947 -0.185812 83.1615 0.557434L85.5588 5.4149C85.7045 5.71005 85.9861 5.91462 86.3118 5.96195L91.6723 6.74088C92.4925 6.86006 92.8201 7.86803 92.2265 8.44657L88.3476 12.2276C88.1119 12.4573 88.0044 12.7883 88.06 13.1127L88.9757 18.4516C89.1158 19.2685 88.2584 19.8915 87.5248 19.5058L82.7301 16.9851C82.4388 16.8319 82.0908 16.8319 81.7995 16.9851L77.0049 19.5058C76.2712 19.8915 75.4138 19.2685 75.5539 18.4516L76.4696 13.1127C76.5252 12.7883 76.4177 12.4573 76.182 12.2276L72.3031 8.44657C71.7096 7.86804 72.0371 6.86006 72.8573 6.74088L78.2178 5.96195C78.5435 5.91462 78.8251 5.71005 78.9708 5.4149L81.3681 0.557435ZM105.368 0.557435C105.735 -0.185811 106.795 -0.185812 107.162 0.557434L109.559 5.4149C109.705 5.71005 109.986 5.91462 110.312 5.96195L115.672 6.74088C116.493 6.86006 116.82 7.86803 116.227 8.44657L112.348 12.2276C112.112 12.4573 112.004 12.7883 112.06 13.1127L112.976 18.4516C113.116 19.2685 112.258 19.8915 111.525 19.5058L106.73 16.9851C106.439 16.8319 106.091 16.8319 105.799 16.9851L101.005 19.5058C100.271 19.8915 99.4138 19.2685 99.5539 18.4516L100.47 13.1127C100.525 12.7883 100.418 12.4573 100.182 12.2276L96.3031 8.44657C95.7096 7.86804 96.0371 6.86006 96.8573 6.74088L102.218 5.96195C102.544 5.91462 102.825 5.71005 102.971 5.4149L105.368 0.557435Z" fill="#FFC700"/>
<path d="M9.36807 0.557435C9.73489 -0.185811 10.7947 -0.185812 11.1615 0.557434L13.5588 5.4149C13.7045 5.71005 13.9861 5.91462 14.3118 5.96195L19.6723 6.74088C20.4925 6.86006 20.8201 7.86803 20.2265 8.44657L16.3476 12.2276C16.1119 12.4573 16.0044 12.7883 16.06 13.1127L16.9757 18.4516C17.1158 19.2685 16.2584 19.8915 15.5248 19.5058L10.7302 16.9851C10.4388 16.8319 10.0908 16.8319 9.79947 16.9851L5.00486 19.5058C4.27123 19.8915 3.4138 19.2685 3.55391 18.4516L4.4696 13.1127C4.52524 12.7883 4.41769 12.4573 4.182 12.2276L0.303081 8.44657C-0.290436 7.86804 0.0370734 6.86006 0.857294 6.74088L6.21783 5.96195C6.54354 5.91462 6.82511 5.71005 6.97077 5.4149L9.36807 0.557435ZM33.3681 0.557435C33.7349 -0.185811 34.7947 -0.185812 35.1615 0.557434L37.5588 5.4149C37.7045 5.71005 37.9861 5.91462 38.3118 5.96195L43.6723 6.74088C44.4925 6.86006 44.8201 7.86803 44.2265 8.44657L40.3476 12.2276C40.1119 12.4573 40.0044 12.7883 40.06 13.1127L40.9757 18.4516C41.1158 19.2685 40.2584 19.8915 39.5248 19.5058L34.7301 16.9851C34.4388 16.8319 34.0908 16.8319 33.7995 16.9851L29.0049 19.5058C28.2712 19.8915 27.4138 19.2685 27.5539 18.4516L28.4696 13.1127C28.5252 12.7883 28.4177 12.4573 28.182 12.2276L24.3031 8.44657C23.7096 7.86804 24.0371 6.86006 24.8573 6.74088L30.2178 5.96195C30.5435 5.91462 30.8251 5.71005 30.9708 5.4149L33.3681 0.557435ZM57.3681 0.557435C57.7349 -0.185811 58.7947 -0.185812 59.1615 0.557434L61.5588 5.4149C61.7045 5.71005 61.9861 5.91462 62.3118 5.96195L67.6723 6.74088C68.4925 6.86006 68.8201 7.86803 68.2265 8.44657L64.3476 12.2276C64.1119 12.4573 64.0044 12.7883 64.06 13.1127L64.9757 18.4516C65.1158 19.2685 64.2584 19.8915 63.5248 19.5058L58.7301 16.9851C58.4388 16.8319 58.0908 16.8319 57.7995 16.9851L53.0049 19.5058C52.2712 19.8915 51.4138 19.2685 51.5539 18.4516L52.4696 13.1127C52.5252 12.7883 52.4177 12.4573 52.182 12.2276L48.3031 8.44657C47.7096 7.86804 48.0371 6.86006 48.8573 6.74088L54.2178 5.96195C54.5435 5.91462 54.8251 5.71005 54.9708 5.4149L57.3681 0.557435ZM81.3681 0.557435C81.7349 -0.185811 82.7947 -0.185812 83.1615 0.557434L85.5588 5.4149C85.7045 5.71005 85.9861 5.91462 86.3118 5.96195L91.6723 6.74088C92.4925 6.86006 92.8201 7.86803 92.2265 8.44657L88.3476 12.2276C88.1119 12.4573 88.0044 12.7883 88.06 13.1127L88.9757 18.4516C89.1158 19.2685 88.2584 19.8915 87.5248 19.5058L82.7301 16.9851C82.4388 16.8319 82.0908 16.8319 81.7995 16.9851L77.0049 19.5058C76.2712 19.8915 75.4138 19.2685 75.5539 18.4516L76.4696 13.1127C76.5252 12.7883 76.4177 12.4573 76.182 12.2276L72.3031 8.44657C71.7096 7.86804 72.0371 6.86006 72.8573 6.74088L78.2178 5.96195C78.5435 5.91462 78.8251 5.71005 78.9708 5.4149L81.3681 0.557435ZM105.368 0.557435C105.735 -0.185811 106.795 -0.185812 107.162 0.557434L109.559 5.4149C109.705 5.71005 109.986 5.91462 110.312 5.96195L115.672 6.74088C116.493 6.86006 116.82 7.86803 116.227 8.44657L112.348 12.2276C112.112 12.4573 112.004 12.7883 112.06 13.1127L112.976 18.4516C113.116 19.2685 112.258 19.8915 111.525 19.5058L106.73 16.9851C106.439 16.8319 106.091 16.8319 105.799 16.9851L101.005 19.5058C100.271 19.8915 99.4138 19.2685 99.5539 18.4516L100.47 13.1127C100.525 12.7883 100.418 12.4573 100.182 12.2276L96.3031 8.44657C95.7096 7.86804 96.0371 6.86006 96.8573 6.74088L102.218 5.96195C102.544 5.91462 102.825 5.71005 102.971 5.4149L105.368 0.557435Z" fill="#FFC700"/>
<path d="M9.36807 0.557435C9.73489 -0.185811 10.7947 -0.185812 11.1615 0.557434L13.5588 5.4149C13.7045 5.71005 13.9861 5.91462 14.3118 5.96195L19.6723 6.74088C20.4925 6.86006 20.8201 7.86803 20.2265 8.44657L16.3476 12.2276C16.1119 12.4573 16.0044 12.7883 16.06 13.1127L16.9757 18.4516C17.1158 19.2685 16.2584 19.8915 15.5248 19.5058L10.7302 16.9851C10.4388 16.8319 10.0908 16.8319 9.79947 16.9851L5.00486 19.5058C4.27123 19.8915 3.4138 19.2685 3.55391 18.4516L4.4696 13.1127C4.52524 12.7883 4.41769 12.4573 4.182 12.2276L0.303081 8.44657C-0.290436 7.86804 0.0370734 6.86006 0.857294 6.74088L6.21783 5.96195C6.54354 5.91462 6.82511 5.71005 6.97077 5.4149L9.36807 0.557435ZM33.3681 0.557435C33.7349 -0.185811 34.7947 -0.185812 35.1615 0.557434L37.5588 5.4149C37.7045 5.71005 37.9861 5.91462 38.3118 5.96195L43.6723 6.74088C44.4925 6.86006 44.8201 7.86803 44.2265 8.44657L40.3476 12.2276C40.1119 12.4573 40.0044 12.7883 40.06 13.1127L40.9757 18.4516C41.1158 19.2685 40.2584 19.8915 39.5248 19.5058L34.7301 16.9851C34.4388 16.8319 34.0908 16.8319 33.7995 16.9851L29.0049 19.5058C28.2712 19.8915 27.4138 19.2685 27.5539 18.4516L28.4696 13.1127C28.5252 12.7883 28.4177 12.4573 28.182 12.2276L24.3031 8.44657C23.7096 7.86804 24.0371 6.86006 24.8573 6.74088L30.2178 5.96195C30.5435 5.91462 30.8251 5.71005 30.9708 5.4149L33.3681 0.557435ZM57.3681 0.557435C57.7349 -0.185811 58.7947 -0.185812 59.1615 0.557434L61.5588 5.4149C61.7045 5.71005 61.9861 5.91462 62.3118 5.96195L67.6723 6.74088C68.4925 6.86006 68.8201 7.86803 68.2265 8.44657L64.3476 12.2276C64.1119 12.4573 64.0044 12.7883 64.06 13.1127L64.9757 18.4516C65.1158 19.2685 64.2584 19.8915 63.5248 19.5058L58.7301 16.9851C58.4388 16.8319 58.0908 16.8319 57.7995 16.9851L53.0049 19.5058C52.2712 19.8915 51.4138 19.2685 51.5539 18.4516L52.4696 13.1127C52.5252 12.7883 52.4177 12.4573 52.182 12.2276L48.3031 8.44657C47.7096 7.86804 48.0371 6.86006 48.8573 6.74088L54.2178 5.96195C54.5435 5.91462 54.8251 5.71005 54.9708 5.4149L57.3681 0.557435ZM81.3681 0.557435C81.7349 -0.185811 82.7947 -0.185812 83.1615 0.557434L85.5588 5.4149C85.7045 5.71005 85.9861 5.91462 86.3118 5.96195L91.6723 6.74088C92.4925 6.86006 92.8201 7.86803 92.2265 8.44657L88.3476 12.2276C88.1119 12.4573 88.0044 12.7883 88.06 13.1127L88.9757 18.4516C89.1158 19.2685 88.2584 19.8915 87.5248 19.5058L82.7301 16.9851C82.4388 16.8319 82.0908 16.8319 81.7995 16.9851L77.0049 19.5058C76.2712 19.8915 75.4138 19.2685 75.5539 18.4516L76.4696 13.1127C76.5252 12.7883 76.4177 12.4573 76.182 12.2276L72.3031 8.44657C71.7096 7.86804 72.0371 6.86006 72.8573 6.74088L78.2178 5.96195C78.5435 5.91462 78.8251 5.71005 78.9708 5.4149L81.3681 0.557435ZM105.368 0.557435C105.735 -0.185811 106.795 -0.185812 107.162 0.557434L109.559 5.4149C109.705 5.71005 109.986 5.91462 110.312 5.96195L115.672 6.74088C116.493 6.86006 116.82 7.86803 116.227 8.44657L112.348 12.2276C112.112 12.4573 112.004 12.7883 112.06 13.1127L112.976 18.4516C113.116 19.2685 112.258 19.8915 111.525 19.5058L106.73 16.9851C106.439 16.8319 106.091 16.8319 105.799 16.9851L101.005 19.5058C100.271 19.8915 99.4138 19.2685 99.5539 18.4516L100.47 13.1127C100.525 12.7883 100.418 12.4573 100.182 12.2276L96.3031 8.44657C95.7096 7.86804 96.0371 6.86006 96.8573 6.74088L102.218 5.96195C102.544 5.91462 102.825 5.71005 102.971 5.4149L105.368 0.557435Z" fill="#FFC700"/>
<path d="M9.36807 0.557435C9.73489 -0.185811 10.7947 -0.185812 11.1615 0.557434L13.5588 5.4149C13.7045 5.71005 13.9861 5.91462 14.3118 5.96195L19.6723 6.74088C20.4925 6.86006 20.8201 7.86803 20.2265 8.44657L16.3476 12.2276C16.1119 12.4573 16.0044 12.7883 16.06 13.1127L16.9757 18.4516C17.1158 19.2685 16.2584 19.8915 15.5248 19.5058L10.7302 16.9851C10.4388 16.8319 10.0908 16.8319 9.79947 16.9851L5.00486 19.5058C4.27123 19.8915 3.4138 19.2685 3.55391 18.4516L4.4696 13.1127C4.52524 12.7883 4.41769 12.4573 4.182 12.2276L0.303081 8.44657C-0.290436 7.86804 0.0370734 6.86006 0.857294 6.74088L6.21783 5.96195C6.54354 5.91462 6.82511 5.71005 6.97077 5.4149L9.36807 0.557435ZM33.3681 0.557435C33.7349 -0.185811 34.7947 -0.185812 35.1615 0.557434L37.5588 5.4149C37.7045 5.71005 37.9861 5.91462 38.3118 5.96195L43.6723 6.74088C44.4925 6.86006 44.8201 7.86803 44.2265 8.44657L40.3476 12.2276C40.1119 12.4573 40.0044 12.7883 40.06 13.1127L40.9757 18.4516C41.1158 19.2685 40.2584 19.8915 39.5248 19.5058L34.7301 16.9851C34.4388 16.8319 34.0908 16.8319 33.7995 16.9851L29.0049 19.5058C28.2712 19.8915 27.4138 19.2685 27.5539 18.4516L28.4696 13.1127C28.5252 12.7883 28.4177 12.4573 28.182 12.2276L24.3031 8.44657C23.7096 7.86804 24.0371 6.86006 24.8573 6.74088L30.2178 5.96195C30.5435 5.91462 30.8251 5.71005 30.9708 5.4149L33.3681 0.557435ZM57.3681 0.557435C57.7349 -0.185811 58.7947 -0.185812 59.1615 0.557434L61.5588 5.4149C61.7045 5.71005 61.9861 5.91462 62.3118 5.96195L67.6723 6.74088C68.4925 6.86006 68.8201 7.86803 68.2265 8.44657L64.3476 12.2276C64.1119 12.4573 64.0044 12.7883 64.06 13.1127L64.9757 18.4516C65.1158 19.2685 64.2584 19.8915 63.5248 19.5058L58.7301 16.9851C58.4388 16.8319 58.0908 16.8319 57.7995 16.9851L53.0049 19.5058C52.2712 19.8915 51.4138 19.2685 51.5539 18.4516L52.4696 13.1127C52.5252 12.7883 52.4177 12.4573 52.182 12.2276L48.3031 8.44657C47.7096 7.86804 48.0371 6.86006 48.8573 6.74088L54.2178 5.96195C54.5435 5.91462 54.8251 5.71005 54.9708 5.4149L57.3681 0.557435ZM81.3681 0.557435C81.7349 -0.185811 82.7947 -0.185812 83.1615 0.557434L85.5588 5.4149C85.7045 5.71005 85.9861 5.91462 86.3118 5.96195L91.6723 6.74088C92.4925 6.86006 92.8201 7.86803 92.2265 8.44657L88.3476 12.2276C88.1119 12.4573 88.0044 12.7883 88.06 13.1127L88.9757 18.4516C89.1158 19.2685 88.2584 19.8915 87.5248 19.5058L82.7301 16.9851C82.4388 16.8319 82.0908 16.8319 81.7995 16.9851L77.0049 19.5058C76.2712 19.8915 75.4138 19.2685 75.5539 18.4516L76.4696 13.1127C76.5252 12.7883 76.4177 12.4573 76.182 12.2276L72.3031 8.44657C71.7096 7.86804 72.0371 6.86006 72.8573 6.74088L78.2178 5.96195C78.5435 5.91462 78.8251 5.71005 78.9708 5.4149L81.3681 0.557435ZM105.368 0.557435C105.735 -0.185811 106.795 -0.185812 107.162 0.557434L109.559 5.4149C109.705 5.71005 109.986 5.91462 110.312 5.96195L115.672 6.74088C116.493 6.86006 116.82 7.86803 116.227 8.44657L112.348 12.2276C112.112 12.4573 112.004 12.7883 112.06 13.1127L112.976 18.4516C113.116 19.2685 112.258 19.8915 111.525 19.5058L106.73 16.9851C106.439 16.8319 106.091 16.8319 105.799 16.9851L101.005 19.5058C100.271 19.8915 99.4138 19.2685 99.5539 18.4516L100.47 13.1127C100.525 12.7883 100.418 12.4573 100.182 12.2276L96.3031 8.44657C95.7096 7.86804 96.0371 6.86006 96.8573 6.74088L102.218 5.96195C102.544 5.91462 102.825 5.71005 102.971 5.4149L105.368 0.557435Z" fill="#FFC700"/>
</svg>
