<svg width="24" height="25" viewBox="0 0 24 25" fill="none" xmlns="http://www.w3.org/2000/svg">
<path d="M14.9998 22.4009L14.5838 23.0249C14.6968 23.1002 14.828 23.1434 14.9636 23.15C15.0992 23.1565 15.234 23.1262 15.3537 23.0621C15.4734 22.9981 15.5734 22.9027 15.6432 22.7863C15.713 22.6698 15.7498 22.5366 15.7498 22.4009H14.9998ZM11.9998 20.4009L12.4158 19.7769C12.2926 19.6948 12.1479 19.651 11.9998 19.651C11.8518 19.651 11.707 19.6948 11.5838 19.7769L11.9998 20.4009ZM8.99983 22.4009H8.24983C8.24984 22.5366 8.28668 22.6698 8.35645 22.7863C8.42621 22.9027 8.52626 22.9981 8.64594 23.0621C8.76562 23.1262 8.90045 23.1565 9.03603 23.15C9.17161 23.1434 9.30288 23.1002 9.41583 23.0249L8.99983 22.4009ZM15.4158 21.7769L12.4158 19.7769L11.5838 21.0249L14.5838 23.0249L15.4158 21.7769ZM11.5838 19.7769L8.58383 21.7769L9.41583 23.0249L12.4158 21.0249L11.5838 19.7769ZM12.9518 3.6769L12.9938 3.7269L14.1368 2.7549L14.0938 2.7049L12.9518 3.6769ZM15.3088 4.6859L15.3738 4.6799L15.2538 3.1849L15.1888 3.1909L15.3088 4.6859ZM16.7208 6.0259L16.7148 6.0919L18.2098 6.2119L18.2158 6.1469L16.7208 6.0259ZM17.6738 8.4059L17.7238 8.4489L18.6958 7.3069L18.6458 7.2639L17.6738 8.4059ZM17.7238 10.3529L17.6738 10.3949L18.6458 11.5379L18.6958 11.4949L17.7238 10.3529ZM16.7148 12.7099L16.7208 12.7749L18.2158 12.6549L18.2098 12.5899L16.7148 12.7099ZM15.3748 14.1219L15.3088 14.1159L15.1888 15.6109L15.2538 15.6169L15.3748 14.1219ZM12.9948 15.0749L12.9518 15.1249L14.0938 16.0969L14.1368 16.0469L12.9948 15.0749ZM11.0478 15.1249L11.0048 15.0749L9.86283 16.0469L9.90583 16.0969L11.0478 15.1249ZM8.69083 14.1159L8.62583 14.1209L8.74583 15.6169L8.81083 15.6119L8.69083 14.1159ZM7.27883 12.7759L7.28483 12.7099L5.78983 12.5899L5.78383 12.6549L7.27883 12.7759ZM6.32583 10.3959L6.27583 10.3529L5.30383 11.4949L5.35383 11.5379L6.32583 10.3959ZM6.27583 8.4489L6.32583 8.4059L5.35383 7.2639L5.30383 7.3069L6.27583 8.4489ZM7.28483 6.0919L7.27883 6.0269L5.78383 6.1469L5.78983 6.2119L7.28483 6.0919ZM8.62483 4.6799L8.69083 4.6859L8.81083 3.1909L8.74583 3.1849L8.62483 4.6799ZM11.0048 3.7269L11.0478 3.6769L9.90583 2.7049L9.86283 2.7549L11.0048 3.7269ZM8.69083 4.6859C9.12516 4.72073 9.56155 4.65185 9.96404 4.48495C10.3665 4.31804 10.7236 4.05788 11.0058 3.7259L9.86283 2.7549C9.73453 2.9057 9.57226 3.02386 9.38936 3.09966C9.20646 3.17546 9.00817 3.20673 8.81083 3.1909L8.69083 4.6859ZM7.27883 6.0269C7.26448 5.84646 7.28949 5.66404 7.35214 5.49421C7.41479 5.32438 7.51357 5.17018 7.64167 5.04228C7.76976 4.91438 7.9241 4.81582 8.09403 4.75343C8.26395 4.69103 8.4454 4.66629 8.62583 4.6809L8.74583 3.1859C8.34873 3.1539 7.94942 3.20856 7.57553 3.3461C7.20164 3.48364 6.8621 3.70077 6.5804 3.98247C6.2987 4.26417 6.08156 4.60372 5.94403 4.97761C5.80649 5.3515 5.75183 5.75081 5.78383 6.1479L7.27883 6.0269ZM6.32583 8.4059C6.65747 8.12368 6.91736 7.76673 7.08408 7.36443C7.25081 6.96213 7.31961 6.52599 7.28483 6.0919L5.78983 6.2119C5.82183 6.6119 5.65983 7.0039 5.35383 7.2639L6.32583 8.4059ZM6.27583 10.3529C6.13792 10.2356 6.02715 10.0896 5.95119 9.92527C5.87523 9.7609 5.83588 9.58198 5.83588 9.4009C5.83588 9.21983 5.87523 9.04091 5.95119 8.87653C6.02715 8.71216 6.13792 8.56625 6.27583 8.4489L5.30383 7.3069C5.00056 7.56507 4.75699 7.88602 4.58996 8.24757C4.42293 8.60912 4.33643 9.00264 4.33643 9.4009C4.33643 9.79917 4.42293 10.1927 4.58996 10.5542C4.75699 10.9158 5.00056 11.2367 5.30383 11.4949L6.27583 10.3529ZM7.28483 12.7099C7.31965 12.2756 7.25078 11.8392 7.08387 11.4367C6.91696 11.0342 6.6568 10.6771 6.32483 10.3949L5.35383 11.5379C5.65983 11.7979 5.82183 12.1899 5.78983 12.5899L7.28483 12.7099ZM8.62483 14.1219C8.4443 14.1364 8.26278 14.1115 8.09282 14.0489C7.92287 13.9863 7.76854 13.8876 7.64053 13.7595C7.51251 13.6314 7.41386 13.477 7.35141 13.307C7.28896 13.137 7.26419 12.9554 7.27883 12.7749L5.78383 12.6549C5.75183 13.052 5.80649 13.4513 5.94403 13.8252C6.08156 14.1991 6.2987 14.5386 6.5804 14.8203C6.8621 15.102 7.20164 15.3192 7.57553 15.4567C7.94942 15.5942 8.34873 15.6489 8.74583 15.6169L8.62483 14.1219ZM12.9518 15.1249C12.8345 15.2628 12.6886 15.3736 12.5242 15.4495C12.3598 15.5255 12.1809 15.5648 11.9998 15.5648C11.8187 15.5648 11.6398 15.5255 11.4755 15.4495C11.3111 15.3736 11.1652 15.2628 11.0478 15.1249L9.90583 16.0969C10.164 16.4002 10.4849 16.6437 10.8465 16.8108C11.208 16.9778 11.6016 17.0643 11.9998 17.0643C12.3981 17.0643 12.7916 16.9778 13.1532 16.8108C13.5147 16.6437 13.8357 16.4002 14.0938 16.0969L12.9518 15.1249ZM16.7208 12.7749C16.7353 12.9554 16.7104 13.137 16.6478 13.3069C16.5853 13.4769 16.4865 13.6312 16.3584 13.7592C16.2303 13.8872 16.0759 13.9859 15.9059 14.0483C15.7359 14.1108 15.5543 14.1355 15.3738 14.1209L15.2538 15.6169C15.6509 15.6489 16.0502 15.5942 16.4241 15.4567C16.798 15.3192 17.1376 15.102 17.4193 14.8203C17.701 14.5386 17.9181 14.1991 18.0556 13.8252C18.1932 13.4513 18.2478 13.052 18.2158 12.6549L16.7208 12.7749ZM17.6738 10.3949C17.342 10.6772 17.0821 11.0343 16.9153 11.4368C16.7486 11.8393 16.6799 12.2757 16.7148 12.7099L18.2098 12.5899C18.1778 12.1899 18.3398 11.7979 18.6458 11.5379L17.6738 10.3949ZM17.7238 8.4489C17.8617 8.56625 17.9725 8.71216 18.0485 8.87653C18.1244 9.04091 18.1638 9.21983 18.1638 9.4009C18.1638 9.58198 18.1244 9.7609 18.0485 9.92527C17.9725 10.0896 17.8617 10.2356 17.7238 10.3529L18.6958 11.4949C18.9991 11.2367 19.2427 10.9158 19.4097 10.5542C19.5767 10.1927 19.6632 9.79917 19.6632 9.4009C19.6632 9.00264 19.5767 8.60912 19.4097 8.24757C19.2427 7.88602 18.9991 7.56507 18.6958 7.3069L17.7238 8.4489ZM16.7148 6.0919C16.68 6.52624 16.7489 6.96263 16.9158 7.36512C17.0827 7.76761 17.3429 8.12468 17.6748 8.4069L18.6458 7.2639C18.495 7.13561 18.3769 6.97333 18.3011 6.79044C18.2253 6.60754 18.194 6.40925 18.2098 6.2119L16.7148 6.0919ZM15.3748 4.6799C15.5554 4.6654 15.7369 4.6903 15.9068 4.75288C16.0768 4.81546 16.2311 4.91422 16.3591 5.04233C16.4871 5.17045 16.5858 5.32484 16.6482 5.49484C16.7107 5.66485 16.7355 5.84539 16.7208 6.0259L18.2158 6.1469C18.2478 5.74981 18.1932 5.3505 18.0556 4.97661C17.9181 4.60272 17.701 4.26317 17.4193 3.98147C17.1376 3.69977 16.798 3.48264 16.4241 3.3451C16.0502 3.20756 15.6509 3.1529 15.2538 3.1849L15.3748 4.6799ZM12.9938 3.7269C13.276 4.05855 13.634 4.31844 14.0363 4.48516C14.4386 4.65189 14.8747 4.72069 15.3088 4.6859L15.1888 3.1909C14.9915 3.20673 14.7932 3.17546 14.6103 3.09966C14.4274 3.02386 14.2651 2.9057 14.1368 2.7549L12.9938 3.7269ZM14.0948 2.7049C13.8367 2.4013 13.5156 2.15743 13.1539 1.99019C12.7921 1.82295 12.3984 1.73633 11.9998 1.73633C11.6013 1.73633 11.2075 1.82295 10.8458 1.99019C10.4841 2.15743 10.163 2.4013 9.90483 2.7049L11.0478 3.6769C11.1652 3.53899 11.3111 3.42823 11.4755 3.35227C11.6398 3.2763 11.8187 3.23696 11.9998 3.23696C12.1809 3.23696 12.3598 3.2763 12.5242 3.35227C12.6886 3.42823 12.8345 3.53899 12.9518 3.6769L14.0948 2.7049ZM11.0048 15.0749C10.76 14.7872 10.4586 14.5531 10.1193 14.3871C9.78002 14.221 9.41018 14.1267 9.03283 14.1099L8.96683 15.6089C9.31083 15.6239 9.63683 15.7809 9.86283 16.0469L11.0048 15.0749ZM9.03283 14.1099C8.9188 14.1054 8.80462 14.1074 8.69083 14.1159L8.81083 15.6109C8.86283 15.6069 8.91483 15.6062 8.96683 15.6089L9.03283 14.1099ZM9.74983 22.4009V14.8589H8.24983V22.4009H9.74983ZM15.3098 14.1159C15.1957 14.1074 15.0812 14.1054 14.9668 14.1099L15.0328 15.6089C15.0848 15.6062 15.1368 15.6069 15.1888 15.6109L15.3098 14.1159ZM14.9668 14.1099C14.5893 14.1266 14.2193 14.2208 13.8798 14.3869C13.5403 14.5529 13.2397 14.7871 12.9948 15.0749L14.1368 16.0469C14.2481 15.9163 14.3851 15.81 14.5393 15.7347C14.6934 15.6593 14.8614 15.6165 15.0328 15.6089L14.9668 14.1099ZM14.2498 14.8599V22.4009H15.7498V14.8589L14.2498 14.8599Z" fill="#FF9D00"/>
<path d="M14 8.40039L11 11.4004L10 10.4004" stroke="#FF9D00" stroke-width="1.5" stroke-linecap="round" stroke-linejoin="round"/>
</svg>
