<svg width="22" height="22" viewBox="0 0 22 22" fill="none" xmlns="http://www.w3.org/2000/svg">
<path d="M6.5249 6.3C6.5249 6.12098 6.59602 5.94929 6.72261 5.8227C6.84919 5.69612 7.02088 5.625 7.1999 5.625H14.3999C14.5789 5.625 14.7506 5.69612 14.8772 5.8227C15.0038 5.94929 15.0749 6.12098 15.0749 6.3C15.0749 6.47902 15.0038 6.65071 14.8772 6.7773C14.7506 6.90388 14.5789 6.975 14.3999 6.975H7.1999C7.02088 6.975 6.84919 6.90388 6.72261 6.7773C6.59602 6.65071 6.5249 6.47902 6.5249 6.3ZM7.1999 8.775C7.02088 8.775 6.84919 8.84612 6.72261 8.9727C6.59602 9.09929 6.5249 9.27098 6.5249 9.45C6.5249 9.62902 6.59602 9.80071 6.72261 9.9273C6.84919 10.0539 7.02088 10.125 7.1999 10.125H11.6999C11.8789 10.125 12.0506 10.0539 12.1772 9.9273C12.3038 9.80071 12.3749 9.62902 12.3749 9.45C12.3749 9.27098 12.3038 9.09929 12.1772 8.9727C12.0506 8.84612 11.8789 8.775 11.6999 8.775H7.1999Z" fill="#FF9D00"/>
<path fill-rule="evenodd" clip-rule="evenodd" d="M8.9503 1.125C7.72 1.125 6.7273 1.125 5.947 1.2303C5.137 1.3383 4.4548 1.5723 3.913 2.1132C3.3712 2.655 3.139 3.3372 3.0301 4.1472C2.9248 4.9275 2.9248 5.9202 2.9248 7.1505V14.4495C2.9248 15.6798 2.9248 16.6725 3.0301 17.4528C3.1381 18.2628 3.3721 18.945 3.913 19.4868C4.4548 20.0286 5.137 20.2608 5.947 20.3706C6.7273 20.475 7.72 20.475 8.9503 20.475H12.6493C13.8796 20.475 14.8723 20.475 15.6526 20.3706C16.4626 20.2608 17.1448 20.0286 17.6866 19.4868C18.2284 18.945 18.4606 18.2628 18.5704 17.4528C18.6748 16.6725 18.6748 15.6798 18.6748 14.4495V7.1505C18.6748 5.9202 18.6748 4.9275 18.5704 4.1472C18.4606 3.3372 18.2284 2.655 17.6866 2.1132C17.1448 1.5714 16.4626 1.3392 15.6526 1.2303C14.8723 1.125 13.8796 1.125 12.6493 1.125H8.9503ZM4.8688 3.0681C5.1181 2.8188 5.4673 2.6568 6.1288 2.5677C6.8074 2.4768 7.70921 2.475 9.0007 2.475H12.6007C13.8922 2.475 14.7931 2.4768 15.4735 2.5677C16.1341 2.6568 16.4833 2.8197 16.7326 3.0681C16.9819 3.3174 17.1439 3.6666 17.233 4.3281C17.3239 5.0067 17.3257 5.9085 17.3257 7.2V13.725H7.0036C6.2674 13.725 5.7652 13.725 5.3341 13.8402C4.95533 13.9426 4.597 14.1095 4.2748 14.3334V7.2C4.2748 5.9085 4.2766 5.0067 4.3675 4.3272C4.4566 3.6666 4.6204 3.3174 4.8688 3.0681ZM4.2991 16.4241C4.3126 16.7427 4.3342 17.0226 4.3675 17.2728C4.4566 17.9334 4.6195 18.2826 4.8679 18.5319C5.1172 18.7812 5.4664 18.9432 6.1279 19.0323C6.8065 19.1232 7.7083 19.125 8.9998 19.125H12.5998C13.8913 19.125 14.7922 19.1232 15.4726 19.0323C16.1332 18.9432 16.4824 18.7803 16.7317 18.5319C16.981 18.2826 17.143 17.9334 17.2321 17.2719C17.3068 16.7184 17.3212 16.0164 17.3239 15.075H7.108C6.2278 15.075 5.92 15.0804 5.6833 15.1443C5.3661 15.2294 5.07434 15.3903 4.83319 15.6133C4.59205 15.8363 4.40875 16.1145 4.2991 16.4241Z" fill="#FF9D00"/>
</svg>
