<svg width="24" height="25" viewBox="0 0 24 25" fill="none" xmlns="http://www.w3.org/2000/svg">
<path fill-rule="evenodd" clip-rule="evenodd" d="M12 22.4004C6.477 22.4004 2 17.9234 2 12.4004C2 6.87739 6.477 2.40039 12 2.40039C17.523 2.40039 22 6.87739 22 12.4004C22 17.9234 17.523 22.4004 12 22.4004ZM12 21.2004C14.3339 21.2004 16.5722 20.2733 18.2225 18.6229C19.8729 16.9726 20.8 14.7343 20.8 12.4004C20.8 10.0665 19.8729 7.82817 18.2225 6.17785C16.5722 4.52753 14.3339 3.60039 12 3.60039C9.66609 3.60039 7.42778 4.52753 5.77746 6.17785C4.12714 7.82817 3.2 10.0665 3.2 12.4004C3.2 14.7343 4.12714 16.9726 5.77746 18.6229C7.42778 20.2733 9.66609 21.2004 12 21.2004ZM9 10.1074C9.077 8.60039 10.081 7.40039 12.042 7.40039C13.8 7.40039 15 8.48839 15 9.92639C15 11.0214 14.435 11.7964 13.542 12.3334C12.656 12.8564 12.405 13.2474 12.405 13.9794V14.4334H11.184V13.7914C11.177 12.8704 11.624 12.2414 12.579 11.6704C13.389 11.1744 13.702 10.7354 13.702 9.98839C13.702 9.12339 13.032 8.48839 11.993 8.48839C10.94 8.48839 10.27 9.10939 10.193 10.1074H9ZM11.798 17.6144C11.6932 17.6157 11.5892 17.5961 11.492 17.5566C11.3949 17.5172 11.3067 17.4587 11.2325 17.3846C11.1583 17.3105 11.0997 17.2223 11.0601 17.1253C11.0206 17.0282 11.0008 16.9242 11.002 16.8194C11.002 16.3654 11.352 16.0234 11.798 16.0234C12.251 16.0234 12.593 16.3654 12.593 16.8194C12.595 16.9244 12.5759 17.0286 12.5366 17.126C12.4974 17.2234 12.4389 17.3118 12.3647 17.3861C12.2905 17.4603 12.202 17.5188 12.1046 17.558C12.0073 17.5973 11.903 17.6164 11.798 17.6144Z" fill="#FF9D00"/>
</svg>
