<svg width="22" height="23" viewBox="0 0 22 23" fill="none" xmlns="http://www.w3.org/2000/svg">
<path d="M5.7862 2.97179C5.89967 2.83636 5.95551 2.66185 5.94175 2.48571C5.92799 2.30956 5.84572 2.14584 5.71259 2.02968C5.57947 1.91352 5.40611 1.85419 5.22972 1.86441C5.05334 1.87464 4.888 1.95362 4.7692 2.08439L3.6064 3.41639C2.94704 4.172 2.57431 5.13536 2.5534 6.13799L2.5021 8.58509C2.50027 8.67373 2.51591 8.76186 2.54814 8.84446C2.58037 8.92706 2.62855 9.0025 2.68994 9.06647C2.75132 9.13045 2.8247 9.1817 2.9059 9.21732C2.98709 9.25293 3.0745 9.27221 3.16315 9.27404C3.25179 9.27587 3.33992 9.26022 3.42252 9.22799C3.50512 9.19577 3.58056 9.14758 3.64453 9.0862C3.70851 9.02481 3.75976 8.95143 3.79538 8.87024C3.83099 8.78904 3.85027 8.70163 3.8521 8.61299L3.9025 6.16679C3.91694 5.48074 4.17211 4.82161 4.6234 4.30469L5.7862 2.97179Z" fill="#FF9D00"/>
<path fill-rule="evenodd" clip-rule="evenodd" d="M5.61325 7.73156C5.6737 6.76868 6.09882 5.86503 6.80209 5.20458C7.50535 4.54412 8.43388 4.1765 9.39865 4.17656H9.89996V3.50156C9.89996 3.26287 9.99478 3.03395 10.1636 2.86517C10.3323 2.69638 10.5613 2.60156 10.8 2.60156C11.0387 2.60156 11.2676 2.69638 11.4364 2.86517C11.6051 3.03395 11.7 3.26287 11.7 3.50156V4.17656H12.2013C13.166 4.1765 14.0946 4.54412 14.7978 5.20458C15.5011 5.86503 15.9262 6.76868 15.9867 7.73156L16.1856 10.9122C16.2624 12.1247 16.6695 13.293 17.3628 14.2908C17.5062 14.4969 17.5938 14.7367 17.6171 14.9867C17.6405 15.2368 17.5987 15.4886 17.4959 15.7178C17.393 15.9469 17.2326 16.1455 17.0303 16.2943C16.828 16.4431 16.5906 16.537 16.3413 16.5669L13.275 16.9341V17.9016C13.275 18.558 13.0142 19.1875 12.55 19.6517C12.0859 20.1158 11.4564 20.3766 10.8 20.3766C10.1435 20.3766 9.51402 20.1158 9.04987 19.6517C8.58571 19.1875 8.32495 18.558 8.32495 17.9016V16.9341L5.25865 16.566C5.00944 16.536 4.77221 16.4421 4.57002 16.2934C4.36782 16.1446 4.20753 15.9461 4.10472 15.7171C4.00191 15.4881 3.96008 15.2365 3.98328 14.9865C4.00649 14.7366 4.09395 14.4969 4.23715 14.2908C4.93037 13.293 5.33746 12.1247 5.41435 10.9122L5.61325 7.73156ZM9.39865 5.52656C8.77727 5.52649 8.17922 5.76324 7.72626 6.18861C7.27329 6.61398 6.99948 7.196 6.96056 7.81616L6.76255 10.9968C6.67002 12.4554 6.18013 13.861 5.34595 15.0612C5.33558 15.0761 5.32923 15.0934 5.32754 15.1115C5.32584 15.1296 5.32886 15.1478 5.33628 15.1644C5.34371 15.181 5.3553 15.1953 5.36993 15.2061C5.38456 15.2169 5.40172 15.2237 5.41975 15.2259L8.78305 15.63C10.1232 15.7902 11.4768 15.7902 12.8169 15.63L16.1802 15.2259C16.1982 15.2237 16.2154 15.2169 16.23 15.2061C16.2446 15.1953 16.2562 15.181 16.2636 15.1644C16.2711 15.1478 16.2741 15.1296 16.2724 15.1115C16.2707 15.0934 16.2643 15.0761 16.254 15.0612C15.4201 13.8609 14.9305 12.4553 14.8383 10.9968L14.6394 7.81616C14.6004 7.196 14.3266 6.61398 13.8737 6.18861C13.4207 5.76324 12.8226 5.52649 12.2013 5.52656H9.39865ZM10.8 19.0266C10.179 19.0266 9.67496 18.5226 9.67496 17.9016V17.2266H11.925V17.9016C11.925 18.5226 11.421 19.0266 10.8 19.0266Z" fill="#FF9D00"/>
<path d="M15.8786 2.01983C15.7437 2.13752 15.6612 2.30395 15.649 2.48251C15.6369 2.66107 15.6961 2.83715 15.8138 2.97203L16.9766 4.30403C17.4277 4.82131 17.6826 5.48078 17.6966 6.16703L17.7479 8.61233C17.7516 8.79135 17.8262 8.96157 17.9554 9.08554C18.0846 9.20951 18.2578 9.27708 18.4368 9.27338C18.6158 9.26968 18.7861 9.19501 18.91 9.06581C19.034 8.93661 19.1016 8.76345 19.0979 8.58443L19.0466 6.13823C19.0257 5.1356 18.6529 4.17224 17.9936 3.41663L16.8308 2.08463C16.7131 1.94979 16.5466 1.86723 16.3681 1.85507C16.1895 1.84292 16.0134 1.90218 15.8786 2.01983Z" fill="#FF9D00"/>
</svg>
