<svg width="22" height="22" viewBox="0 0 22 22" fill="none" xmlns="http://www.w3.org/2000/svg">
<path d="M2.7002 3.43844C2.7002 3.29522 2.75709 3.15787 2.85836 3.0566C2.95963 2.95533 3.09698 2.89844 3.2402 2.89844H18.3602C18.5034 2.89844 18.6408 2.95533 18.742 3.0566C18.8433 3.15787 18.9002 3.29522 18.9002 3.43844V15.8584C18.9002 15.9294 18.8862 15.9996 18.8591 16.0651C18.832 16.1306 18.7922 16.1901 18.742 16.2403C18.6919 16.2904 18.6324 16.3302 18.5668 16.3573C18.5013 16.3845 18.4311 16.3984 18.3602 16.3984H14.6342C14.5603 16.3983 14.4873 16.4134 14.4195 16.4426C14.3517 16.4719 14.2906 16.5147 14.24 16.5685L11.1935 19.8058C11.143 19.8595 11.0821 19.9023 11.0144 19.9315C10.9468 19.9607 10.8739 19.9758 10.8002 19.9758C10.7265 19.9758 10.6536 19.9607 10.586 19.9315C10.5183 19.9023 10.4574 19.8595 10.4069 19.8058L7.3604 16.5685C7.30981 16.5147 7.24873 16.4719 7.18093 16.4426C7.11312 16.4134 7.04004 16.3983 6.96619 16.3984H3.2402C3.09698 16.3984 2.95963 16.3415 2.85836 16.2403C2.75709 16.139 2.7002 16.0017 2.7002 15.8584V3.43844Z" stroke="#FF9D00" stroke-width="1.35"/>
<path d="M10.8002 6.5L12.0827 8.8175L14.4002 10.1L12.0827 11.3825L10.8002 13.7L9.5177 11.3825L7.2002 10.1L9.5177 8.8175L10.8002 6.5Z" stroke="#FF9D00" stroke-width="1.35" stroke-linecap="round" stroke-linejoin="round"/>
</svg>
