<svg width="22" height="22" viewBox="0 0 22 22" fill="none" xmlns="http://www.w3.org/2000/svg">
<path d="M9.85811 10.4137C9.02743 10.4137 8.2154 10.1673 7.52471 9.70584C6.83403 9.24434 6.2957 8.58839 5.97782 7.82094C5.65993 7.05349 5.57675 6.20901 5.73881 5.39429C5.90087 4.57957 6.30088 3.83121 6.88826 3.24383C7.47564 2.65644 8.22401 2.25643 9.03873 2.09438C9.85345 1.93232 10.6979 2.01549 11.4654 2.33338C12.2328 2.65127 12.8888 3.18959 13.3503 3.88028C13.8118 4.57096 14.0581 5.38299 14.0581 6.21367C14.0581 7.32758 13.6156 8.39587 12.828 9.18352C12.0403 9.97117 10.972 10.4137 9.85811 10.4137ZM9.85811 3.26167C9.26477 3.26167 8.68475 3.43762 8.1914 3.76726C7.69805 4.09691 7.31353 4.56544 7.08647 5.11362C6.85941 5.6618 6.8 6.265 6.91575 6.84694C7.03151 7.42889 7.31723 7.96344 7.73679 8.38299C8.15635 8.80255 8.6909 9.08827 9.27284 9.20403C9.85478 9.31978 10.458 9.26037 11.0062 9.03331C11.5543 8.80625 12.0229 8.42173 12.3525 7.92838C12.6822 7.43504 12.8581 6.85502 12.8581 6.26167C12.8581 5.86771 12.7805 5.4776 12.6297 5.11362C12.479 4.74965 12.258 4.41893 11.9794 4.14035C11.7009 3.86178 11.3701 3.6408 11.0062 3.49004C10.6422 3.33927 10.2521 3.26167 9.85811 3.26167ZM13.2001 11.1397C9.95319 10.4086 6.55621 10.7605 3.52811 12.1417C3.11165 12.3406 2.76027 12.6538 2.51489 13.0447C2.26951 13.4356 2.14023 13.8881 2.14211 14.3497V17.9197C2.14211 17.9985 2.15763 18.0765 2.18778 18.1493C2.21794 18.2221 2.26213 18.2882 2.31785 18.3439C2.37356 18.3997 2.4397 18.4438 2.5125 18.474C2.5853 18.5042 2.66332 18.5197 2.74211 18.5197C2.8209 18.5197 2.89892 18.5042 2.97172 18.474C3.04452 18.4438 3.11066 18.3997 3.16637 18.3439C3.22209 18.2882 3.26628 18.2221 3.29644 18.1493C3.32659 18.0765 3.34211 17.9985 3.34211 17.9197V14.3497C3.33689 14.1161 3.39996 13.8861 3.5236 13.6878C3.64723 13.4896 3.82605 13.3317 4.03811 13.2337C5.86221 12.3912 7.84888 11.9591 9.85811 11.9677C10.9839 11.9664 12.1058 12.0993 13.2001 12.3637V11.1397ZM13.2841 16.8457H16.9681V17.6857H13.2841V16.8457Z" fill="#FF9D00"/>
<path d="M19.9016 13.2828H16.7996V14.4828H19.3016V19.5048H10.7996V14.4828H14.5796V14.7348C14.5796 14.8939 14.6428 15.0465 14.7553 15.159C14.8679 15.2716 15.0205 15.3348 15.1796 15.3348C15.3387 15.3348 15.4914 15.2716 15.6039 15.159C15.7164 15.0465 15.7796 14.8939 15.7796 14.7348V12.4008C15.7796 12.2417 15.7164 12.089 15.6039 11.9765C15.4914 11.864 15.3387 11.8008 15.1796 11.8008C15.0205 11.8008 14.8679 11.864 14.7553 11.9765C14.6428 12.089 14.5796 12.2417 14.5796 12.4008V13.2828H10.1996C10.0405 13.2828 9.88787 13.346 9.77534 13.4585C9.66282 13.571 9.59961 13.7237 9.59961 13.8828V20.1048C9.59961 20.2639 9.66282 20.4165 9.77534 20.529C9.88787 20.6416 10.0405 20.7048 10.1996 20.7048H19.9016C20.0607 20.7048 20.2134 20.6416 20.3259 20.529C20.4384 20.4165 20.5016 20.2639 20.5016 20.1048V13.8828C20.5016 13.7237 20.4384 13.571 20.3259 13.4585C20.2134 13.346 20.0607 13.2828 19.9016 13.2828Z" fill="#FF9D00"/>
</svg>
