<svg width="85" height="105" viewBox="0 0 85 105" fill="none" xmlns="http://www.w3.org/2000/svg">
<path d="M70.1423 69.6328H28.1422C24.8873 69.6328 23.2599 69.6328 21.9246 70.0776C18.3011 71.2849 15.4709 74.8044 14.5 79.3096" stroke="#333333" stroke-width="6.29214"/>
<path d="M28.5 30.4639H56.5" stroke="#333333" stroke-width="6.29214" stroke-linecap="round"/>
<path d="M28.5 45.6963H46" stroke="#333333" stroke-width="6.29214" stroke-linecap="round"/>
<path d="M46 69.6328V84.9995C46 86.1989 46 86.7986 45.6678 87.0411C45.336 87.2835 44.8821 87.0154 43.9738 86.4788L39.6261 83.911C39.3188 83.7296 39.1652 83.6386 39 83.6386C38.8348 83.6386 38.6812 83.7296 38.3739 83.911L34.0261 86.4788C33.118 87.0154 32.664 87.2835 32.332 87.0411C32 86.7986 32 86.1989 32 84.9995V71.5912" stroke="#333333" stroke-width="6.29214" stroke-linecap="round"/>
<path d="M35.5 95.7453C25.6005 95.7453 20.6508 95.7453 17.5754 91.9211C14.5 88.097 14.5 81.9423 14.5 69.6329V34.8165C14.5 22.507 14.5 16.3522 17.5754 12.5282C20.6508 8.7041 25.6005 8.7041 35.5 8.7041H49.5C59.3994 8.7041 64.3491 8.7041 67.4245 12.5282C70.5 16.3522 70.5 22.507 70.5 34.8165M49.5 95.7453C59.3994 95.7453 64.3491 95.7453 67.4245 91.9211C70.5 88.097 70.5 81.9423 70.5 69.6329V52.2247" stroke="#333333" stroke-width="6.29214" stroke-linecap="round"/>
</svg>
