<svg width="121" height="120" viewBox="0 0 121 120" fill="none" xmlns="http://www.w3.org/2000/svg">
<g clip-path="url(#clip0_726_4050)">
<circle cx="60" cy="58.7754" r="60" fill="#E6E8FF"/>
<path d="M82.2744 69.3726C80.7309 67.704 78.8692 66.8119 76.8961 66.8119C74.9389 66.8119 73.0612 67.6875 71.4541 69.3561L66.4259 74.5599C66.0121 74.3287 65.5984 74.1139 65.2006 73.8991C64.6278 73.6018 64.0868 73.3209 63.6253 73.0236C58.9153 69.9177 54.6349 65.8703 50.5296 60.6333C48.5406 58.0231 47.204 55.8259 46.2333 53.5957C47.5381 52.3567 48.7474 51.0681 49.9249 49.8291C50.3705 49.3665 50.816 48.8874 51.2616 48.4249C54.6031 44.9556 54.6031 40.4621 51.2616 36.9928L46.9175 32.4828C46.4243 31.9707 45.9151 31.442 45.4377 30.9134C44.483 29.8891 43.4805 28.8318 42.4462 27.8406C40.9027 26.2546 39.0569 25.4121 37.1156 25.4121C35.1744 25.4121 33.2967 26.2546 31.7055 27.8406C31.6896 27.8571 31.6896 27.8571 31.6737 27.8736L26.2635 33.5401C24.2268 35.6547 23.0652 38.2318 22.8106 41.222C22.4287 46.0459 23.7971 50.5395 24.8474 53.4801C27.4251 60.6994 31.2759 67.3901 37.0202 74.5599C43.9897 83.2001 52.3754 90.0229 61.9545 94.8303C65.6143 96.631 70.4994 98.7622 75.9572 99.1256C76.2914 99.1421 76.6415 99.1586 76.9597 99.1586C80.6354 99.1586 83.7224 97.7875 86.141 95.0616C86.1569 95.0286 86.1888 95.0121 86.2047 94.979C87.0321 93.9382 87.9868 92.9966 88.9893 91.9888C89.6735 91.3115 90.3737 90.6011 91.0579 89.8577C92.6332 88.1561 93.4606 86.1737 93.4606 84.1417C93.4606 82.0932 92.6173 80.1273 91.0102 78.4752L82.2744 69.3726ZM87.9709 86.7684C87.955 86.7684 87.955 86.785 87.9709 86.7684C87.3504 87.4623 86.7139 88.0901 86.0296 88.7839C84.9954 89.8082 83.9452 90.882 82.9586 92.088C81.3515 93.8722 79.4579 94.7147 76.9756 94.7147C76.7369 94.7147 76.4823 94.7147 76.2437 94.6982C71.5177 94.3843 67.126 92.4679 63.8322 90.8324C54.8259 86.3059 46.9175 79.8795 40.3458 71.735C34.9198 64.9451 31.2918 58.6674 28.889 51.9272C27.4092 47.8136 26.8682 44.6087 27.1069 41.5855C27.266 39.6526 27.982 38.0501 29.3028 36.6789L34.7288 31.0455C35.5085 30.2856 36.3359 29.8726 37.1475 29.8726C38.1499 29.8726 38.9614 30.5004 39.4706 31.029C39.4865 31.0455 39.5025 31.062 39.5184 31.0786C40.489 32.0202 41.4119 32.9949 42.3826 34.0357C42.8758 34.5643 43.385 35.093 43.8942 35.6382L48.2382 40.1482C49.9249 41.8994 49.9249 43.5183 48.2382 45.2695C47.7768 45.7486 47.3312 46.2277 46.8698 46.6902C45.5332 48.111 44.2602 49.4326 42.8758 50.7212C42.844 50.7542 42.8122 50.7707 42.7963 50.8038C41.4278 52.2245 41.6824 53.6122 41.9688 54.5539C41.9848 54.6034 42.0007 54.653 42.0166 54.7026C43.1463 57.5441 44.7376 60.2203 47.1562 63.4088L47.1721 63.4253C51.5639 69.0422 56.1943 73.42 61.3021 76.7737C61.9545 77.2032 62.6228 77.5501 63.2593 77.8805C63.8322 78.1779 64.3732 78.4587 64.8346 78.7561C64.8983 78.7891 64.9619 78.8387 65.0256 78.8717C65.5666 79.1526 66.0758 79.2847 66.6009 79.2847C67.9216 79.2847 68.749 78.4257 69.0195 78.1448L74.4615 72.4949C75.0025 71.9332 75.8618 71.2559 76.8642 71.2559C77.8508 71.2559 78.6623 71.9002 79.1556 72.4619C79.1715 72.4784 79.1715 72.4784 79.1874 72.4949L87.955 81.5976C89.594 83.2827 89.594 85.0173 87.9709 86.7684Z" fill="black"/>
<path d="M63.4352 39.5043C67.6042 40.2312 71.3913 42.2797 74.4146 45.4186C77.4379 48.5574 79.3951 52.4893 80.1111 56.8176C80.2862 57.9079 81.1932 58.6679 82.2275 58.6679C82.3548 58.6679 82.4662 58.6513 82.5934 58.6348C83.7709 58.4366 84.5506 57.2802 84.3597 56.0577C83.5004 50.8207 81.1136 46.0464 77.4697 42.2632C73.8258 38.4801 69.2272 36.002 64.1831 35.1099C63.0056 34.9117 61.9076 35.7212 61.7008 36.9272C61.4939 38.1331 62.2577 39.3061 63.4352 39.5043Z" fill="black"/>
<path d="M97.9951 55.4131C96.579 46.7895 92.6646 38.9424 86.6498 32.6977C80.635 26.4531 73.0767 22.3891 64.7705 20.9188C63.6089 20.704 62.511 21.53 62.3041 22.736C62.1132 23.9585 62.8929 25.0984 64.0704 25.3132C71.4855 26.6183 78.2481 30.2692 83.6264 35.8366C89.0048 41.4204 92.5054 48.4416 93.7625 56.14C93.9375 57.2304 94.8445 57.9903 95.8788 57.9903C96.0061 57.9903 96.1175 57.9738 96.2448 57.9572C97.4064 57.7755 98.202 56.6191 97.9951 55.4131Z" fill="black"/>
</g>
<defs>
<clipPath id="clip0_726_4050">
<rect width="120" height="120" fill="white" transform="translate(0.5)"/>
</clipPath>
</defs>
</svg>
