<svg width="24" height="24" viewBox="0 0 24 24" fill="none" xmlns="http://www.w3.org/2000/svg">
<path d="M19.8857 19.886H16.5667V14.6882C16.5667 13.4488 16.5446 11.8532 14.8405 11.8532C13.1118 11.8532 12.8474 13.2037 12.8474 14.598V19.8857H9.52837V9.19695H12.7146V10.6577H12.7592C13.4089 9.54681 14.6169 8.88334 15.9029 8.93108C19.2668 8.93108 19.887 11.1438 19.887 14.0224L19.8857 19.886ZM5.78346 7.73587C4.71973 7.73606 3.85726 6.87388 3.85707 5.81013C3.85688 4.74638 4.71904 3.88389 5.78277 3.8837C6.84649 3.88351 7.70897 4.74569 7.70916 5.80944C7.70925 6.32027 7.50642 6.81021 7.14528 7.17149C6.78414 7.53277 6.29428 7.73578 5.78346 7.73587ZM7.44295 19.886H4.12051V9.19695H7.44295V19.886ZM21.5403 0.801475H2.45273C1.55061 0.791294 0.810815 1.51393 0.799805 2.41606V21.5832C0.810438 22.4858 1.55017 23.2091 2.45273 23.1997H21.5403C22.4447 23.2109 23.1873 22.4876 23.1998 21.5832V2.41467C23.1869 1.51076 22.4442 0.788171 21.5403 0.799947" fill="#0A66C2"/>
</svg>
