<svg width="90" height="90" viewBox="0 0 90 90" fill="none" xmlns="http://www.w3.org/2000/svg">
<path d="M63.818 7.6809L60.1993 6.70215L58.238 13.9396L61.8605 14.9221C65.0245 15.7786 67.9086 17.4495 70.2254 19.7682C72.5421 22.0869 74.2106 24.9725 75.0643 28.1371L76.0393 31.7559L83.2805 29.8021L82.3055 26.1834C81.1103 21.7523 78.7743 17.7121 75.5304 14.4655C72.2865 11.219 68.2481 8.87969 63.818 7.6809ZM60.3905 20.3484L56.7718 19.3696L54.8105 26.6071L58.433 27.5896C59.3819 27.8467 60.2469 28.3479 60.9417 29.0434C61.6365 29.7389 62.1369 30.6043 62.393 31.5534L63.368 35.1721L70.6093 33.2222L69.6343 29.5996C69.0367 27.3841 67.8687 25.364 66.2467 23.7407C64.6248 22.1175 62.6056 20.9478 60.3905 20.3484Z" fill="#6678FF"/>
<path d="M35.9251 7.5H3.75011V11.25C3.72549 25.6863 7.88869 39.8198 15.7351 51.9375C21.5178 60.8729 29.1272 68.4823 38.0626 74.265C50.1803 82.1114 64.3138 86.2746 78.7501 86.25H82.5001V54.075L57.4126 48.4987L50.4376 55.4737C44.055 51.3726 38.6297 45.946 34.5301 39.5625L41.5014 32.5875L35.9251 7.5Z" fill="#6678FF"/>
</svg>
