<svg width="14" height="14" viewBox="0 0 14 14" fill="none" xmlns="http://www.w3.org/2000/svg">
<path d="M7.03868 0.280273C5.77287 0.280273 4.5355 0.655627 3.48303 1.35887C2.43055 2.06211 1.61025 3.06165 1.12585 4.2311C0.641445 5.40055 0.514704 6.68737 0.761649 7.92885C1.00859 9.17033 1.61814 10.3107 2.51319 11.2058C3.40825 12.1008 4.54862 12.7104 5.7901 12.9573C7.03158 13.2042 8.3184 13.0775 9.48785 12.5931C10.6573 12.1087 11.6568 11.2884 12.3601 10.2359C13.0633 9.18345 13.4387 7.94607 13.4387 6.68027C13.437 4.98341 12.7622 3.35653 11.5623 2.15666C10.3624 0.956796 8.73554 0.281968 7.03868 0.280273ZM10.8396 5.21659V5.63003C10.8396 5.66168 10.8333 5.693 10.821 5.72216C10.8087 5.75131 10.7907 5.77771 10.768 5.79978C10.7454 5.82185 10.7185 5.83916 10.689 5.85068C10.6595 5.8622 10.6281 5.86769 10.5964 5.86683C9.9207 5.81909 9.27422 5.57235 8.73852 5.15771V8.18363C8.73837 8.51853 8.67151 8.85004 8.54184 9.15881C8.41218 9.46758 8.22231 9.74744 7.98332 9.98203C7.74236 10.2228 7.45579 10.413 7.14039 10.5416C6.82499 10.6701 6.4871 10.7345 6.14652 10.7308C5.46163 10.7298 4.80428 10.4611 4.31483 9.98203C4.00341 9.66805 3.77909 9.2784 3.66395 8.85141C3.54882 8.42443 3.54683 7.97482 3.65819 7.54683C3.75995 7.13595 3.96539 6.75835 4.25531 6.45051C4.47152 6.18625 4.74407 5.97365 5.05301 5.82826C5.36195 5.68287 5.69948 5.60836 6.04092 5.61019H6.56572V6.70011C6.56595 6.73177 6.55943 6.76311 6.54659 6.79204C6.53376 6.82098 6.5149 6.84685 6.49129 6.86792C6.46767 6.889 6.43983 6.9048 6.40962 6.91427C6.37942 6.92373 6.34754 6.92665 6.31612 6.92283C6.01141 6.83131 5.68306 6.86167 5.4003 7.00751C5.11754 7.15335 4.90244 7.40329 4.80037 7.70463C4.69829 8.00596 4.7172 8.33517 4.85311 8.62284C4.98902 8.9105 5.23131 9.13417 5.52891 9.24667C5.70171 9.34587 5.895 9.40411 6.0934 9.41755C6.24699 9.42395 6.4006 9.40475 6.54652 9.35867C6.79012 9.27649 7.002 9.12034 7.15264 8.91201C7.30327 8.70367 7.38514 8.45352 7.38684 8.19643V2.68283C7.38684 2.62184 7.41102 2.56333 7.45409 2.52014C7.49716 2.47695 7.5556 2.4526 7.6166 2.45243H8.5222C8.58104 2.45251 8.63762 2.47509 8.68034 2.51555C8.72306 2.55601 8.74869 2.61128 8.75196 2.67003C8.78497 2.95242 8.87465 3.22523 9.01564 3.47212C9.15662 3.71901 9.34601 3.9349 9.57244 4.10683C9.87842 4.33652 10.2418 4.47737 10.6227 4.51387C10.6797 4.51875 10.7331 4.54413 10.7728 4.58531C10.8126 4.6265 10.8361 4.68069 10.839 4.73787L10.8396 5.21659Z" fill="#0018CC"/>
</svg>
