<svg width="16" height="16" viewBox="0 0 16 16" fill="none" xmlns="http://www.w3.org/2000/svg">
<path d="M9.54922 7.55216L7.82429 6.7473C7.67376 6.67741 7.55011 6.75575 7.55011 6.9224V8.43843C7.55011 8.60509 7.67376 8.68343 7.82429 8.61354L9.54845 7.80867C9.69975 7.73802 9.69975 7.62282 9.54922 7.55216ZM8.31811 0.307617C4.24618 0.307617 0.945312 3.60848 0.945312 7.68042C0.945312 11.7524 4.24618 15.0532 8.31811 15.0532C12.39 15.0532 15.6909 11.7524 15.6909 7.68042C15.6909 3.60848 12.39 0.307617 8.31811 0.307617ZM8.31811 10.6756C4.54416 10.6756 4.47811 10.3354 4.47811 7.68042C4.47811 5.02544 4.54416 4.68522 8.31811 4.68522C12.0921 4.68522 12.1581 5.02544 12.1581 7.68042C12.1581 10.3354 12.0921 10.6756 8.31811 10.6756Z" fill="#0018CC"/>
</svg>
