<svg width="48" height="48" viewBox="0 0 48 48" fill="none" xmlns="http://www.w3.org/2000/svg">
<circle cx="23.9996" cy="23.9996" r="23.4" fill="#CCD2FF"/>
<rect width="34.0364" height="34.0364" transform="translate(6.27539 7.68945)" fill="#CCD2FF"/>
<path d="M23.2166 16.2012L19.867 31.9224C19.6004 33.1735 19.7471 33.642 20.6659 34.5404L24.3817 38.1736C24.8715 38.6525 25.1164 38.8921 25.4208 38.8921C25.7251 38.8921 25.97 38.6525 26.4599 38.1736L30.1757 34.5404C31.0945 33.642 31.2411 33.1735 30.9747 31.9224L27.6249 16.2012" stroke="#666666" stroke-width="2.925" stroke-linecap="round" stroke-linejoin="round"/>
<path d="M21.2465 12.1195C21.1509 11.3765 21.1032 11.005 21.321 10.7652C21.539 10.5254 21.9243 10.5254 22.6949 10.5254H28.1461C28.9168 10.5254 29.3021 10.5254 29.5201 10.7652C29.7379 11.005 29.6901 11.3765 29.5945 12.1195L29.5225 12.68C29.3202 14.2512 29.2193 15.0368 28.7141 15.5464C28.632 15.6293 28.5431 15.7055 28.4483 15.7743C27.8652 16.1981 27.0503 16.1981 25.4205 16.1981C23.7908 16.1981 22.9759 16.1981 22.3927 15.7743C22.298 15.7055 22.2091 15.6293 22.1269 15.5464C21.6218 15.0368 21.5208 14.2512 21.3186 12.68L21.2465 12.1195Z" stroke="#666666" stroke-width="2.925" stroke-linecap="round" stroke-linejoin="round"/>
<path d="M20.4519 28.9648C19.59 29.9469 18.8602 30.383 18.3246 30.383C17.6377 30.383 16.401 28.652 15.8522 27.3983C15.5946 26.81 15.4659 26.5159 15.4915 26.1438C15.5171 25.7716 15.6857 25.4995 16.0231 24.9552C17.9306 21.8773 21.1816 19.0675 23.2883 16.2012" stroke="#666666" stroke-width="2.925" stroke-linejoin="round"/>
</svg>
