<svg width="48" height="48" viewBox="0 0 48 48" fill="none" xmlns="http://www.w3.org/2000/svg">
<circle cx="23.9996" cy="23.9996" r="23.4" fill="#CCD2FF"/>
<path d="M37.0639 33.5512L32.6523 12.5764C32.5953 12.3021 32.4846 12.0418 32.3266 11.8104C32.1687 11.579 31.9665 11.3811 31.7319 11.2281C31.4972 11.0751 31.2346 10.9699 30.9592 10.9187C30.6837 10.8674 30.4009 10.8711 30.1269 10.9295L23.9049 12.2667C23.3545 12.3872 22.874 12.7201 22.5678 13.1931C22.2617 13.666 22.1546 14.2407 22.27 14.7922L26.6816 35.767C26.7799 36.2455 27.04 36.6756 27.4181 36.985C27.7962 37.2943 28.2693 37.4641 28.7578 37.4657C28.9088 37.4655 29.0594 37.4494 29.2071 37.4178L35.429 36.0806C35.9801 35.9599 36.461 35.6263 36.7673 35.1525C37.0735 34.6787 37.1801 34.1032 37.0639 33.5512ZM24.3502 14.3575C24.3502 14.3496 24.3502 14.3456 24.3502 14.3456L30.5708 13.0164L31.0134 15.1258L24.7928 16.4643L24.3502 14.3575ZM25.2301 18.5405L31.4534 17.2047L31.8974 19.3181L25.6794 20.6553L25.2301 18.5405ZM26.1127 22.7368L32.336 21.3996L34.1038 29.8055L27.8805 31.1427L26.1127 22.7368ZM34.9838 34.0018L28.7631 35.331L28.3205 33.2215L34.5411 31.883L34.9838 33.9898C34.9838 33.9978 34.9838 34.0018 34.9838 34.0018ZM20.0967 11.945H13.7166C13.1525 11.945 12.6116 12.1691 12.2127 12.5679C11.8139 12.9668 11.5898 13.5077 11.5898 14.0718V35.3389C11.5898 35.903 11.8139 36.4439 12.2127 36.8428C12.6116 37.2416 13.1525 37.4657 13.7166 37.4657H20.0967C20.6608 37.4657 21.2017 37.2416 21.6005 36.8428C21.9994 36.4439 22.2234 35.903 22.2234 35.3389V14.0718C22.2234 13.5077 21.9994 12.9668 21.6005 12.5679C21.2017 12.1691 20.6608 11.945 20.0967 11.945ZM13.7166 14.0718H20.0967V16.1985H13.7166V14.0718ZM13.7166 18.3252H20.0967V31.0855H13.7166V18.3252ZM20.0967 35.3389H13.7166V33.2122H20.0967V35.3389Z" fill="#666666"/>
</svg>
