<svg width="48" height="48" viewBox="0 0 48 48" fill="none" xmlns="http://www.w3.org/2000/svg">
<circle cx="23.9996" cy="23.9996" r="23.4" fill="#CCD2FF"/>
<rect width="34.0364" height="34.0364" transform="translate(6.27734 7.6875)" fill="#CCD2FF"/>
<path d="M23.0145 16.8902L25.1214 14.7834C27.4936 12.4112 30.5992 11.4272 33.886 11.2664C35.1645 11.2039 35.8037 11.1726 36.3162 11.6852C36.8289 12.1978 36.7975 12.837 36.735 14.1154C36.5742 17.4022 35.5902 20.5079 33.218 22.8801L31.1112 24.9869C29.3762 26.722 28.8829 27.2153 29.2471 29.0973C29.6066 30.5349 29.9545 31.927 28.9092 32.9723C27.6412 34.2403 26.4845 34.2403 25.2165 32.9723L15.0291 22.7849C13.7611 21.5169 13.7611 20.3603 15.0291 19.0923C16.0745 18.0469 17.4666 18.3949 18.9042 18.7543C20.7861 19.1186 21.2795 18.6253 23.0145 16.8902Z" stroke="#666666" stroke-width="2.925" stroke-linejoin="round"/>
<path d="M30.3789 17.6152H30.3917" stroke="#666666" stroke-width="3.9" stroke-linecap="round" stroke-linejoin="round"/>
<path d="M9.81641 38.1788L16.9073 31.0879" stroke="#666666" stroke-width="2.925" stroke-linecap="round"/>
<path d="M18.332 38.186L21.1684 35.3496" stroke="#666666" stroke-width="2.925" stroke-linecap="round"/>
<path d="M9.81641 29.6684L12.6528 26.832" stroke="#666666" stroke-width="2.925" stroke-linecap="round"/>
</svg>
