<svg width="18" height="18" viewBox="0 0 18 18" fill="none" xmlns="http://www.w3.org/2000/svg">
<g clip-path="url(#clip0_1666_8722)">
<circle cx="9" cy="9" r="9" fill="#995E00"/>
<path d="M7.76197 11.0194L13.7907 5.20579C13.933 5.0686 14.099 5 14.2886 5C14.4783 5 14.6443 5.0686 14.7866 5.20579C14.9289 5.34298 15 5.50602 15 5.69489C15 5.88376 14.9289 6.04656 14.7866 6.1833L8.25992 12.4942C8.11765 12.6314 7.95166 12.7 7.76197 12.7C7.57228 12.7 7.40629 12.6314 7.26402 12.4942L4.2052 9.54454C4.06293 9.40735 3.99464 9.24455 4.00033 9.05613C4.00602 8.86772 4.08024 8.70469 4.22298 8.56704C4.36573 8.42939 4.53479 8.36079 4.73018 8.36125C4.92556 8.3617 5.09439 8.4303 5.23666 8.56704L7.76197 11.0194Z" fill="white"/>
</g>
<defs>
<clipPath id="clip0_1666_8722">
<rect width="18" height="18" fill="white"/>
</clipPath>
</defs>
</svg>
