<svg width="14" height="14" viewBox="0 0 14 14" fill="none" xmlns="http://www.w3.org/2000/svg">
<path d="M9.36115 2.30265L9.10142 4.28572M5.39502 1.7832L5.13529 3.76627" stroke="white" stroke-linecap="round" stroke-linejoin="round"/>
<path d="M7.74379 3.09853L6.75226 2.96867C4.88261 2.7238 3.94779 2.60136 3.29089 3.10611C2.63399 3.61087 2.51155 4.54569 2.26668 6.41535L2.13682 7.40688C1.89195 9.27651 1.76951 10.2114 2.27427 10.8682C2.77902 11.5252 3.71385 11.6476 5.5835 11.8925L6.57503 12.0223C8.44466 12.2672 9.37953 12.3896 10.0364 11.8849C10.6933 11.3801 10.8157 10.4453 11.0606 8.57564L11.1905 7.58411C11.4353 5.71446 11.5578 4.77964 11.053 4.12273C10.5483 3.46584 9.61343 3.3434 7.74379 3.09853Z" stroke="white" stroke-linecap="round" stroke-linejoin="round"/>
<path d="M2.39648 5.42383L11.3203 6.59259" stroke="white" stroke-linecap="round" stroke-linejoin="round"/>
<path d="M6.59656 7.99185L6.60102 7.99244M6.33683 9.97492L6.34129 9.9755M8.57739 8.25129L8.58185 8.25187M4.61572 7.73242L4.62017 7.733M4.356 9.71549L4.36044 9.71607" stroke="white" stroke-linecap="round" stroke-linejoin="round"/>
</svg>
