<svg width="32" height="32" viewBox="0 0 32 32" fill="none" xmlns="http://www.w3.org/2000/svg">
<path d="M10.8954 26.4379L26.4379 10.8954C27.1649 10.1684 27.5283 9.80493 27.7227 9.4128C28.0925 8.66673 28.0925 7.7908 27.7227 7.04472C27.5283 6.6526 27.1649 6.28909 26.4379 5.56209C25.7109 4.83509 25.3474 4.4716 24.9553 4.27728C24.2091 3.90757 23.3333 3.90757 22.5871 4.27728C22.195 4.4716 21.8315 4.83509 21.1046 5.56209L5.56209 21.1045C4.79135 21.8752 4.40597 22.2607 4.20299 22.7507C4 23.2407 4 23.7857 4 24.8757V27.9999H7.12419C8.2142 27.9999 8.7592 27.9999 9.24925 27.7969C9.73931 27.594 10.1247 27.2085 10.8954 26.4379Z" stroke="#141B34" stroke-width="3" stroke-linecap="round" stroke-linejoin="round"/>
<path d="M16 28H24" stroke="#141B34" stroke-width="3" stroke-linecap="round" stroke-linejoin="round"/>
<path d="M19.333 7.33398L24.6663 12.6673" stroke="#141B34" stroke-width="3" stroke-linecap="round" stroke-linejoin="round"/>
</svg>
