<svg width="16" height="16" viewBox="0 0 16 16" fill="none" xmlns="http://www.w3.org/2000/svg">
<circle cx="8" cy="8" r="8" fill="#186F0A"/>
<path d="M6.96154 9.71399L11.7075 4.96799C11.8195 4.85599 11.9502 4.79999 12.0995 4.79999C12.2489 4.79999 12.3795 4.85599 12.4915 4.96799C12.6035 5.07999 12.6595 5.21308 12.6595 5.36727C12.6595 5.52145 12.6035 5.65436 12.4915 5.76599L7.35354 10.918C7.24154 11.03 7.11087 11.086 6.96154 11.086C6.81221 11.086 6.68154 11.03 6.56954 10.918L4.16154 8.50999C4.04954 8.39799 3.99578 8.26508 4.00026 8.11127C4.00474 7.95745 4.06316 7.82436 4.17554 7.71199C4.28791 7.59961 4.42101 7.54361 4.57482 7.54399C4.72863 7.54436 4.86154 7.60036 4.97354 7.71199L6.96154 9.71399Z" fill="white"/>
</svg>
