<svg width="244" height="231" viewBox="0 0 244 231" fill="none" xmlns="http://www.w3.org/2000/svg">
<path opacity="0.18" d="M220.866 115.074C219.163 109.189 217.312 103.559 215.366 98.203C210.516 84.9167 205.041 73.288 199.292 63.6014C196.413 58.762 193.474 54.4049 190.523 50.5736C187.569 46.7445 184.588 43.4538 181.69 40.7154C178.793 37.9753 175.969 35.8006 173.37 34.1522C170.783 32.4813 168.384 31.4099 166.421 30.6718C165.925 30.4997 165.458 30.3374 165.021 30.1851C164.584 30.0355 164.158 29.9497 163.774 29.8446C163.003 29.6444 157.039 28.4009 153.902 28.3244C150.741 28.2419 146.441 28.5741 141.216 29.5438C136.269 27.9697 131.454 27.3394 126.871 27.8426C116.868 28.9415 101.97 37.6634 86.185 50.5301C82.3834 52.5376 78.4949 54.6947 74.5305 57.0152C68.4453 60.6006 62.1698 64.5414 55.8421 68.9733C52.668 71.1738 49.4945 73.5168 46.3111 75.9742C43.125 78.4272 39.9537 81.032 36.8126 83.7892C30.5399 89.3068 24.3348 95.4261 18.8535 102.62C16.1205 106.215 13.5971 110.11 11.5335 114.387C10.4764 116.509 9.62392 118.777 8.88857 121.109C8.20327 123.464 7.71157 125.919 7.51192 128.452C7.36617 130.991 7.50092 133.59 8.03387 136.155C8.61797 138.707 9.57167 141.18 10.8317 143.492C11.6463 144.858 12.5131 146.125 13.4266 147.339C9.92037 161.146 11.6683 172.962 21.3274 180.489C40.364 195.323 81.7388 200.675 123.021 199.534C137.564 202.866 152.026 205.316 166.284 206.731C176.436 207.702 186.496 208.172 196.429 207.477C197.669 207.409 198.911 207.258 200.146 207.148C201.384 206.985 202.617 206.868 203.849 206.653C206.311 206.29 208.763 205.757 211.19 205.054C213.612 204.339 216.026 203.44 218.326 202.069C218.891 201.692 219.465 201.348 220.013 200.934L220.821 200.276C221.092 200.059 221.357 199.836 221.593 199.577C222.074 199.075 222.588 198.588 222.979 198.04L223.602 197.235C223.813 196.968 223.967 196.68 224.151 196.403C225.579 194.169 226.53 191.812 227.265 189.472C227.998 187.124 228.452 184.775 228.828 182.447C229.162 180.2 229.384 177.972 229.522 175.764C231.037 174.417 232.238 173.029 233.077 171.605C239.048 161.487 233.136 139.177 220.866 115.074ZM153.924 29.4673C156.74 29.2836 161.988 29.9442 163.511 30.6669C163.861 30.833 164.267 30.9391 164.675 31.1278C165.083 31.3148 165.518 31.5144 165.98 31.7267C167.809 32.6089 170.031 33.7958 172.428 35.552C174.835 37.2861 177.451 39.5158 180.14 42.2884C182.829 45.0604 185.602 48.3626 188.356 52.1917C191.106 56.0235 193.85 60.3674 196.542 65.1843C201.581 74.2225 206.406 84.9403 210.725 97.092C192.708 67.9651 167.543 39.9366 144.668 30.784C148.375 30.0261 151.493 29.6224 153.924 29.4673ZM13.194 135.02C12.76 132.982 12.6335 130.891 12.7314 128.798C12.8838 126.702 13.2781 124.616 13.8545 122.567C14.4837 120.53 15.2108 118.515 16.1563 116.582C17.9867 112.697 20.295 109.039 22.8459 105.615C27.9598 98.7585 33.8971 92.752 39.9394 87.307C42.966 84.5834 46.0317 81.9967 49.1211 79.5503C52.2071 77.1001 55.2888 74.7549 58.3776 72.5439C62.584 69.5018 66.7728 66.6809 70.9 64.0326C47.0729 86.6959 24.128 116.14 15.4286 140.78C14.4293 138.943 13.673 137.015 13.194 135.02ZM223.775 181.651C223.413 183.778 222.98 185.904 222.328 187.928C221.678 189.945 220.853 191.889 219.765 193.557C218.666 195.247 217.389 196.502 215.626 197.529C213.881 198.558 211.831 199.326 209.7 199.935C207.561 200.538 205.33 201.015 203.037 201.337C201.901 201.53 200.732 201.632 199.575 201.78C198.404 201.874 197.239 202.012 196.053 202.069C186.591 202.68 176.766 202.188 166.833 201.197C159.799 200.473 152.694 199.489 145.543 198.273C178.551 195.487 208.77 188.75 224.055 179.676C223.969 180.336 223.879 180.994 223.775 181.651ZM41.6983 12.8507C41.6983 19.6328 36.2005 25.1311 29.4179 25.1311C22.6358 25.1311 17.1375 19.6333 17.1375 12.8507C17.1375 6.06811 22.6358 0.570312 29.4179 0.570312C36.1999 0.570863 41.6983 6.06866 41.6983 12.8507ZM13.9992 38.8129C13.9992 42.4253 11.071 45.3535 7.45857 45.3535C3.84617 45.3535 0.917969 42.4253 0.917969 38.8129C0.917969 35.2005 3.84617 32.2723 7.45857 32.2723C11.071 32.2723 13.9992 35.2005 13.9992 38.8129ZM187.717 5.10231C187.717 7.60536 185.688 9.63431 183.185 9.63431C180.682 9.63431 178.653 7.60536 178.653 5.10231C178.653 2.59926 180.682 0.570312 183.185 0.570312C185.688 0.570863 187.717 2.59981 187.717 5.10231ZM243.083 20.7944C243.083 29.0328 236.404 35.7115 228.166 35.7115C219.927 35.7115 213.249 29.0328 213.249 20.7944C213.249 12.5559 219.927 5.87726 228.166 5.87726C236.404 5.87781 243.083 12.5565 243.083 20.7944ZM232.455 83.9806C232.455 87.5171 229.588 90.3837 226.052 90.3837C222.515 90.3837 219.649 87.5171 219.649 83.9806C219.649 80.4441 222.515 77.5775 226.052 77.5775C229.588 77.5775 232.455 80.4441 232.455 83.9806ZM22.8366 222.333C22.8366 226.58 19.3941 230.023 15.147 230.023C10.8999 230.023 7.45747 226.58 7.45747 222.333C7.45747 218.087 10.8999 214.644 15.147 214.644C19.3941 214.644 22.8366 218.086 22.8366 222.333ZM235.338 222.333C235.338 225.449 232.812 227.976 229.696 227.976C226.58 227.976 224.054 225.449 224.054 222.333C224.054 219.217 226.58 216.691 229.696 216.691C232.812 216.691 235.338 219.217 235.338 222.333Z" fill="#CCD2FF"/>
<path d="M161.798 79.7037C161.798 56.7007 142.437 38.2207 119.123 39.6674C98.6847 40.9366 82.2513 57.9059 81.588 78.3725C81.293 87.4706 84.032 95.9139 88.8685 102.775C95.553 112.256 98.7599 123.756 98.7599 135.356V135.841H144.606V135.358C144.606 123.365 148.519 111.82 155.145 101.826C159.349 95.4843 161.798 87.8811 161.798 79.7037Z" fill="#FFC466"/>
<path d="M119.583 98.3684C118.46 97.7949 116.615 96.9296 115.535 96.3145C117.827 93.8058 118.917 90.2893 117.565 86.8177C115.52 81.5628 107.309 79.8858 105.605 86.299C104.702 89.6967 106.172 93.1425 108.619 95.8914C107.072 96.0967 105.425 95.8617 103.988 95.1747C100.289 93.4065 98.4155 89.197 97.9647 85.3189C97.7192 83.2016 94.4462 83.0894 94.5657 85.3189C94.9643 92.7412 99.7421 99.9834 107.936 99.86C109.371 99.8382 110.768 99.4752 112.052 98.8753C113.401 99.7914 114.828 100.509 116.211 100.958V139.127C116.211 141.264 119.532 141.266 119.532 139.127C119.532 139.127 120.574 98.8753 119.583 98.3684ZM114.156 90.6266C113.978 92.101 113.348 93.2646 112.452 94.1292C111.806 93.5332 111.214 92.8627 110.703 92.0786C109.987 90.9797 108.805 88.6631 109.406 87.3464C111.343 83.1039 114.411 88.4955 114.156 90.6266Z" fill="white"/>
<path d="M123.833 139.128C123.833 141.268 127.154 141.265 127.154 139.128V100.96C128.536 100.51 129.963 99.7931 131.312 98.877C132.597 99.4769 133.993 99.8399 135.428 99.8617C143.622 99.9851 148.4 92.7429 148.798 85.3206C148.918 83.0911 145.645 83.2033 145.399 85.3206C144.949 89.1987 143.075 93.4082 139.376 95.1763C137.939 95.8634 136.291 96.0984 134.745 95.8931C137.192 93.1442 138.661 89.6983 137.759 86.3007C136.056 79.8881 127.845 81.5645 125.799 86.8194C124.448 90.291 125.537 93.8068 127.829 96.3162C126.749 96.9313 124.904 97.7965 123.782 98.3701C122.789 98.8763 123.833 139.128 123.833 139.128ZM133.957 87.3474C134.558 88.6641 133.376 90.9801 132.66 92.0796C132.149 92.8637 131.557 93.5343 130.91 94.1303C130.015 93.2657 129.385 92.1021 129.208 90.6276C128.952 88.4965 132.022 83.1049 133.957 87.3474Z" fill="white"/>
<path d="M153.44 135.84H89.9238V151.236H153.44V135.84Z" fill="#343737"/>
<path d="M134.927 174.161H108.438C103.585 174.161 99.6504 170.226 99.6504 165.373V143.539H143.715V165.373C143.715 170.226 139.78 174.161 134.927 174.161Z" fill="#343737"/>
<path d="M161.802 79.702C161.802 56.7016 142.44 38.2263 119.119 39.6624C98.6865 40.9309 82.2432 57.9088 81.5865 78.3721C81.51 80.6953 81.6327 82.971 81.9528 85.1872C84.5209 66.6201 100.094 51.8262 119.119 50.6494C121.264 50.5174 123.372 50.5597 125.438 50.7511C124.923 51.7272 124.595 52.9046 124.555 54.3514C124.475 57.2501 125.996 59.9673 127.856 62.1909C130.394 65.2216 133.653 67.6444 137.285 69.202C139.656 70.2191 142.264 70.8751 144.815 70.487C148.051 69.9953 151.11 67.5685 152.063 64.4962C157 70.2204 160.353 77.3517 161.419 85.2176C161.68 83.4151 161.802 81.5658 161.802 79.702Z" fill="#FFD75D"/>
<path d="M111.917 6.01953L101.594 10.5399L116.722 30.8586L111.917 6.01953Z" fill="#FFEAAC"/>
<path d="M127.014 17.8771L120.26 17.1465L122.081 32.3073L127.014 17.8771Z" fill="#FFEAAC"/>
<path d="M97.5502 21.6211L95 27.9182L110.08 30.3133L97.5502 21.6211Z" fill="#FFEAAC"/>
</svg>
