<svg width="12" height="13" viewBox="0 0 12 13" fill="none" xmlns="http://www.w3.org/2000/svg">
<path d="M5.55026 2.00098C3.72581 2.00426 2.77043 2.04905 2.15987 2.65959C1.50098 3.31847 1.50098 4.37892 1.50098 6.49979C1.50098 8.62069 1.50098 9.68114 2.15987 10.34C2.81876 10.9989 3.87924 10.9989 6.00021 10.9989C8.12111 10.9989 9.18161 10.9989 9.84051 10.34C10.4511 9.72949 10.4959 8.77414 10.4992 6.94974" stroke="#0929FF" stroke-linecap="round" stroke-linejoin="round"/>
<path d="M10.2405 2.25918L7.46582 5.02618M10.2405 2.25918C9.99347 2.01193 8.32967 2.03498 7.97792 2.03998M10.2405 2.25918C10.4874 2.50644 10.4644 4.17207 10.4594 4.5242" stroke="#0929FF" stroke-linecap="round" stroke-linejoin="round"/>
</svg>
