<svg width="40" height="40" viewBox="0 0 40 40" fill="none" xmlns="http://www.w3.org/2000/svg">
<path d="M1.61934 19.5443C1.61844 22.7959 2.46804 25.9708 4.08354 28.7692L1.46484 38.3305L11.2496 35.7649C13.956 37.2382 16.9883 38.0102 20.0696 38.0104H20.0777C30.25 38.0104 38.5304 29.733 38.5348 19.5589C38.5367 14.6288 36.6185 9.99295 33.1334 6.50515C29.6489 3.01765 25.0147 1.096 20.077 1.09375C9.90354 1.09375 1.62369 9.37075 1.61949 19.5443" fill="url(#paint0_linear_1711_5324)"/>
<path d="M0.960305 19.5382C0.959255 22.9067 1.8393 26.1952 3.5124 29.0938L0.799805 38.9978L10.9355 36.3403C13.7282 37.8629 16.8725 38.6657 20.072 38.6669H20.0802C30.6174 38.6669 39.1953 30.0917 39.1998 19.5535C39.2016 14.4463 37.2144 9.64373 33.6048 6.03098C29.9948 2.41868 25.1948 0.427881 20.0802 0.425781C9.5412 0.425781 0.964505 8.99978 0.960305 19.5382ZM6.99646 28.5946L6.618 27.9938C5.0271 25.4642 4.1874 22.541 4.1886 19.5394C4.1919 10.7801 11.3205 3.65378 20.0862 3.65378C24.3312 3.65558 28.3206 5.31038 31.3212 8.31278C34.3217 11.3155 35.9727 15.307 35.9717 19.5523C35.9678 28.3115 28.839 35.4388 20.0802 35.4388H20.0739C17.222 35.4373 14.4249 34.6714 11.9856 33.224L11.4051 32.8798L5.3904 34.4567L6.99646 28.5946Z" fill="url(#paint1_linear_1711_5324)"/>
<path d="M15.3017 11.5475C14.9438 10.7521 14.5672 10.736 14.2268 10.7221C13.9481 10.7101 13.6295 10.711 13.3112 10.711C12.9926 10.711 12.475 10.8308 12.0374 11.3086C11.5994 11.7868 10.3652 12.9424 10.3652 15.2927C10.3652 17.6431 12.0772 19.9147 12.3158 20.2337C12.5548 20.5522 15.6208 25.5298 20.4766 27.4447C24.5122 29.036 25.3334 28.7195 26.2093 28.6397C27.0853 28.5602 29.0359 27.4844 29.4338 26.3689C29.8321 25.2535 29.8321 24.2974 29.7127 24.0976C29.5933 23.8985 29.2747 23.779 28.7969 23.5402C28.3192 23.3014 25.9703 22.1455 25.5325 21.986C25.0945 21.8267 24.776 21.7472 24.4574 22.2256C24.1388 22.7032 23.224 23.779 22.9451 24.0976C22.6666 24.4169 22.3877 24.4567 21.9101 24.2177C21.4321 23.978 19.8935 23.4742 18.0682 21.8468C16.648 20.5805 15.6892 19.0168 15.4105 18.5384C15.1318 18.0608 15.3806 17.8019 15.6202 17.5639C15.8348 17.3498 16.0981 17.006 16.3372 16.7272C16.5754 16.4482 16.6549 16.2491 16.8142 15.9305C16.9736 15.6116 16.8938 15.3326 16.7746 15.0937C16.6549 14.8547 15.7265 12.4921 15.3017 11.5475Z" fill="white"/>
<defs>
<linearGradient id="paint0_linear_1711_5324" x1="1854.96" y1="3724.77" x2="1854.96" y2="1.09375" gradientUnits="userSpaceOnUse">
<stop stop-color="#1FAF38"/>
<stop offset="1" stop-color="#60D669"/>
</linearGradient>
<linearGradient id="paint1_linear_1711_5324" x1="1920.8" y1="3857.63" x2="1920.8" y2="0.425781" gradientUnits="userSpaceOnUse">
<stop stop-color="#F9F9F9"/>
<stop offset="1" stop-color="white"/>
</linearGradient>
</defs>
</svg>
