<svg width="19" height="24" viewBox="0 0 19 24" fill="none" xmlns="http://www.w3.org/2000/svg">
<path d="M10 0C11.8437 1.52029e-06 13.3906 0.343761 14.6406 1.03125C15.8984 1.71874 16.8477 2.66408 17.4883 3.86719C18.1367 5.06247 18.4609 6.42192 18.4609 7.94531C18.4609 9.48431 18.1367 10.8516 17.4883 12.0469C16.8398 13.2421 15.8828 14.1836 14.6172 14.8711C13.3516 15.5507 11.7929 15.8906 9.94141 15.8906H5.34766V24H1V0H10Z" fill="#001196"/>
<path d="M9.75781 2.01571C9.98452 1.89575 10.2579 1.97021 10.3975 2.17782C10.4329 2.20338 10.4664 2.23285 10.4951 2.26864C10.5652 2.35593 10.5993 2.46006 10.6035 2.56454L11.9746 5.22079L12.0117 5.31454C12.0749 5.5388 11.9753 5.78553 11.7617 5.89852C11.5481 6.01154 11.2912 5.95329 11.1455 5.77254L11.0908 5.68758L10.2246 4.00985C9.67121 6.83074 8.83017 8.8667 7.5625 10.2374C6.05993 11.8619 4.03531 12.4747 1.45508 12.4747L1.45801 11.9718L1.45996 11.4698C3.88325 11.4698 5.59133 10.8982 6.83594 9.55282C7.90394 8.39802 8.68245 6.61743 9.21777 3.96786L7.83398 5.10751L7.75 5.16317C7.54486 5.27184 7.28611 5.22375 7.13477 5.03524C6.9835 4.84677 6.9899 4.58065 7.13672 4.3995L7.20801 4.32723L9.48438 2.45223C9.48762 2.43074 9.4919 2.40936 9.49512 2.38778H9.49609C9.51927 2.23456 9.61115 2.09344 9.75781 2.01571Z" fill="#FFB236"/>
<path d="M9.75781 2.01571L9.52397 1.57376L9.52367 1.57392L9.75781 2.01571ZM10.3975 2.17782L9.98247 2.45671L10.0323 2.53087L10.1047 2.58318L10.3975 2.17782ZM10.4951 2.26864L10.885 1.95561L10.8849 1.95551L10.4951 2.26864ZM10.6035 2.56454L10.1039 2.58458L10.1084 2.69536L10.1592 2.79387L10.6035 2.56454ZM11.9746 5.22079L12.4395 5.03676L12.4303 5.01359L12.4189 4.99145L11.9746 5.22079ZM12.0117 5.31454L12.493 5.17887L12.486 5.15427L12.4766 5.13051L12.0117 5.31454ZM11.7617 5.89852L11.9956 6.34047L11.9956 6.34047L11.7617 5.89852ZM11.1455 5.77254L10.7251 6.04317L10.7395 6.06556L10.7562 6.0863L11.1455 5.77254ZM11.0908 5.68758L10.6465 5.91696L10.6575 5.93815L10.6704 5.95821L11.0908 5.68758ZM10.2246 4.00985L10.6689 3.78047L10.0103 2.5049L9.73396 3.91359L10.2246 4.00985ZM7.5625 10.2374L7.92956 10.5769L7.92958 10.5769L7.5625 10.2374ZM1.45508 12.4747L0.955087 12.4718L0.952157 12.9747L1.45508 12.9747L1.45508 12.4747ZM1.45801 11.9718L1.958 11.9747L1.958 11.9737L1.45801 11.9718ZM1.45996 11.4698L1.45996 10.9698L0.961903 10.9698L0.959965 11.4679L1.45996 11.4698ZM6.83594 9.55282L7.20297 9.89235L7.20302 9.89231L6.83594 9.55282ZM9.21777 3.96786L9.70787 4.06688L9.98669 2.68686L8.89991 3.5819L9.21777 3.96786ZM7.83398 5.10751L8.11022 5.52427L8.13183 5.50995L8.15185 5.49346L7.83398 5.10751ZM7.75 5.16317L7.98406 5.605L8.00576 5.5935L8.02623 5.57994L7.75 5.16317ZM7.13477 5.03524L6.74483 5.34821L6.74488 5.34827L7.13477 5.03524ZM7.13672 4.3995L6.78077 4.04836L6.76364 4.06572L6.74828 4.08468L7.13672 4.3995ZM7.20801 4.32723L6.89012 3.9413L6.87019 3.95771L6.85206 3.97609L7.20801 4.32723ZM9.48438 2.45223L9.80226 2.83817L9.95015 2.71636L9.97877 2.52692L9.48438 2.45223ZM9.49512 2.38778V1.88778H9.0642L9.00059 2.31397L9.49512 2.38778ZM9.49609 2.38778V2.88778H9.92615L9.99047 2.46256L9.49609 2.38778ZM9.75781 2.01571L9.99166 2.45765C9.99225 2.45734 9.99121 2.45793 9.9891 2.45817C9.98727 2.45837 9.98584 2.45818 9.98493 2.45794C9.98319 2.45749 9.98233 2.4565 9.98247 2.45671L10.3975 2.17782L10.8125 1.89893C10.5339 1.48443 9.98259 1.33109 9.52397 1.57376L9.75781 2.01571ZM10.3975 2.17782L10.1047 2.58318C10.114 2.58985 10.1116 2.58955 10.1053 2.58177L10.4951 2.26864L10.8849 1.95551C10.8212 1.87614 10.7517 1.8169 10.6902 1.77246L10.3975 2.17782ZM10.4951 2.26864L10.1052 2.58166C10.104 2.58008 10.1032 2.57846 10.103 2.57795C10.103 2.57777 10.1037 2.57987 10.1039 2.58458L10.6035 2.56454L11.1031 2.54449C11.0951 2.34465 11.0289 2.13487 10.885 1.95561L10.4951 2.26864ZM10.6035 2.56454L10.1592 2.79387L11.5303 5.45012L11.9746 5.22079L12.4189 4.99145L11.0478 2.3352L10.6035 2.56454ZM11.9746 5.22079L11.5097 5.40481L11.5468 5.49856L12.0117 5.31454L12.4766 5.13051L12.4395 5.03676L11.9746 5.22079ZM12.0117 5.31454L11.5305 5.45021C11.5304 5.44977 11.5309 5.45139 11.5297 5.45427C11.5292 5.45542 11.5287 5.45599 11.5286 5.45611C11.5286 5.45615 11.5286 5.45616 11.5286 5.45617C11.5285 5.45617 11.5285 5.45621 11.5284 5.45627C11.5283 5.45633 11.5281 5.45643 11.5279 5.45658L11.7617 5.89852L11.9956 6.34047C12.4221 6.11478 12.6187 5.62474 12.493 5.17887L12.0117 5.31454ZM11.7617 5.89852L11.5279 5.45657C11.5272 5.45695 11.5277 5.4566 11.529 5.45642C11.53 5.45628 11.5309 5.45636 11.5314 5.45647C11.532 5.45661 11.5335 5.45717 11.5348 5.45879L11.1455 5.77254L10.7562 6.0863C11.0494 6.45005 11.5665 6.56749 11.9956 6.34047L11.7617 5.89852ZM11.1455 5.77254L11.5659 5.50192L11.5113 5.41696L11.0908 5.68758L10.6704 5.95821L10.7251 6.04317L11.1455 5.77254ZM11.0908 5.68758L11.5351 5.4582L10.6689 3.78047L10.2246 4.00985L9.78033 4.23923L10.6465 5.91696L11.0908 5.68758ZM10.2246 4.00985L9.73396 3.91359C9.18808 6.69617 8.37163 8.6261 7.19542 9.8979L7.5625 10.2374L7.92958 10.5769C9.2887 9.10729 10.1543 6.9653 10.7153 4.1061L10.2246 4.00985ZM7.5625 10.2374L7.19544 9.89788C5.82139 11.3835 3.95521 11.9747 1.45507 11.9747L1.45508 12.4747L1.45508 12.9747C4.11541 12.9747 6.29848 12.3404 7.92956 10.5769L7.5625 10.2374ZM1.45508 12.4747L1.95507 12.4776L1.958 11.9747L1.45801 11.9718L0.958016 11.9689L0.955087 12.4718L1.45508 12.4747ZM1.45801 11.9718L1.958 11.9737L1.95996 11.4718L1.45996 11.4698L0.959965 11.4679L0.958012 11.9698L1.45801 11.9718ZM1.45996 11.4698L1.45996 11.9698C3.96399 11.9698 5.83016 11.3764 7.20297 9.89235L6.83594 9.55282L6.4689 9.21328C5.3525 10.4201 3.80251 10.9698 1.45996 10.9698L1.45996 11.4698ZM6.83594 9.55282L7.20302 9.89231C8.36122 8.63998 9.16475 6.75504 9.70787 4.06688L9.21777 3.96786L8.72768 3.86884C8.20015 6.47981 7.44666 8.15606 6.46886 9.21333L6.83594 9.55282ZM9.21777 3.96786L8.89991 3.5819L7.51612 4.72155L7.83398 5.10751L8.15185 5.49346L9.53564 4.35381L9.21777 3.96786ZM7.83398 5.10751L7.55775 4.69074L7.47377 4.7464L7.75 5.16317L8.02623 5.57994L8.11022 5.52427L7.83398 5.10751ZM7.75 5.16317L7.51594 4.72134C7.51789 4.72031 7.5198 4.72026 7.52093 4.72049C7.52163 4.72063 7.52258 4.72095 7.52361 4.72157C7.52485 4.72232 7.52519 4.72288 7.52466 4.72221L7.13477 5.03524L6.74488 5.34827C7.04899 5.72706 7.57067 5.824 7.98406 5.605L7.75 5.16317ZM7.13477 5.03524L7.5247 4.72227C7.52451 4.72203 7.5244 4.72187 7.52434 4.72178C7.52428 4.72169 7.52425 4.72164 7.52424 4.72163C7.52424 4.72162 7.52423 4.7216 7.5242 4.72153C7.52415 4.72136 7.52393 4.7206 7.52394 4.71926C7.52395 4.71786 7.52421 4.71653 7.52457 4.71553C7.52488 4.71466 7.52514 4.71435 7.52516 4.71432L7.13672 4.3995L6.74828 4.08468C6.457 4.44407 6.44258 4.97163 6.74483 5.34821L7.13477 5.03524ZM7.13672 4.3995L7.49267 4.75064L7.56396 4.67837L7.20801 4.32723L6.85206 3.97609L6.78077 4.04836L7.13672 4.3995ZM7.20801 4.32723L7.5259 4.71317L9.80226 2.83817L9.48438 2.45223L9.16649 2.0663L6.89012 3.9413L7.20801 4.32723ZM9.48438 2.45223L9.97877 2.52692C9.97936 2.52296 9.98019 2.51813 9.98227 2.50621C9.98401 2.49627 9.98696 2.47952 9.98964 2.46158L9.49512 2.38778L9.00059 2.31397C9.00005 2.31762 8.99925 2.32235 8.99724 2.33387C8.99557 2.34341 8.99263 2.36001 8.98998 2.37755L9.48438 2.45223ZM9.49512 2.38778V2.88778H9.49609V2.38778V1.88778H9.49512V2.38778ZM9.49609 2.38778L9.99047 2.46256C9.9909 2.45975 9.9919 2.45781 9.99238 2.45712C9.99253 2.4569 9.99249 2.45701 9.9922 2.45727C9.99185 2.45758 9.99166 2.45765 9.99196 2.4575L9.75781 2.01571L9.52367 1.57392C9.22825 1.73049 9.04707 2.0132 9.00172 2.31299L9.49609 2.38778Z" fill="#FFB236"/>
</svg>
