<svg width="60" height="60" viewBox="0 0 60 60" fill="none" xmlns="http://www.w3.org/2000/svg">
<circle cx="30" cy="30" r="30" fill="#E5E8FF"/>
<rect width="43.6364" height="43.6364" transform="translate(7.27246 9.09082)" fill="#E5E8FF"/>
<path d="M35.4548 29.0912C35.4548 25.5766 32.6057 22.7275 29.0912 22.7275C25.5766 22.7275 22.7275 25.5766 22.7275 29.0912C22.7275 32.6057 25.5766 35.4548 29.0912 35.4548C32.6057 35.4548 35.4548 32.6057 35.4548 29.0912Z" stroke="#141B34" stroke-width="2.72727" stroke-linecap="round" stroke-linejoin="round"/>
<path d="M35.424 29.7268C36.0094 29.9043 36.6303 29.9997 37.2736 29.9997C40.7881 29.9997 43.6372 27.1506 43.6372 23.6361C43.6372 20.1216 40.7881 17.2725 37.2736 17.2725C33.9738 17.2725 31.2605 19.7841 30.9414 23" stroke="#141B34" stroke-width="2.72727" stroke-linecap="round" stroke-linejoin="round"/>
<path d="M27.2417 23C26.9226 19.7841 24.2094 17.2725 20.9095 17.2725C17.395 17.2725 14.5459 20.1216 14.5459 23.6361C14.5459 27.1506 17.395 29.9997 20.9095 29.9997C21.5528 29.9997 22.1738 29.9043 22.7591 29.7268" stroke="#141B34" stroke-width="2.72727" stroke-linecap="round" stroke-linejoin="round"/>
<path d="M47.2725 39.0909C47.2725 34.0702 42.7954 30 37.2725 30" stroke="#141B34" stroke-width="2.72727" stroke-linecap="round" stroke-linejoin="round"/>
<path d="M39.0908 44.545C39.0908 39.5243 34.6137 35.4541 29.0908 35.4541C23.568 35.4541 19.0908 39.5243 19.0908 44.545" stroke="#141B34" stroke-width="2.72727" stroke-linecap="round" stroke-linejoin="round"/>
<path d="M20.9092 30C15.3863 30 10.9092 34.0702 10.9092 39.0909" stroke="#141B34" stroke-width="2.72727" stroke-linecap="round" stroke-linejoin="round"/>
</svg>
