<svg width="55" height="54" viewBox="0 0 55 54" fill="none" xmlns="http://www.w3.org/2000/svg">
<circle cx="27.4995" cy="26.73" r="26.73" fill="#FFEBCC"/>
<path d="M28 31C29.0609 31 30.0783 30.5786 30.8284 29.8284C31.5786 29.0783 32 28.0609 32 27C32 25.9391 31.5786 24.9217 30.8284 24.1716C30.0783 23.4214 29.0609 23 28 23C26.9391 23 25.9217 23.4214 25.1716 24.1716C24.4214 24.9217 24 25.9391 24 27C24 28.0609 24.4214 29.0783 25.1716 29.8284C25.9217 30.5786 26.9391 31 28 31Z" fill="#808080"/>
<path fill-rule="evenodd" clip-rule="evenodd" d="M28 15C28.3536 15 28.6928 15.1405 28.9428 15.3905C29.1929 15.6406 29.3333 15.9797 29.3333 16.3333V17.76C31.3283 18.0475 33.1765 18.973 34.6018 20.3982C36.027 21.8235 36.9525 23.6717 37.24 25.6667H38.6667C39.0203 25.6667 39.3594 25.8071 39.6095 26.0572C39.8595 26.3072 40 26.6464 40 27C40 27.3536 39.8595 27.6928 39.6095 27.9428C39.3594 28.1929 39.0203 28.3333 38.6667 28.3333H37.24C36.9525 30.3283 36.027 32.1765 34.6018 33.6018C33.1765 35.027 31.3283 35.9525 29.3333 36.24V37.6667C29.3333 38.0203 29.1929 38.3594 28.9428 38.6095C28.6928 38.8595 28.3536 39 28 39C27.6464 39 27.3072 38.8595 27.0572 38.6095C26.8071 38.3594 26.6667 38.0203 26.6667 37.6667V36.24C24.6717 35.9525 22.8235 35.027 21.3982 33.6018C19.973 32.1765 19.0475 30.3283 18.76 28.3333H17.3333C16.9797 28.3333 16.6406 28.1929 16.3905 27.9428C16.1405 27.6928 16 27.3536 16 27C16 26.6464 16.1405 26.3072 16.3905 26.0572C16.6406 25.8071 16.9797 25.6667 17.3333 25.6667H18.76C19.0485 23.6721 19.9744 21.8244 21.3994 20.3994C22.8244 18.9744 24.6721 18.0485 26.6667 17.76V16.3333C26.6667 15.9797 26.8071 15.6406 27.0572 15.3905C27.3072 15.1405 27.6464 15 28 15ZM21.3333 27C21.3333 25.2319 22.0357 23.5362 23.286 22.286C24.5362 21.0357 26.2319 20.3333 28 20.3333C29.7681 20.3333 31.4638 21.0357 32.714 22.286C33.9643 23.5362 34.6667 25.2319 34.6667 27C34.6667 28.7681 33.9643 30.4638 32.714 31.714C31.4638 32.9643 29.7681 33.6667 28 33.6667C26.2319 33.6667 24.5362 32.9643 23.286 31.714C22.0357 30.4638 21.3333 28.7681 21.3333 27Z" fill="#808080"/>
</svg>
