<svg width="55" height="54" viewBox="0 0 55 54" fill="none" xmlns="http://www.w3.org/2000/svg">
<circle cx="27.3267" cy="26.73" r="26.73" fill="#FFEBCC"/>
<circle cx="27.6724" cy="26.73" r="26.73" fill="#FFEBCC"/>
<path fill-rule="evenodd" clip-rule="evenodd" d="M20.3538 20.2128C22.6692 20.2128 23.9698 18.9099 23.9698 16.5968C23.9698 14.2837 22.6669 12.9785 20.3538 12.9785C18.0406 12.9785 16.7355 14.2814 16.7355 16.5968C16.7355 18.9122 18.0383 20.2128 20.3538 20.2128ZM37.0852 22.0025C37.0942 22.2276 37.1474 22.4488 37.2419 22.6533C37.3364 22.8579 37.4702 23.0418 37.6358 23.1946C37.8013 23.3474 37.9954 23.4661 38.2068 23.544C38.4182 23.6218 38.6429 23.6572 38.868 23.6482C39.0932 23.6392 39.3143 23.586 39.5189 23.4915C39.7234 23.397 39.9073 23.2632 40.0601 23.0976C40.213 22.9321 40.3317 22.7381 40.4095 22.5266C40.4873 22.3152 40.5228 22.0905 40.5138 21.8654C40.4836 21.1252 40.4463 20.3854 40.4018 19.6459C40.3163 18.1633 39.6891 16.7637 38.6394 15.7132C37.5897 14.6626 36.1906 14.0343 34.708 13.9477C33.5667 13.8806 32.4338 13.8311 31.3092 13.7991C30.8545 13.7861 30.4133 13.9542 30.0826 14.2664C29.7519 14.5787 29.5588 15.0096 29.5458 15.4642C29.5327 15.9189 29.7008 16.3601 30.0131 16.6908C30.3254 17.0215 30.7562 17.2146 31.2109 17.2277C32.3004 17.2581 33.3983 17.3061 34.5046 17.3717C35.1496 17.4077 35.7588 17.68 36.2158 18.1366C36.6728 18.5932 36.9457 19.2021 36.9823 19.8471C37.025 20.5694 37.06 21.2878 37.0875 22.0025H37.0852ZM24.2738 40.8459C24.7225 40.8508 25.1553 40.6795 25.4791 40.3689C25.803 40.0582 25.9921 39.6329 26.0059 39.1843C26.0196 38.7358 25.8569 38.2997 25.5527 37.9698C25.2486 37.6398 24.8271 37.4423 24.3789 37.4197C23.3503 37.3892 22.3134 37.3427 21.268 37.2802C20.6227 37.2441 20.0132 36.9715 19.5561 36.5144C19.099 36.0574 18.8264 35.4479 18.7903 34.8025L18.7378 33.8334C18.7104 33.3825 18.5062 32.9606 18.1695 32.6594C17.8328 32.3583 17.3909 32.2022 16.9398 32.2251C16.4886 32.248 16.0647 32.448 15.7603 32.7817C15.4558 33.1154 15.2953 33.5557 15.3138 34.0071L15.3686 35.0059C15.4547 36.4886 16.0824 37.8879 17.1325 38.938C18.1827 39.9882 19.582 40.6159 21.0646 40.7019C22.1435 40.7675 23.2132 40.8155 24.2738 40.8459ZM35.5309 34.7317C38.5092 34.7317 40.5526 36.8117 40.9755 39.7099C41.0669 40.3339 40.5435 40.8482 39.9126 40.8482H31.1469C30.516 40.8482 29.9926 40.3339 30.084 39.7099C30.5069 36.8094 32.5503 34.7317 35.5309 34.7317ZM25.7983 26.7317C25.3778 23.8357 23.3343 21.7579 20.3538 21.7579C17.3732 21.7579 15.3298 23.8379 14.9069 26.7362C14.8155 27.3602 15.3389 27.8745 15.9698 27.8745H24.7378C25.3686 27.8745 25.8898 27.3602 25.7983 26.7362V26.7317ZM39.1469 29.5751C39.1469 31.8905 37.844 33.1934 35.5286 33.1934C33.2132 33.1934 31.9126 31.8905 31.9126 29.5751C31.9126 27.2597 33.2155 25.9568 35.5286 25.9568C37.8418 25.9568 39.1469 27.2597 39.1469 29.5751Z" fill="#666666"/>
<path fill-rule="evenodd" clip-rule="evenodd" d="M20.3538 20.2128C22.6692 20.2128 23.9698 18.9099 23.9698 16.5968C23.9698 14.2837 22.6669 12.9785 20.3538 12.9785C18.0406 12.9785 16.7355 14.2814 16.7355 16.5968C16.7355 18.9122 18.0383 20.2128 20.3538 20.2128ZM37.0852 22.0025C37.0942 22.2276 37.1474 22.4488 37.2419 22.6533C37.3364 22.8579 37.4702 23.0418 37.6358 23.1946C37.8013 23.3474 37.9954 23.4661 38.2068 23.544C38.4182 23.6218 38.6429 23.6572 38.868 23.6482C39.0932 23.6392 39.3143 23.586 39.5189 23.4915C39.7234 23.397 39.9073 23.2632 40.0601 23.0976C40.213 22.9321 40.3317 22.7381 40.4095 22.5266C40.4873 22.3152 40.5228 22.0905 40.5138 21.8654C40.4836 21.1252 40.4463 20.3854 40.4018 19.6459C40.3163 18.1633 39.6891 16.7637 38.6394 15.7132C37.5897 14.6626 36.1906 14.0343 34.708 13.9477C33.5667 13.8806 32.4338 13.8311 31.3092 13.7991C30.8545 13.7861 30.4133 13.9542 30.0826 14.2664C29.7519 14.5787 29.5588 15.0096 29.5458 15.4642C29.5327 15.9189 29.7008 16.3601 30.0131 16.6908C30.3254 17.0215 30.7562 17.2146 31.2109 17.2277C32.3004 17.2581 33.3983 17.3061 34.5046 17.3717C35.1496 17.4077 35.7588 17.68 36.2158 18.1366C36.6728 18.5932 36.9457 19.2021 36.9823 19.8471C37.025 20.5694 37.06 21.2878 37.0875 22.0025H37.0852ZM24.2738 40.8459C24.7225 40.8508 25.1553 40.6795 25.4791 40.3689C25.803 40.0582 25.9921 39.6329 26.0059 39.1843C26.0196 38.7358 25.8569 38.2997 25.5527 37.9698C25.2486 37.6398 24.8271 37.4423 24.3789 37.4197C23.3503 37.3892 22.3134 37.3427 21.268 37.2802C20.6227 37.2441 20.0132 36.9715 19.5561 36.5144C19.099 36.0574 18.8264 35.4479 18.7903 34.8025L18.7378 33.8334C18.7104 33.3825 18.5062 32.9606 18.1695 32.6594C17.8328 32.3583 17.3909 32.2022 16.9398 32.2251C16.4886 32.248 16.0647 32.448 15.7603 32.7817C15.4558 33.1154 15.2953 33.5557 15.3138 34.0071L15.3686 35.0059C15.4547 36.4886 16.0824 37.8879 17.1325 38.938C18.1827 39.9882 19.582 40.6159 21.0646 40.7019C22.1435 40.7675 23.2132 40.8155 24.2738 40.8459ZM35.5309 34.7317C38.5092 34.7317 40.5526 36.8117 40.9755 39.7099C41.0669 40.3339 40.5435 40.8482 39.9126 40.8482H31.1469C30.516 40.8482 29.9926 40.3339 30.084 39.7099C30.5069 36.8094 32.5503 34.7317 35.5309 34.7317ZM25.7983 26.7317C25.3778 23.8357 23.3343 21.7579 20.3538 21.7579C17.3732 21.7579 15.3298 23.8379 14.9069 26.7362C14.8155 27.3602 15.3389 27.8745 15.9698 27.8745H24.7378C25.3686 27.8745 25.8898 27.3602 25.7983 26.7362V26.7317ZM39.1469 29.5751C39.1469 31.8905 37.844 33.1934 35.5286 33.1934C33.2132 33.1934 31.9126 31.8905 31.9126 29.5751C31.9126 27.2597 33.2155 25.9568 35.5286 25.9568C37.8418 25.9568 39.1469 27.2597 39.1469 29.5751Z" fill="#666666"/>
</svg>
