<svg width="55" height="54" viewBox="0 0 55 54" fill="none" xmlns="http://www.w3.org/2000/svg">
<circle cx="27.4995" cy="26.73" r="26.73" fill="#FFEBCC"/>
<path d="M39.1729 22.4275L37.5329 24.8941C38.3238 26.4716 38.711 28.2206 38.6598 29.9844C38.6086 31.7483 38.1206 33.4719 37.2396 35.0008H18.7596C17.6145 33.0143 17.14 30.7116 17.4064 28.4342C17.6729 26.1568 18.6661 24.0259 20.2389 22.3574C21.8116 20.6889 23.8802 19.5715 26.1379 19.1711C28.3956 18.7706 30.7222 19.1083 32.7729 20.1341L35.2396 18.4941C32.7282 16.8838 29.7493 16.1622 26.7794 16.4447C23.8095 16.7273 21.0202 17.9977 18.8576 20.0528C16.695 22.1079 15.2841 24.8289 14.8505 27.7806C14.417 30.7322 14.9859 33.744 16.4662 36.3341C16.6989 36.7372 17.033 37.0723 17.4354 37.3062C17.8377 37.5401 18.2942 37.6647 18.7596 37.6675H37.2262C37.6961 37.6693 38.1582 37.547 38.5656 37.3129C38.973 37.0787 39.3113 36.7411 39.5462 36.3341C40.7747 34.206 41.3913 31.7798 41.3277 29.3234C41.2642 26.867 40.5231 24.4759 39.1862 22.4141L39.1729 22.4275Z" fill="#808080"/>
<path d="M26.12 31.5466C26.3677 31.7945 26.6618 31.9912 26.9855 32.1254C27.3092 32.2596 27.6562 32.3287 28.0067 32.3287C28.3571 32.3287 28.7041 32.2596 29.0278 32.1254C29.3516 31.9912 29.6457 31.7945 29.8933 31.5466L37.44 20.2266L26.12 27.7732C25.8721 28.0209 25.6754 28.315 25.5412 28.6387C25.407 28.9624 25.3379 29.3095 25.3379 29.6599C25.3379 30.0103 25.407 30.3573 25.5412 30.6811C25.6754 31.0048 25.8721 31.2989 26.12 31.5466Z" fill="#808080"/>
</svg>
