<svg width="55" height="54" viewBox="0 0 55 54" fill="none" xmlns="http://www.w3.org/2000/svg">
<circle cx="27.4995" cy="26.73" r="26.73" fill="#FFEBCC"/>
<path d="M27.7695 39C29.3454 39 30.9058 38.6896 32.3617 38.0866C33.8176 37.4835 35.1405 36.5996 36.2548 35.4853C37.3691 34.371 38.253 33.0481 38.8561 31.5922C39.4591 30.1363 39.7695 28.5759 39.7695 27C39.7695 25.4241 39.4591 23.8637 38.8561 22.4078C38.253 20.9519 37.3691 19.629 36.2548 18.5147C35.1405 17.4004 33.8176 16.5165 32.3617 15.9134C30.9058 15.3104 29.3454 15 27.7695 15M27.7695 39C26.1937 39 24.6332 38.6896 23.1773 38.0866C21.7214 37.4835 20.3986 36.5996 19.2843 35.4853C18.1699 34.371 17.286 33.0481 16.683 31.5922C16.0799 30.1363 15.7695 28.5759 15.7695 27C15.7695 25.4241 16.0799 23.8637 16.683 22.4078C17.286 20.9519 18.1699 19.629 19.2843 18.5147C20.3986 17.4004 21.7214 16.5165 23.1773 15.9134C24.6332 15.3104 26.1937 15 27.7695 15M27.7695 39C31.4509 39 33.0242 32.116 33.0242 27C33.0242 21.884 31.4509 15 27.7695 15M27.7695 39C24.0882 39 22.5149 32.116 22.5149 27C22.5149 21.884 24.0882 15 27.7695 15M16.4362 23H39.1029M16.4362 31H39.1029" stroke="#666666" stroke-width="1.5" stroke-linecap="round" stroke-linejoin="round"/>
</svg>
