<svg width="44" height="45" viewBox="0 0 44 45" fill="none" xmlns="http://www.w3.org/2000/svg">
<g clip-path="url(#clip0_2354_7740)">
<path d="M21.825 0.728516C12.7636 0.728516 10.1189 0.736992 9.6018 0.779375C7.73695 0.931953 6.58414 1.22863 5.32113 1.8559C4.3548 2.33906 3.58344 2.89004 2.82902 3.67836C1.45582 5.1109 0.616641 6.86555 0.319961 8.95926C0.175859 9.97645 0.133477 10.1799 0.125 15.3675V22.42C0.125 31.473 0.133477 34.1177 0.175859 34.6348C0.328438 36.4403 0.608164 37.5846 1.21 38.8307C2.35434 41.2126 4.54977 43.0011 7.13512 43.6708C8.03363 43.8997 9.01691 44.0268 10.2884 44.0861C10.8224 44.1116 16.3068 44.1285 21.7826 44.1285C27.2585 44.1285 32.7428 44.12 33.2684 44.0946C34.7348 44.0268 35.5909 43.9081 36.5318 43.6708C39.1341 43.0011 41.2872 41.238 42.457 38.8222C43.0503 37.61 43.347 36.4233 43.4826 34.7111C43.508 34.3381 43.525 28.3791 43.525 22.4285C43.525 16.478 43.508 10.5274 43.4826 10.1545C43.347 8.40828 43.0503 7.23852 42.44 6.00094C41.9399 4.98375 41.3889 4.22934 40.5836 3.45797C39.1511 2.08477 37.3964 1.25406 35.3027 0.948906C34.2855 0.804805 34.0906 0.762422 28.9029 0.753945H21.825V0.728516Z" fill="url(#paint0_radial_2354_7740)"/>
<path d="M21.825 0.728516C12.7636 0.728516 10.1189 0.736992 9.6018 0.779375C7.73695 0.931953 6.58414 1.22863 5.32113 1.8559C4.3548 2.33906 3.58344 2.89004 2.82902 3.67836C1.45582 5.1109 0.616641 6.86555 0.319961 8.95926C0.175859 9.97645 0.133477 10.1799 0.125 15.3675V22.42C0.125 31.473 0.133477 34.1177 0.175859 34.6348C0.328438 36.4403 0.608164 37.5846 1.21 38.8307C2.35434 41.2126 4.54977 43.0011 7.13512 43.6708C8.03363 43.8997 9.01691 44.0268 10.2884 44.0861C10.8224 44.1116 16.3068 44.1285 21.7826 44.1285C27.2585 44.1285 32.7428 44.12 33.2684 44.0946C34.7348 44.0268 35.5909 43.9081 36.5318 43.6708C39.1341 43.0011 41.2872 41.238 42.457 38.8222C43.0503 37.61 43.347 36.4233 43.4826 34.7111C43.508 34.3381 43.525 28.3791 43.525 22.4285C43.525 16.478 43.508 10.5274 43.4826 10.1545C43.347 8.40828 43.0503 7.23852 42.44 6.00094C41.9399 4.98375 41.3889 4.22934 40.5836 3.45797C39.1511 2.08477 37.3964 1.25406 35.3027 0.948906C34.2855 0.804805 34.0906 0.762422 28.9029 0.753945H21.825V0.728516Z" fill="url(#paint1_radial_2354_7740)"/>
<path d="M21.8156 6.39844C17.4671 6.39844 16.9162 6.41539 15.2124 6.49168C13.5086 6.56797 12.3388 6.83922 11.3216 7.23762C10.2705 7.64449 9.37203 8.19547 8.48199 9.08551C7.59195 9.97555 7.04098 10.8741 6.6341 11.9252C6.2357 12.9423 5.96445 14.1121 5.88816 15.8159C5.81187 17.5282 5.79492 18.0707 5.79492 22.4191C5.79492 26.7676 5.81187 27.3186 5.88816 29.0224C5.96445 30.7262 6.2357 31.8959 6.6341 32.9131C7.04098 33.9642 7.59195 34.8627 8.48199 35.7528C9.37203 36.6428 10.2621 37.1938 11.3216 37.6007C12.3388 37.9991 13.5086 38.2703 15.2124 38.3466C16.9246 38.4229 17.4671 38.4398 21.8156 38.4398C26.1641 38.4398 26.7151 38.4229 28.4189 38.3466C30.1227 38.2703 31.2924 37.9991 32.3096 37.6007C33.3607 37.1938 34.2592 36.6428 35.1493 35.7528C36.0393 34.8627 36.5903 33.9642 36.9971 32.9131C37.3871 31.8959 37.6583 30.7262 37.7431 29.0224C37.8194 27.3101 37.8363 26.7676 37.8363 22.4191C37.8363 18.0707 37.8194 17.5197 37.7431 15.8159C37.6668 14.1121 37.3955 12.9423 36.9971 11.9252C36.5903 10.8741 36.0393 9.97555 35.1493 9.08551C34.2592 8.19547 33.3692 7.64449 32.3096 7.23762C31.2924 6.83922 30.1227 6.56797 28.4189 6.49168C26.7066 6.41539 26.1641 6.39844 21.8156 6.39844ZM20.3746 9.28894H21.8156C26.0963 9.28894 26.5964 9.3059 28.2917 9.38219C29.8514 9.45 30.6991 9.71277 31.267 9.93316C32.0129 10.2214 32.547 10.5689 33.1064 11.1284C33.6659 11.6878 34.0134 12.2218 34.3016 12.9678C34.522 13.5357 34.7848 14.3834 34.8526 15.943C34.9289 17.6299 34.9458 18.1385 34.9458 22.4191C34.9458 26.6998 34.9289 27.1999 34.8526 28.8952C34.7848 30.4549 34.522 31.3026 34.3016 31.8705C34.0134 32.6164 33.6659 33.1505 33.1064 33.7099C32.547 34.2694 32.0129 34.6169 31.267 34.9051C30.6991 35.1255 29.8514 35.3883 28.2917 35.4561C26.6049 35.5324 26.0963 35.5493 21.8156 35.5493C17.535 35.5493 17.0264 35.5324 15.3395 35.4561C13.7798 35.3798 12.9322 35.1255 12.3643 34.9051C11.6183 34.6169 11.0843 34.2694 10.5248 33.7099C9.96539 33.1505 9.61785 32.6164 9.32965 31.8705C9.10926 31.3026 8.84648 30.4549 8.77867 28.8952C8.70238 27.2084 8.68543 26.6998 8.68543 22.4191C8.68543 18.1385 8.70238 17.6384 8.77867 15.943C8.84648 14.3834 9.10926 13.5357 9.32965 12.9678C9.61785 12.2218 9.96539 11.6878 10.5248 11.1284C11.0843 10.5689 11.6183 10.2214 12.3643 9.93316C12.9322 9.71277 13.7798 9.45 15.3395 9.38219C16.8145 9.3059 17.3909 9.28894 20.3746 9.28894ZM30.3685 11.9506C29.3089 11.9506 28.4443 12.8067 28.4443 13.8748C28.4443 14.9343 29.3089 15.7989 30.3685 15.7989C31.428 15.7989 32.2927 14.9343 32.2927 13.8748C32.2927 12.8152 31.428 11.9421 30.3685 11.9506ZM21.8156 14.1969C17.2722 14.1969 13.5849 17.8842 13.5849 22.4276C13.5849 26.9711 17.2722 30.6499 21.8156 30.6499C26.3591 30.6499 30.0379 26.9711 30.0379 22.4276C30.0379 17.8842 26.3591 14.1969 21.8156 14.1969ZM21.8156 17.0789C24.7655 17.0789 27.1559 19.4693 27.1559 22.4191C27.1559 25.369 24.7655 27.7594 21.8156 27.7594C18.8658 27.7594 16.4754 25.369 16.4754 22.4191C16.4754 19.4693 18.8658 17.0789 21.8156 17.0789Z" fill="white"/>
</g>
<defs>
<radialGradient id="paint0_radial_2354_7740" cx="0" cy="0" r="1" gradientUnits="userSpaceOnUse" gradientTransform="translate(11.6448 47.4562) rotate(-90) scale(43.0013 40.0051)">
<stop stop-color="#FFDD55"/>
<stop offset="0.1" stop-color="#FFDD55"/>
<stop offset="0.5" stop-color="#FF543E"/>
<stop offset="1" stop-color="#C837AB"/>
</radialGradient>
<radialGradient id="paint1_radial_2354_7740" cx="0" cy="0" r="1" gradientTransform="matrix(3.77292 18.8473 77.7105 -15.5603 -7.15412 3.85085)" gradientUnits="userSpaceOnUse">
<stop stop-color="#3771C8"/>
<stop offset="0.128" stop-color="#3771C8"/>
<stop offset="1" stop-color="#6600FF" stop-opacity="0"/>
</radialGradient>
<clipPath id="clip0_2354_7740">
<rect width="43.4" height="43.4" fill="white" transform="translate(0.115234 0.720703)"/>
</clipPath>
</defs>
</svg>
