<svg width="44" height="45" viewBox="0 0 44 45" fill="none" xmlns="http://www.w3.org/2000/svg">
<path d="M37.4652 37.7003H31.0347V27.6296C31.0347 25.2281 30.9918 22.1367 27.6901 22.1367C24.3409 22.1367 23.8285 24.7532 23.8285 27.4547V37.6996H17.3979V16.9902H23.5712V19.8203H23.6576C24.9164 17.668 27.2569 16.3826 29.7486 16.475C36.2662 16.475 37.4679 20.7622 37.4679 26.3394L37.4652 37.7003ZM10.1422 14.1593C8.08119 14.1597 6.41015 12.4892 6.40978 10.4282C6.40941 8.3672 8.07985 6.69612 10.1408 6.69575C12.2018 6.69538 13.8728 8.36586 13.8732 10.4269C13.8734 11.4166 13.4804 12.3659 12.7807 13.0658C12.081 13.7658 11.1319 14.1592 10.1422 14.1593ZM13.3574 37.7003H6.9202V16.9902H13.3574V37.7003ZM40.6711 0.723939H3.68886C1.94101 0.704214 0.50766 2.10431 0.486328 3.85219V40.9886C0.506929 42.7373 1.94016 44.1388 3.68886 44.1205H40.6711C42.4232 44.1422 43.8621 42.7408 43.8863 40.9886V3.84951C43.8613 2.09818 42.4224 0.698162 40.6711 0.720978" fill="#0A66C2"/>
</svg>
