<svg width="14" height="15" viewBox="0 0 14 15" fill="none" xmlns="http://www.w3.org/2000/svg">
<path d="M11.6666 9.25C11.6666 10.3372 11.6666 10.8808 11.489 11.3096C11.2522 11.8813 10.7979 12.3355 10.2262 12.5724C9.79741 12.75 9.2538 12.75 8.16664 12.75H6.41664C4.21677 12.75 3.11681 12.75 2.43339 12.0666C1.74997 11.3831 1.74998 10.2832 1.75 8.08327L1.75004 4.58323C1.75005 3.29462 2.79468 2.25 4.08329 2.25" stroke="#CCD2FF" stroke-width="1.5" stroke-linecap="round" stroke-linejoin="round"/>
<path d="M5.83298 5.45898L6.08598 7.77418C6.11013 7.96773 6.22907 8.13643 6.40827 8.21343C6.80843 8.38528 7.5579 8.66732 8.16632 8.66732C8.77479 8.66732 9.52426 8.38528 9.92443 8.21343C10.1036 8.13643 10.2226 7.96773 10.2467 7.77418L10.4997 5.45898M11.958 4.87565V7.07435M8.16632 2.83398L4.08301 4.58398L8.16632 6.33398L12.2497 4.58398L8.16632 2.83398Z" stroke="#CCD2FF" stroke-width="1.5" stroke-linecap="round" stroke-linejoin="round"/>
</svg>
