<svg width="35" height="35" viewBox="0 0 35 35" fill="none" xmlns="http://www.w3.org/2000/svg">
<circle cx="17.5" cy="17.6871" r="16.8179" fill="#D8DCFF"/>
<rect width="18.6866" height="18.6866" transform="translate(8.15576 8.34375)" fill="#D8DCFF"/>
<path d="M11.2701 10.6797H10.4915C10.0615 10.6797 9.71289 11.0283 9.71289 11.4583V22.3588L10.8808 24.6946L12.0487 22.3588V11.4583C12.0487 11.0283 11.7001 10.6797 11.2701 10.6797Z" stroke="#000C66" stroke-width="1.40149" stroke-linejoin="round"/>
<path d="M24.5057 17.6882V14.5733C24.5057 12.7378 24.5057 11.8201 23.9356 11.2499C23.3654 10.6797 22.4478 10.6797 20.6126 10.6797H18.2768C16.4416 10.6797 15.524 10.6797 14.9539 11.2499C14.3838 11.8201 14.3838 12.7378 14.3838 14.5733V20.8031C14.3838 22.6385 14.3838 23.5562 14.9539 24.1265C15.437 24.6096 16.1694 24.6833 17.4982 24.6946" stroke="#000C66" stroke-width="1.40149" stroke-linecap="round" stroke-linejoin="round"/>
<path d="M17.5015 13.7949H21.3945" stroke="#000C66" stroke-width="1.40149" stroke-linecap="round" stroke-linejoin="round"/>
<path d="M17.5015 16.9082H21.3945" stroke="#000C66" stroke-width="1.40149" stroke-linecap="round" stroke-linejoin="round"/>
<path d="M19.0566 23.1379C19.0566 23.1379 20.2246 23.5272 21.0032 24.6951C21.0032 24.6951 22.1711 21.5807 25.2855 20.0234" stroke="#000C66" stroke-width="1.40149" stroke-linecap="round" stroke-linejoin="round"/>
<path d="M9.71289 13.7949H12.0487" stroke="#000C66" stroke-width="1.40149" stroke-linecap="round" stroke-linejoin="round"/>
</svg>
