<svg width="35" height="35" viewBox="0 0 35 35" fill="none" xmlns="http://www.w3.org/2000/svg">
<circle cx="17.4996" cy="17.6871" r="16.8179" fill="#D1FFDE"/>
<rect width="18.6866" height="18.6866" transform="translate(8.15723 8.34375)" fill="#D1FFDE"/>
<path d="M20.2259 13.7949H14.7757M17.8893 16.9093H14.7749" stroke="#000C66" stroke-width="1.40149" stroke-linecap="round" stroke-linejoin="round"/>
<path d="M23.7287 25.4725H12.8282C11.9682 25.4725 11.271 24.7754 11.271 23.9153M11.271 23.9153C11.271 23.0553 11.9682 22.3581 12.8282 22.3581H23.7287V13.0148C23.7287 11.5467 23.7287 10.8126 23.2726 10.3565C22.8165 9.90039 22.0824 9.90039 20.6143 9.90039H15.9426C13.7404 9.90039 12.6393 9.90039 11.9551 10.5845C11.271 11.2687 11.271 12.3698 11.271 14.572V23.9153Z" stroke="#000C66" stroke-width="1.40149" stroke-linecap="round" stroke-linejoin="round"/>
<path d="M23.3401 22.3594C23.3401 22.3594 22.5615 22.9533 22.5615 23.9166C22.5615 24.8799 23.3401 25.4738 23.3401 25.4738" stroke="#000C66" stroke-width="1.40149" stroke-linecap="round" stroke-linejoin="round"/>
</svg>
