<svg width="16" height="16" viewBox="0 0 16 16" fill="none" xmlns="http://www.w3.org/2000/svg">
<path d="M3.05079 12.3807C3.19472 13.4497 4.08012 14.2871 5.15758 14.3367C6.06421 14.3783 6.98519 14.4001 7.99939 14.4001C9.0136 14.4001 9.93456 14.3783 10.8412 14.3367C11.9187 14.2871 12.8041 13.4497 12.948 12.3807C13.042 11.6831 13.1194 10.9681 13.1194 10.2401C13.1194 9.51201 13.042 8.79707 12.948 8.09947C12.8041 7.03048 11.9187 6.19303 10.8412 6.1435C9.93456 6.10182 9.0136 6.08008 7.99939 6.08008C6.98519 6.08008 6.06421 6.10182 5.15758 6.1435C4.08012 6.19303 3.19472 7.03048 3.05079 8.09947C2.95686 8.79707 2.87939 9.51201 2.87939 10.2401C2.87939 10.9681 2.95686 11.6831 3.05079 12.3807Z" stroke="#B3B3B3" stroke-width="0.96"/>
<path d="M5.12012 6.07961V4.47961C5.12012 2.88903 6.40954 1.59961 8.00012 1.59961C9.59071 1.59961 10.8801 2.88903 10.8801 4.47961V6.07961" stroke="#B3B3B3" stroke-width="0.96" stroke-linecap="round" stroke-linejoin="round"/>
<path d="M7.99658 10.2402H8.00234" stroke="#B3B3B3" stroke-width="1.28" stroke-linecap="round" stroke-linejoin="round"/>
</svg>
