<svg width="34" height="34" viewBox="0 0 34 34" fill="none" xmlns="http://www.w3.org/2000/svg">
<circle cx="17.1172" cy="16.8179" r="16.8179" fill="#F7FF8D"/>
<rect width="18.6866" height="18.6866" transform="translate(7.7749 7.47461)" fill="#F7FF8D"/>
<path d="M9.33008 12.925C9.33008 11.8348 9.33008 11.2897 9.54223 10.8734C9.72886 10.5071 10.0266 10.2093 10.3929 10.0227C10.8093 9.81055 11.3544 9.81055 12.4445 9.81055C13.5347 9.81055 14.0797 9.81055 14.4961 10.0227C14.8624 10.2093 15.1602 10.5071 15.3468 10.8734C15.5589 11.2897 15.5589 11.8348 15.5589 12.925V20.711C15.5589 21.8012 15.5589 22.3463 15.3468 22.7627C15.1602 23.1289 14.8624 23.4267 14.4961 23.6133C14.0797 23.8255 13.5347 23.8255 12.4445 23.8255C11.3544 23.8255 10.8093 23.8255 10.3929 23.6133C10.0266 23.4267 9.72886 23.1289 9.54223 22.7627C9.33008 22.3463 9.33008 21.8012 9.33008 20.711V12.925Z" stroke="#000C66" stroke-width="1.40149" stroke-linecap="round" stroke-linejoin="round"/>
<path d="M12.4458 20.7109H12.4533" stroke="#000C66" stroke-width="1.86866" stroke-linecap="round" stroke-linejoin="round"/>
<path d="M9.33008 12.9258H15.5589" stroke="#000C66" stroke-width="1.40149" stroke-linecap="round" stroke-linejoin="round"/>
<path d="M16.6867 13.9126C16.4103 12.877 16.2722 12.3592 16.3674 11.9097C16.4511 11.5142 16.6572 11.1556 16.9565 10.8851C17.2966 10.5775 17.8122 10.4388 18.8435 10.1613C19.8748 9.88383 20.3904 9.74509 20.8381 9.84064C21.2319 9.92469 21.589 10.1318 21.8584 10.4322C22.1646 10.7737 22.3028 11.2915 22.5792 12.3271L24.5528 19.7235C24.8291 20.759 24.9672 21.2768 24.8721 21.7263C24.7884 22.1218 24.5822 22.4804 24.283 22.751C23.9429 23.0585 23.4272 23.1972 22.396 23.4747C21.3647 23.7522 20.849 23.891 20.4014 23.7954C20.0076 23.7113 19.6504 23.5042 19.381 23.2038C19.0748 22.8623 18.9366 22.3445 18.6603 21.3089L16.6867 13.9126Z" stroke="#000C66" stroke-width="1.40149" stroke-linecap="round" stroke-linejoin="round"/>
<path d="M21.6196 20.4746L21.6269 20.4727" stroke="#000C66" stroke-width="1.86866" stroke-linecap="round" stroke-linejoin="round"/>
<path d="M17.1167 13.7038L22.1777 12.1465" stroke="#000C66" stroke-width="1.40149" stroke-linecap="round" stroke-linejoin="round"/>
</svg>
