<svg width="14" height="15" viewBox="0 0 14 15" fill="none" xmlns="http://www.w3.org/2000/svg">
<path d="M2.46231 13.3297V11.259C2.46231 10.5173 2.26809 10.1318 1.88633 9.48723C1.42869 8.71461 1.16602 7.81289 1.16602 6.84987C1.16602 3.9869 3.4875 1.66602 6.35121 1.66602C9.21491 1.66602 11.5364 3.9869 11.5364 6.84987C11.5364 7.18802 11.5364 7.35713 11.5505 7.45192C11.5842 7.67855 11.69 7.8735 11.794 8.07527L12.8327 10.0898L12.0164 10.4978C11.7798 10.616 11.6615 10.6752 11.5791 10.7843C11.4967 10.8934 11.4735 11.0166 11.4271 11.263L11.4225 11.287C11.3162 11.8514 11.1989 12.4744 10.8685 12.8674C10.7519 13.0062 10.6074 13.1189 10.4445 13.1985C10.1754 13.3296 9.84467 13.3297 9.18317 13.3297C8.8771 13.3297 8.57015 13.3367 8.26413 13.3293C7.53876 13.3116 6.99935 12.7017 6.99935 11.9936" stroke="#CCD2FF" stroke-width="1.2973" stroke-linecap="round" stroke-linejoin="round"/>
<path d="M8.39235 6.64272C8.14367 6.64272 7.91687 6.54863 7.74508 6.39381M8.39235 6.64272C8.39235 7.31116 8.00507 7.94606 7.25957 7.94606C6.51407 7.94606 6.12686 8.58091 6.12686 9.24935M8.39235 6.64272C9.6461 6.64272 9.6461 4.68778 8.39235 4.68778C8.27842 4.68778 8.1691 4.70753 8.06755 4.74382C8.1288 3.28663 6.02804 2.89101 5.55223 4.25612M5.55223 4.25612C5.89877 4.48999 6.12686 4.8879 6.12686 5.33943M5.55223 4.25612C4.47201 3.52705 3.032 4.83532 3.71707 6.0018C2.56733 6.17417 2.69026 7.94606 3.86131 7.94606C4.18969 7.94606 4.47999 7.78191 4.65571 7.53073" stroke="#CCD2FF" stroke-width="1.2973" stroke-linecap="round" stroke-linejoin="round"/>
</svg>
