<svg width="14" height="14" viewBox="0 0 14 14" fill="none" xmlns="http://www.w3.org/2000/svg">
<path d="M2.4628 12.8297V10.759C2.4628 10.0173 2.26858 9.63182 1.88682 8.98723C1.42918 8.21461 1.1665 7.31289 1.1665 6.34987C1.1665 3.4869 3.48799 1.16602 6.3517 1.16602C9.2154 1.16602 11.5369 3.4869 11.5369 6.34987C11.5369 6.68802 11.5369 6.85713 11.551 6.95192C11.5847 7.17855 11.6905 7.3735 11.7945 7.57527L12.8332 9.58976L12.0169 9.9978C11.7803 10.116 11.662 10.1752 11.5796 10.2843C11.4972 10.3934 11.474 10.5166 11.4276 10.763L11.423 10.787C11.3167 11.3514 11.1994 11.9744 10.869 12.3674C10.7524 12.5062 10.6079 12.6189 10.4449 12.6985C10.1759 12.8296 9.84516 12.8297 9.18366 12.8297C8.87759 12.8297 8.57064 12.8367 8.26462 12.8293C7.53925 12.8116 6.99984 12.2017 6.99984 11.4936" stroke="#CCD2FF" stroke-width="1.2973" stroke-linecap="round" stroke-linejoin="round"/>
<path d="M8.39283 6.14272C8.14416 6.14272 7.91736 6.04863 7.74557 5.89381M8.39283 6.14272C8.39283 6.81116 8.00556 7.44606 7.26006 7.44606C6.51456 7.44606 6.12734 8.08091 6.12734 8.74935M8.39283 6.14272C9.64659 6.14272 9.64659 4.18778 8.39283 4.18778C8.27891 4.18778 8.16959 4.20753 8.06803 4.24382C8.12928 2.78663 6.02853 2.39101 5.55272 3.75612M5.55272 3.75612C5.89926 3.98999 6.12734 4.3879 6.12734 4.83943M5.55272 3.75612C4.4725 3.02705 3.03249 4.33532 3.71756 5.5018C2.56782 5.67417 2.69075 7.44606 3.86179 7.44606C4.19018 7.44606 4.48048 7.28191 4.6562 7.03073" stroke="#CCD2FF" stroke-width="1.2973" stroke-linecap="round" stroke-linejoin="round"/>
</svg>
