<svg width="36" height="36" viewBox="0 0 36 36" fill="none" xmlns="http://www.w3.org/2000/svg">
<g clip-path="url(#clip0_1015_2630)">
<path d="M31.9422 13.3555L24.5534 10.8076C23.938 10.5952 23.2856 10.5112 22.6364 10.5609C21.9873 10.6106 21.3553 10.7929 20.7794 11.0965C20.513 10.5025 20.1277 9.96936 19.6471 9.53012C19.1666 9.09089 18.6011 8.75487 17.9855 8.54283L10.5967 5.99496C10.2701 5.88234 9.91213 5.90407 9.60155 6.05538C9.29097 6.20669 9.05321 6.47518 8.94059 6.80179L3.84484 21.5795C3.73222 21.9061 3.75395 22.264 3.90526 22.5746C4.05657 22.8852 4.32506 23.123 4.65167 23.2356L12.0405 25.7834C12.5848 25.9712 13.0323 26.3674 13.2845 26.8851C13.5367 27.4027 13.5729 27.9993 13.3852 28.5436C13.2726 28.8703 13.2943 29.2282 13.4456 29.5388C13.5969 29.8494 13.8654 30.0871 14.192 30.1998C14.5186 30.3124 14.8766 30.2907 15.1872 30.1393C15.4978 29.988 15.7355 29.7195 15.8482 29.3929C16.0359 28.8486 16.4321 28.4011 16.9498 28.1489C17.4674 27.8967 18.064 27.8605 18.6084 28.0482L25.9972 30.5961C26.3238 30.7087 26.6818 30.687 26.9924 30.5357C27.3029 30.3844 27.5407 30.1159 27.6533 29.7893L32.7491 15.0116C32.8617 14.685 32.8399 14.327 32.6886 14.0164C32.5373 13.7059 32.2688 13.4681 31.9422 13.3555ZM12.8898 23.3205L6.73243 21.1973L10.9789 8.88255L17.1363 11.0058C17.6806 11.1935 18.1281 11.5897 18.3803 12.1074C18.6324 12.625 18.6687 13.2216 18.481 13.766L14.772 24.5219C14.2489 23.9776 13.6037 23.5658 12.8898 23.3205ZM25.615 27.7085L19.4576 25.5853C18.744 25.3387 17.9817 25.266 17.2343 25.3732L20.9439 14.6153C21.1316 14.0709 21.5279 13.6234 22.0455 13.3713C22.5631 13.1191 23.1598 13.0829 23.7041 13.2706L29.8615 15.3938L25.615 27.7085Z" fill="#FF9D00"/>
</g>
<defs>
<clipPath id="clip0_1015_2630">
<rect width="27.7895" height="27.7895" fill="white" transform="translate(9.69141 0.630859) rotate(19.0256)"/>
</clipPath>
</defs>
</svg>
