<svg width="28" height="28" viewBox="0 0 28 28" fill="none" xmlns="http://www.w3.org/2000/svg">
<path d="M23.5527 2.27734H4.44742C3.87162 2.27734 3.31941 2.50608 2.91225 2.91323C2.5051 3.32038 2.27637 3.8726 2.27637 4.4484V23.5537C2.27637 24.1295 2.5051 24.6817 2.91225 25.0888C3.31941 25.496 3.87162 25.7247 4.44742 25.7247H23.5527C24.1285 25.7247 24.6807 25.496 25.0879 25.0888C25.495 24.6817 25.7237 24.1295 25.7237 23.5537V4.4484C25.7237 3.8726 25.495 3.32038 25.0879 2.91323C24.6807 2.50608 24.1285 2.27734 23.5527 2.27734ZM23.1185 23.1194H4.88163V4.88261H23.1185V23.1194ZM12.2632 19.2116V13.1326C12.2635 12.8619 12.3481 12.598 12.5052 12.3776C12.6624 12.1572 12.8843 11.9912 13.1402 11.9027C13.396 11.8143 13.673 11.8077 13.9328 11.884C14.1925 11.9602 14.4221 12.1155 14.5895 12.3282C15.2511 11.9814 15.991 11.8112 16.7377 11.834C17.4844 11.8567 18.2125 12.0718 18.8518 12.4583C19.4911 12.8447 20.0198 13.3896 20.3869 14.0402C20.754 14.6908 20.9471 15.4251 20.9474 16.1721V19.2116C20.9474 19.557 20.8102 19.8884 20.5659 20.1327C20.3216 20.3769 19.9903 20.5142 19.6448 20.5142C19.2993 20.5142 18.968 20.3769 18.7237 20.1327C18.4794 19.8884 18.3422 19.557 18.3422 19.2116V16.1721C18.3422 15.7114 18.1592 15.2697 17.8334 14.9439C17.5077 14.6182 17.066 14.4352 16.6053 14.4352C16.1447 14.4352 15.7029 14.6182 15.3772 14.9439C15.0515 15.2697 14.8685 15.7114 14.8685 16.1721V19.2116C14.8685 19.557 14.7312 19.8884 14.4869 20.1327C14.2426 20.3769 13.9113 20.5142 13.5658 20.5142C13.2204 20.5142 12.889 20.3769 12.6447 20.1327C12.4005 19.8884 12.2632 19.557 12.2632 19.2116ZM10.5264 13.1326V19.2116C10.5264 19.557 10.3891 19.8884 10.1448 20.1327C9.90054 20.3769 9.56922 20.5142 9.22374 20.5142C8.87826 20.5142 8.54693 20.3769 8.30264 20.1327C8.05835 19.8884 7.9211 19.557 7.9211 19.2116V13.1326C7.9211 12.7871 8.05835 12.4558 8.30264 12.2115C8.54693 11.9672 8.87826 11.83 9.22374 11.83C9.56922 11.83 9.90054 11.9672 10.1448 12.2115C10.3891 12.4558 10.5264 12.7871 10.5264 13.1326ZM7.48689 8.7905C7.48689 8.44699 7.58876 8.11119 7.7796 7.82556C7.97045 7.53994 8.24171 7.31733 8.55908 7.18587C8.87644 7.05441 9.22566 7.02002 9.56258 7.08703C9.89949 7.15405 10.209 7.31947 10.4519 7.56237C10.6948 7.80527 10.8602 8.11475 10.9272 8.45166C10.9942 8.78858 10.9598 9.1378 10.8284 9.45516C10.6969 9.77253 10.4743 10.0438 10.1887 10.2346C9.90305 10.4255 9.56725 10.5273 9.22374 10.5273C8.7631 10.5273 8.32132 10.3444 7.9956 10.0186C7.66988 9.69291 7.48689 9.25114 7.48689 8.7905Z" fill="#FF9D00"/>
</svg>
