<svg width="28" height="29" viewBox="0 0 28 29" fill="none" xmlns="http://www.w3.org/2000/svg">
<path d="M12.8495 25.1055H11.2272C7.07588 25.1055 5.00021 25.1055 3.71055 23.7915C2.4209 22.4772 2.4209 20.3621 2.4209 16.1319C2.4209 11.9017 2.4209 9.78653 3.71055 8.47237C5.00021 7.1582 7.07588 7.1582 11.2272 7.1582H15.6304C19.7817 7.1582 21.8574 7.1582 23.1471 8.47237C24.1393 9.48348 24.3681 10.9687 24.4209 13.5266" stroke="#FFB236" stroke-width="2.31579" stroke-linecap="round"/>
<path d="M19.9183 16.1372C20.132 15.9402 20.2389 15.8418 20.3687 15.8418C20.4985 15.8418 20.6054 15.9402 20.8191 16.1372L21.6444 16.8974C21.744 16.9893 21.7938 17.0352 21.8558 17.0579C21.9177 17.0807 21.9855 17.0781 22.1209 17.0728L23.2359 17.029C23.5229 17.0176 23.6665 17.0121 23.7649 17.0948C23.8633 17.1774 23.8824 17.3198 23.9208 17.6046L24.0744 18.7454C24.0921 18.8773 24.1011 18.9432 24.1331 18.9995C24.1653 19.0558 24.2175 19.0969 24.3221 19.1792L25.22 19.8861C25.4422 20.061 25.5534 20.1485 25.5754 20.2735C25.5974 20.3986 25.5228 20.5186 25.3737 20.759L24.7646 21.7405C24.6949 21.8528 24.6602 21.9089 24.6491 21.9724C24.638 22.0357 24.6518 22.1004 24.6793 22.2297L24.921 23.3626C24.9802 23.6409 25.01 23.7801 24.9462 23.8907C24.8825 24.0011 24.7472 24.0452 24.4766 24.1334L23.4047 24.4825C23.277 24.524 23.2131 24.5449 23.1632 24.5871C23.1133 24.6295 23.0823 24.6892 23.0205 24.8084L22.4969 25.8175C22.3634 26.0747 22.2967 26.2032 22.1751 26.2476C22.0536 26.2919 21.9197 26.2364 21.6521 26.1254L20.6234 25.6987C20.4977 25.6466 20.4349 25.6206 20.3687 25.6206C20.3025 25.6206 20.2397 25.6466 20.114 25.6987L19.0853 26.1254C18.8177 26.2364 18.6838 26.2919 18.5623 26.2476C18.4407 26.2032 18.374 26.0747 18.2405 25.8175L17.7169 24.8084C17.6551 24.6892 17.6241 24.6295 17.5742 24.5871C17.5243 24.5449 17.4604 24.524 17.3327 24.4825L16.2608 24.1334C15.9902 24.0452 15.8549 24.0011 15.7912 23.8907C15.7274 23.7801 15.7572 23.6409 15.8164 23.3626L16.0581 22.2297C16.0856 22.1004 16.0994 22.0357 16.0883 21.9724C16.0772 21.9089 16.0425 21.8528 15.9728 21.7405L15.3637 20.759C15.2146 20.5186 15.14 20.3986 15.162 20.2735C15.184 20.1485 15.2952 20.061 15.5174 19.8861L16.4153 19.1792C16.5199 19.0969 16.5721 19.0558 16.6043 18.9995C16.6363 18.9432 16.6453 18.8773 16.663 18.7454L16.8166 17.6046C16.855 17.3198 16.8741 17.1774 16.9725 17.0948C17.0709 17.0121 17.2145 17.0176 17.5015 17.029L18.6165 17.0728C18.7519 17.0781 18.8197 17.0807 18.8816 17.0579C18.9436 17.0352 18.9934 16.9893 19.093 16.8974L19.9183 16.1372Z" stroke="#FFB236" stroke-width="2.31579"/>
<path d="M18.632 7.1581L18.5169 6.80024C17.9438 5.01703 17.6572 4.12542 16.9749 3.61544C16.2926 3.10547 15.3863 3.10547 13.5738 3.10547H13.2691C11.4566 3.10547 10.5503 3.10547 9.86801 3.61544C9.18572 4.12542 8.89913 5.01703 8.32596 6.80024L8.21094 7.1581" stroke="#FFB236" stroke-width="2.31579"/>
</svg>
