<svg width="56" height="75" viewBox="0 0 56 75" fill="none" xmlns="http://www.w3.org/2000/svg">
<path d="M29.0801 0C34.8325 1.43838e-05 39.6586 1.07282 43.5586 3.21777C47.4829 5.36274 50.4446 8.31176 52.4434 12.0654C54.4665 15.7948 55.4785 20.036 55.4785 24.7891C55.4785 29.5909 54.4665 33.8566 52.4434 37.5859C50.4202 41.3152 47.434 44.2525 43.4854 46.3975C39.5367 48.5179 34.6741 49.5781 28.8975 49.5781H14.5645V74.8789H1V0H29.0801Z" fill="#001196"/>
<path d="M28.3252 6.28496C29.0347 5.9096 29.8952 6.13947 30.3291 6.7918C30.4375 6.87082 30.5387 6.96407 30.627 7.07403C30.8485 7.35 30.9592 7.67937 30.9697 8.00957L35.2383 16.283L35.3047 16.4275C35.5947 17.1639 35.2891 18.0205 34.5752 18.3982C33.8614 18.7758 32.9929 18.541 32.5615 17.8797L32.4814 17.741L29.7832 12.5125C28.0567 21.3125 25.4297 27.6622 21.4746 31.9383C16.7865 37.0069 10.4724 38.9197 2.42188 38.9197L2.42969 37.3514L2.4375 35.784C9.99853 35.784 15.3277 34.0017 19.2109 29.8035C22.545 26.1988 24.9797 20.6409 26.6504 12.367L22.3242 15.9295C21.6591 16.4771 20.682 16.3767 20.1426 15.7049C19.6035 15.0331 19.7061 14.0444 20.3711 13.4969L27.4756 7.64727C27.4822 7.6034 27.4885 7.55943 27.4951 7.51543C27.5484 7.01003 27.8445 6.53932 28.3252 6.28496Z" fill="white"/>
<path d="M28.3252 6.28496L27.5957 4.90604L27.5956 4.90609L28.3252 6.28496ZM30.3291 6.7918L29.0302 7.65579L29.1847 7.88804L29.4101 8.05237L30.3291 6.7918ZM30.627 7.07403L31.8435 6.09752L31.8434 6.09738L30.627 7.07403ZM30.9697 8.00957L29.4105 8.05932L29.4218 8.41161L29.5834 8.72484L30.9697 8.00957ZM35.2383 16.283L36.6558 15.6317L36.641 15.5994L36.6246 15.5677L35.2383 16.283ZM35.3047 16.4275L36.7562 15.8559L36.7403 15.8156L36.7222 15.7762L35.3047 16.4275ZM34.5752 18.3982L35.3046 19.7772L35.3048 19.7771L34.5752 18.3982ZM32.5615 17.8797L31.2106 18.6598L31.2318 18.6965L31.2549 18.7319L32.5615 17.8797ZM32.4814 17.741L31.0952 18.4564L31.1121 18.4892L31.1305 18.5211L32.4814 17.741ZM29.7832 12.5125L31.1695 11.7971L29.1149 7.81583L28.2524 12.2122L29.7832 12.5125ZM21.4746 31.9383L22.6198 32.9975L22.6198 32.9975L21.4746 31.9383ZM2.42188 38.9197L0.861894 38.912L0.854085 40.4797L2.42188 40.4797L2.42188 38.9197ZM2.42969 37.3514L0.869707 37.3436L0.869707 37.3436L2.42969 37.3514ZM2.4375 35.784L2.4375 34.224L0.885256 34.224L0.877519 35.7762L2.4375 35.784ZM19.2109 29.8035L20.3562 30.8628L20.3562 30.8628L19.2109 29.8035ZM26.6504 12.367L28.1795 12.6758L29.0487 8.37118L25.6587 11.1628L26.6504 12.367ZM22.3242 15.9295L23.3157 17.1339L23.3159 17.1337L22.3242 15.9295ZM20.1426 15.7049L18.9259 16.6812L18.9261 16.6815L20.1426 15.7049ZM20.3711 13.4969L21.3626 14.7012L21.3627 14.7012L20.3711 13.4969ZM27.4756 7.64727L28.4672 8.85158L28.9288 8.4715L29.0181 7.88026L27.4756 7.64727ZM27.4951 7.51543L29.0379 7.74662L29.043 7.71284L29.0465 7.67886L27.4951 7.51543ZM28.3252 6.28496L29.0547 7.66389C29.0565 7.66293 29.0567 7.663 29.0555 7.66337C29.0544 7.66372 29.0528 7.66409 29.0508 7.66431C29.047 7.66474 29.044 7.66435 29.0419 7.66383C29.04 7.66333 29.0378 7.66244 29.0354 7.66075C29.0342 7.65985 29.0329 7.65881 29.0319 7.6577C29.0307 7.65655 29.0302 7.65577 29.0302 7.65579L30.3291 6.7918L31.628 5.92781C30.7553 4.61582 29.021 4.152 27.5957 4.90604L28.3252 6.28496ZM30.3291 6.7918L29.4101 8.05237C29.4197 8.05935 29.4175 8.05944 29.4105 8.05067L30.627 7.07403L31.8434 6.09738C31.6598 5.8687 31.4553 5.68228 31.2481 5.53123L30.3291 6.7918ZM30.627 7.07403L29.4104 8.05053C29.4105 8.05072 29.4102 8.05029 29.4097 8.04939C29.4095 8.049 29.4093 8.04865 29.4092 8.04836C29.409 8.04808 29.409 8.04793 29.409 8.04794C29.409 8.04795 29.4093 8.04883 29.4097 8.05071C29.41 8.05263 29.4104 8.05551 29.4105 8.05932L30.9697 8.00957L32.5289 7.95983C32.5083 7.31373 32.29 6.65379 31.8435 6.09752L30.627 7.07403ZM30.9697 8.00957L29.5834 8.72484L33.8519 16.9983L35.2383 16.283L36.6246 15.5677L32.3561 7.2943L30.9697 8.00957ZM35.2383 16.283L33.8207 16.9343L33.8872 17.0788L35.3047 16.4275L36.7222 15.7762L36.6558 15.6317L35.2383 16.283ZM35.3047 16.4275L33.8532 16.9992C33.8533 16.9995 33.8535 16.9997 33.8535 17.0011C33.8535 17.0032 33.8531 17.0068 33.8515 17.0111C33.85 17.0152 33.8483 17.0174 33.8479 17.0179C33.8478 17.018 33.8478 17.018 33.8477 17.0181C33.8477 17.0181 33.8477 17.0181 33.8477 17.0181C33.8477 17.0181 33.8477 17.0181 33.8477 17.0181C33.8477 17.0181 33.8477 17.0181 33.8477 17.0181C33.8477 17.0181 33.8476 17.0182 33.8473 17.0184C33.847 17.0186 33.8465 17.0189 33.8456 17.0194L34.5752 18.3982L35.3048 19.7771C36.7295 19.0233 37.3337 17.3223 36.7562 15.8559L35.3047 16.4275ZM34.5752 18.3982L33.8458 17.0192C33.8441 17.0201 33.8439 17.0201 33.8451 17.0197C33.8462 17.0194 33.8477 17.019 33.8495 17.0188C33.8529 17.0185 33.8554 17.0188 33.8569 17.0192C33.8583 17.0196 33.8602 17.0203 33.8626 17.022C33.8638 17.0229 33.8651 17.024 33.8663 17.0252C33.8668 17.0258 33.8673 17.0263 33.8676 17.0267C33.8678 17.0269 33.8679 17.0271 33.868 17.0272C33.8681 17.0274 33.8681 17.0274 33.8681 17.0274L32.5615 17.8797L31.2549 18.7319C32.123 20.0628 33.8719 20.535 35.3046 19.7772L34.5752 18.3982ZM32.5615 17.8797L33.9125 17.0996L33.8324 16.9609L32.4814 17.741L31.1305 18.5211L31.2106 18.6598L32.5615 17.8797ZM32.4814 17.741L33.8677 17.0256L31.1695 11.7971L29.7832 12.5125L28.3969 13.2279L31.0952 18.4564L32.4814 17.741ZM29.7832 12.5125L28.2524 12.2122C26.5495 20.892 23.9993 26.9112 20.3294 30.879L21.4746 31.9383L22.6198 32.9975C26.86 28.4132 29.564 21.7331 31.314 12.8128L29.7832 12.5125ZM21.4746 31.9383L20.3294 30.879C16.0421 35.5143 10.2221 37.3597 2.42187 37.3597L2.42188 38.9197L2.42188 40.4797C10.7227 40.4797 17.5309 38.4995 22.6198 32.9975L21.4746 31.9383ZM2.42188 38.9197L3.98186 38.9275L3.98967 37.3591L2.42969 37.3514L0.869707 37.3436L0.861894 38.912L2.42188 38.9197ZM2.42969 37.3514L3.98967 37.3591L3.99748 35.7918L2.4375 35.784L0.877519 35.7762L0.869707 37.3436L2.42969 37.3514ZM2.4375 35.784L2.4375 37.344C10.2502 37.344 16.0728 35.4936 20.3562 30.8628L19.2109 29.8035L18.0657 28.7442C14.5826 32.5099 9.74686 34.224 2.4375 34.224L2.4375 35.784ZM19.2109 29.8035L20.3562 30.8628C23.9714 26.9541 26.4844 21.071 28.1795 12.6758L26.6504 12.367L25.1213 12.0582C23.4751 20.2108 21.1186 25.4435 18.0657 28.7443L19.2109 29.8035ZM26.6504 12.367L25.6587 11.1628L21.3326 14.7253L22.3242 15.9295L23.3159 17.1337L27.6421 13.5712L26.6504 12.367ZM22.3242 15.9295L21.3327 14.7251C21.3311 14.7264 21.331 14.7263 21.3323 14.7256C21.3336 14.7249 21.3353 14.7242 21.3372 14.7236C21.3409 14.7225 21.3439 14.7225 21.3459 14.7227C21.3479 14.7229 21.3509 14.7236 21.3545 14.7255C21.3563 14.7265 21.3579 14.7276 21.3591 14.7285C21.3603 14.7296 21.3603 14.7298 21.359 14.7282L20.1426 15.7049L18.9261 16.6815C20.01 18.0316 21.9802 18.2334 23.3157 17.1339L22.3242 15.9295ZM20.1426 15.7049L21.3593 14.7286C21.3586 14.7277 21.3583 14.7272 21.3581 14.7269C21.3579 14.7267 21.3578 14.7265 21.3578 14.7265C21.3578 14.7265 21.3577 14.7263 21.3576 14.7257C21.3571 14.7242 21.3564 14.7204 21.357 14.715C21.3576 14.7095 21.359 14.7058 21.3599 14.7042C21.3602 14.7036 21.3604 14.7033 21.3605 14.7032C21.3605 14.7032 21.361 14.7025 21.3626 14.7012L20.3711 13.4969L19.3796 12.2925C18.056 13.3822 17.8518 15.3427 18.9259 16.6812L20.1426 15.7049ZM20.3711 13.4969L21.3627 14.7012L28.4672 8.85158L27.4756 7.64727L26.484 6.44296L19.3795 12.2926L20.3711 13.4969ZM27.4756 7.64727L29.0181 7.88026C29.0228 7.84897 29.0353 7.76415 29.0379 7.74662L27.4951 7.51543L25.9523 7.28424C25.9418 7.35471 25.9416 7.35784 25.9331 7.41428L27.4756 7.64727ZM27.4951 7.51543L29.0465 7.67886C29.0467 7.67715 29.0472 7.67494 29.048 7.67256C29.0489 7.67019 29.0499 7.66837 29.0506 7.66719C29.0513 7.66612 29.0518 7.66574 29.0518 7.6657C29.0519 7.66566 29.052 7.66553 29.0523 7.6653C29.0526 7.66508 29.0534 7.66457 29.0548 7.66383L28.3252 6.28496L27.5956 4.90609C26.6355 5.41412 26.0489 6.35296 25.9437 7.35201L27.4951 7.51543Z" fill="white"/>
</svg>
