<svg width="17" height="16" viewBox="0 0 17 16" fill="none" xmlns="http://www.w3.org/2000/svg">
<path d="M9.43063 7.83648C9.42676 8.03923 9.36279 8.23626 9.24682 8.4026C9.13085 8.56895 8.9681 8.69711 8.77921 8.77086C8.59031 8.8446 8.38377 8.8606 8.18578 8.81683C7.98778 8.77306 7.80723 8.67149 7.66703 8.52499C7.52682 8.37849 7.43326 8.19366 7.39822 7.99393C7.36318 7.79421 7.38822 7.58857 7.47018 7.40309C7.55214 7.21761 7.68732 7.06064 7.85859 6.95208C8.02986 6.84352 8.22951 6.78825 8.43223 6.79328C8.7016 6.80326 8.95651 6.91776 9.14289 7.11251C9.32927 7.30725 9.43248 7.56693 9.43063 7.83648Z" fill="#0018CC"/>
<path d="M10.1697 4.62891H6.6977C6.35415 4.62891 6.02467 4.76538 5.78175 5.00831C5.53882 5.25124 5.40234 5.58072 5.40234 5.92427V9.47435C5.40234 9.64446 5.43585 9.8129 5.50095 9.97006C5.56604 10.1272 5.66146 10.27 5.78175 10.3903C5.90203 10.5106 6.04483 10.606 6.20199 10.6711C6.35915 10.7362 6.52759 10.7697 6.6977 10.7697H10.1697C10.3398 10.7697 10.5083 10.7362 10.6654 10.6711C10.8226 10.606 10.9654 10.5106 11.0857 10.3903C11.2059 10.27 11.3014 10.1272 11.3665 9.97006C11.4316 9.8129 11.4651 9.64446 11.4651 9.47435V5.93067C11.4657 5.76007 11.4327 5.59101 11.368 5.43319C11.3032 5.27536 11.2079 5.13188 11.0876 5.01095C10.9672 4.89001 10.8242 4.79402 10.6667 4.72846C10.5092 4.66291 10.3403 4.62907 10.1697 4.62891ZM8.43338 9.57163C8.08968 9.57939 7.75146 9.48456 7.46189 9.29925C7.17232 9.11394 6.94452 8.84656 6.80758 8.53122C6.67064 8.21588 6.63077 7.86689 6.69304 7.52878C6.75532 7.19068 6.91692 6.8788 7.15723 6.63295C7.39753 6.38709 7.70564 6.21842 8.04224 6.14844C8.37883 6.07847 8.72864 6.11037 9.04702 6.24007C9.3654 6.36978 9.63792 6.59141 9.82979 6.87668C10.0217 7.16195 10.1242 7.49792 10.1243 7.84171C10.1271 8.06638 10.0855 8.2894 10.002 8.498C9.91849 8.70659 9.79467 8.89667 9.63761 9.05736C9.48055 9.21804 9.29335 9.34617 9.08671 9.43442C8.88007 9.52266 8.65806 9.56929 8.43338 9.57163ZM10.3124 6.11243C10.2702 6.11243 10.2284 6.10402 10.1894 6.08767C10.1505 6.07131 10.1152 6.04736 10.0857 6.0172C10.0561 5.98704 10.0329 5.95129 10.0173 5.91203C10.0017 5.87278 9.99413 5.83081 9.99498 5.78859C9.99498 5.7027 10.0291 5.62033 10.0898 5.5596C10.1506 5.49887 10.2329 5.46475 10.3188 5.46475C10.4047 5.46475 10.4871 5.49887 10.5478 5.5596C10.6085 5.62033 10.6427 5.7027 10.6427 5.78859C10.6439 5.83431 10.6353 5.87976 10.6174 5.92184C10.5995 5.96391 10.5726 6.00162 10.5388 6.03237C10.5049 6.06313 10.4648 6.0862 10.4212 6.10002C10.3776 6.11384 10.3316 6.11807 10.2862 6.11243H10.3124Z" fill="#0018CC"/>
<path d="M8.43208 1.27938C6.73469 1.27089 5.10346 1.93703 3.89722 3.13127C2.69099 4.3255 2.00857 5.94999 2.00008 7.64738C1.99159 9.34476 2.65774 10.976 3.85197 12.1822C5.0462 13.3885 6.67069 14.0709 8.36808 14.0794C9.20854 14.0836 10.0416 13.9222 10.8197 13.6045C11.5978 13.2867 12.3057 12.8188 12.9029 12.2275C13.5002 11.6362 13.9752 10.933 14.3007 10.1581C14.6262 9.38324 14.7959 8.55184 14.8001 7.71138C14.8043 6.87092 14.6429 6.03786 14.3252 5.25977C14.0074 4.48168 13.5395 3.77379 12.9482 3.17652C12.3569 2.57925 11.6537 2.10431 10.8788 1.77879C10.1039 1.45328 9.27254 1.28358 8.43208 1.27938ZM12.3188 9.40866C12.3206 9.69578 12.2654 9.98041 12.1563 10.246C12.0473 10.5117 11.8866 10.753 11.6836 10.956C11.4806 11.1591 11.2393 11.3199 10.9737 11.429C10.7081 11.5381 10.4235 11.5934 10.1364 11.5917H6.72904C6.44192 11.5935 6.15729 11.5383 5.89167 11.4292C5.62605 11.3202 5.38471 11.1595 5.18165 10.9565C4.97859 10.7535 4.81784 10.5122 4.70873 10.2466C4.59961 9.98103 4.5443 9.69642 4.546 9.4093V6.0013C4.54422 5.71417 4.59944 5.42955 4.70848 5.16393C4.81752 4.8983 4.97819 4.65697 5.18119 4.45391C5.3842 4.25084 5.62549 4.0901 5.89108 3.98098C6.15667 3.87187 6.44127 3.81656 6.7284 3.81826H10.1364C10.4235 3.81656 10.708 3.87185 10.9736 3.98092C11.2391 4.09 11.4804 4.25069 11.6834 4.45368C11.8864 4.65667 12.0471 4.89794 12.1561 5.16348C12.2652 5.42903 12.3205 5.71359 12.3188 6.00066V9.40866Z" fill="#0018CC"/>
</svg>
