<svg width="17" height="16" viewBox="0 0 17 16" fill="none" xmlns="http://www.w3.org/2000/svg">
<path d="M8.56016 1.2793C7.29436 1.2793 6.05698 1.65465 5.00451 2.35789C3.95204 3.06113 3.13173 4.06068 2.64733 5.23012C2.16293 6.39957 2.03619 7.6864 2.28313 8.92787C2.53008 10.1694 3.13962 11.3097 4.03468 12.2048C4.92973 13.0998 6.0701 13.7094 7.31158 13.9563C8.55306 14.2033 9.83989 14.0765 11.0093 13.5921C12.1788 13.1077 13.1783 12.2874 13.8816 11.2349C14.5848 10.1825 14.9602 8.9451 14.9602 7.6793C14.9585 5.98243 14.2836 4.35555 13.0838 3.15568C11.8839 1.95582 10.257 1.28099 8.56016 1.2793ZM12.3611 6.21562V6.62906C12.3611 6.6607 12.3548 6.69202 12.3425 6.72118C12.3302 6.75033 12.3122 6.77673 12.2895 6.7988C12.2668 6.82088 12.24 6.83819 12.2105 6.8497C12.181 6.86122 12.1496 6.86671 12.1179 6.86586C11.4422 6.81812 10.7957 6.57137 10.26 6.15674V9.18266C10.2599 9.51755 10.193 9.84906 10.0633 10.1578C9.93367 10.4666 9.74379 10.7465 9.5048 10.9811C9.26384 11.2218 8.97727 11.412 8.66187 11.5406C8.34647 11.6692 8.00858 11.7335 7.668 11.7299C6.98312 11.7289 6.32576 11.4601 5.83632 10.9811C5.52489 10.6671 5.30057 10.2774 5.18544 9.85043C5.0703 9.42345 5.06832 8.97384 5.17968 8.54586C5.28144 8.13498 5.48688 7.75738 5.7768 7.44954C5.99301 7.18527 6.26555 6.97267 6.57449 6.82728C6.88343 6.68189 7.22096 6.60739 7.5624 6.60922H8.0872V7.69914C8.08743 7.73079 8.08091 7.76213 8.06808 7.79107C8.05524 7.82 8.03639 7.84587 8.01277 7.86695C7.98915 7.88802 7.96131 7.90382 7.93111 7.91329C7.9009 7.92276 7.86902 7.92568 7.8376 7.92186C7.53289 7.83033 7.20455 7.86069 6.92178 8.00653C6.63902 8.15238 6.42393 8.40231 6.32185 8.70365C6.21977 9.00499 6.23868 9.33419 6.37459 9.62186C6.5105 9.90953 6.7528 10.1332 7.0504 10.2457C7.2232 10.3449 7.41648 10.4031 7.61488 10.4166C7.76848 10.423 7.92208 10.4038 8.068 10.3577C8.3116 10.2755 8.52349 10.1194 8.67412 9.91103C8.82475 9.70269 8.90662 9.45254 8.90832 9.19546V3.68186C8.90832 3.62086 8.93251 3.56236 8.97558 3.51917C9.01865 3.47598 9.07709 3.45163 9.13808 3.45146H10.0437C10.1025 3.45153 10.1591 3.47411 10.2018 3.51457C10.2445 3.55503 10.2702 3.61031 10.2734 3.66906C10.3065 3.95144 10.3961 4.22426 10.5371 4.47115C10.6781 4.71804 10.8675 4.93392 11.0939 5.10586C11.3999 5.33555 11.7633 5.47639 12.1442 5.5129C12.2012 5.51778 12.2545 5.54316 12.2943 5.58434C12.3341 5.62552 12.3576 5.67972 12.3605 5.7369L12.3611 6.21562Z" fill="#0018CC"/>
</svg>
