<svg width="16" height="16" viewBox="0 0 16 16" fill="none" xmlns="http://www.w3.org/2000/svg">
<path d="M9.0707 7.55119L7.34577 6.74632C7.19525 6.67643 7.0716 6.75477 7.0716 6.92143V8.43746C7.0716 8.60411 7.19525 8.68245 7.34577 8.61256L9.06993 7.8077C9.22123 7.73704 9.22123 7.62184 9.0707 7.55119ZM7.8396 0.306641C3.76766 0.306641 0.466797 3.60751 0.466797 7.67944C0.466797 11.7514 3.76766 15.0522 7.8396 15.0522C11.9115 15.0522 15.2124 11.7514 15.2124 7.67944C15.2124 3.60751 11.9115 0.306641 7.8396 0.306641ZM7.8396 10.6746C4.06565 10.6746 3.9996 10.3344 3.9996 7.67944C3.9996 5.02447 4.06565 4.68424 7.8396 4.68424C11.6136 4.68424 11.6796 5.02447 11.6796 7.67944C11.6796 10.3344 11.6136 10.6746 7.8396 10.6746Z" fill="#0018CC"/>
</svg>
